{
.appVersion = "1342";
classes = (
{
automatic = 1;
code = "A Aacute Abreve Acircumflex Adieresis Agrave Amacron Aogonek Aring Atilde AE AEacute B C Cacute Ccaron Ccedilla Cdotaccent D Eth Dcaron Dcroat E Eacute Ecaron Ecircumflex Edieresis Edotaccent Egrave Emacron Eogonek F G Gbreve Gcommaaccent Gdotaccent H I Iacute Icircumflex Idieresis Idotaccent Igrave Imacron Iogonek J K Kcommaaccent L Lacute Lcaron Lcommaaccent Lslash M N Nacute Ncaron Ncommaaccent Ntilde O Oacute Ocircumflex Odieresis Ograve Ohungarumlaut Omacron Oslash Oslashacute Otilde OE P Thorn Q R Racute Rcaron Rcommaaccent S Sacute Scaron Scedilla Scommaaccent Germandbls T Tcaron Tcedilla Tcommaaccent U Uacute Ucircumflex Udieresis Ugrave Uhungarumlaut Umacron Uogonek Uring V W Wacute Wcircumflex Wdieresis Wgrave X Y Yacute Ycircumflex Ydieresis Ygrave Z Zacute Zcaron Zdotaccent Delta";
name = Uppercase;
}
);
copyright = "Copyright (c) 2020 The Open Sauce One Authors (https://github.com/marcologous/Open-Sauce-Fonts)";
customParameters = (
{
name = licenseURL;
value = "http://scripts.sil.org/OFL";
},
{
name = license;
value = "Copyright (c) 2020 The Open Sauce One Authors (https://github.com/marcologous/Open-Sauce-Fonts)\012\012This Font Software is licensed under the SIL Open Font License, Version 1.1.\012This license is copied below, and is also available with a FAQ at:\012http://scripts.sil.org/OFL";
},
{
name = fsType;
value = (
);
}
);
date = "2020-07-09 07:12:35 +0000";
designer = "Alfredo Marco Pradil";
designerURL = "http://www.creative-sauce.com";
familyName = "Open Sauce One";
featurePrefixes = (
{
automatic = 1;
code = "languagesystem DFLT dflt;\012\012languagesystem latn dflt;\012languagesystem latn AZE;\012languagesystem latn CRT;\012languagesystem latn KAZ;\012languagesystem latn TAT;\012languagesystem latn TRK;\012languagesystem latn ROM;\012languagesystem latn MOL;\012";
name = Languagesystems;
}
);
features = (
{
automatic = 1;

glyphs = (
{
color = 1;
glyphname = A;
lastChange = "2020-04-14 05:28:24 +0000";
layers = (
{
anchors = (
{
name = bottom;
position = "{360, 0}";
},
{
name = ogonek;
position = "{718, 0}";
},
{
name = top;
position = "{360, 763}";
}
);
guideLines = (
{
position = "{361, 436}";
}
);
layerId = "FD6EB2BB-8839-4CDB-86BF-4EEAE3F02079";
paths = (
{
closed = 1;
nodes = (
"192 0 LINE",
"233 137 LINE",
"487 137 LINE",
"528 0 LINE",
"718 0 LINE",
"457 763 LINE",
"263 763 LINE",
"2 0 LINE"
);
},
{
closed = 1;
nodes = (
"360 564 LINE",
"440 292 LINE",
"280 292 LINE"
);
}
);
width = 720;
},
{
anchors = (
{
name = bottom;
position = "{347, 0}";
},
{
name = ogonek;
position = "{680, 0}";
},
{
name = top;
position = "{347, 763}";
}
);
guideLines = (
{
position = "{341, 436}";
}
);
layerId = "11907447-A26F-432E-A335-7727E0303767";
paths = (
{
closed = 1;
nodes = (
"107 0 LINE",
"174 187 LINE",
"520 187 LINE",
"587 0 LINE",
"680 0 LINE",
"399 763 LINE",
"295 763 LINE",
"14 0 LINE"
);
},
{
closed = 1;
nodes = (
"347 669 LINE",
"489 269 LINE",
"205 269 LINE"
);
}
);
width = 694;
},
{
anchors = (
{
name = bottom;
position = "{344, 0}";
},
{
name = ogonek;
position = "{672, 0}";
},
{
name = top;
position = "{344, 763}";
}
);
guideLines = (
{
position = "{361, 436}";
}
);
layerId = "2F4EEC1B-9E89-4E08-AD53-AB625B6E887D";
paths = (
{
closed = 1;
nodes = (
"87 0 LINE",
"164 206 LINE",
"524 206 LINE",
"601 0 LINE",
"672 0 LINE",
"384 763 LINE",
"304 763 LINE",
"16 0 LINE"
);
},
{
closed = 1;
nodes = (
"344 692 LINE",
"502 268 LINE",
"186 268 LINE"
);
}
);
width = 688;
}
);
leftKerningGroup = A;
note = A;
rightKerningGroup = A;
unicode = 0041;
},
{
color = 1;
glyphname = Aring;
lastChange = "2020-04-14 07:27:16 +0000";
layers = (
{
layerId = "11907447-A26F-432E-A335-7727E0303767";
paths = (
{
closed = 1;
nodes = (
"107 0 LINE",
"174 187 LINE",
"520 187 LINE",
"587 0 LINE",
"680 0 LINE",
"414 723 LINE",
"447 744 OFFCURVE",
"466 781 OFFCURVE",
"466 821 CURVE SMOOTH",
"466 888 OFFCURVE",
"410 939 OFFCURVE",
"346 939 CURVE SMOOTH",
"281 939 OFFCURVE",
"228 887 OFFCURVE",
"228 821 CURVE SMOOTH",
"228 781 OFFCURVE",
"247 744 OFFCURVE",
"280 723 CURVE",
"14 0 LINE"
);
},
{
closed = 1;
nodes = (
"347 671 LINE",
"489 269 LINE",
"205 269 LINE"
);
},
{
closed = 1;
nodes = (
"316 764 OFFCURVE",
"291 789 OFFCURVE",
"291 823 CURVE SMOOTH",
"291 854 OFFCURVE",
"315 878 OFFCURVE",
"347 878 CURVE SMOOTH",
"382 878 OFFCURVE",
"404 853 OFFCURVE",
"404 823 CURVE SMOOTH",
"404 789 OFFCURVE",
"380 764 OFFCURVE",
"347 764 CURVE SMOOTH"
);
}
);
width = 694;
},
{
layerId = "FD6EB2BB-8839-4CDB-86BF-4EEAE3F02079";
paths = (
{
closed = 1;
nodes = (
"192 0 LINE",
"233 137 LINE",
"487 137 LINE",
"528 0 LINE",
"718 0 LINE",
"467 736 LINE",
"483 757 OFFCURVE",
"493 785 OFFCURVE",
"493 816 CURVE SMOOTH",
"493 890 OFFCURVE",
"433 949 OFFCURVE",
"360 949 CURVE SMOOTH",
"286 949 OFFCURVE",
"227 890 OFFCURVE",
"227 816 CURVE SMOOTH",
"227 787 OFFCURVE",
"236 758 OFFCURVE",
"254 736 CURVE",
"2 0 LINE"
);
},
{
closed = 1;
nodes = (
"360 563 LINE",
"440 292 LINE",
"280 292 LINE"
);
},
{
closed = 1;
nodes = (
"332 766 OFFCURVE",
"311 787 OFFCURVE",
"311 818 CURVE SMOOTH",
"311 844 OFFCURVE",
"329 865 OFFCURVE",
"360 865 CURVE SMOOTH",
"392 865 OFFCURVE",
"409 845 OFFCURVE",
"409 818 CURVE SMOOTH",
"409 787 OFFCURVE",
"390 766 OFFCURVE",
"360 766 CURVE SMOOTH"
);
}
);
width = 720;
},
{
layerId = "2F4EEC1B-9E89-4E08-AD53-AB625B6E887D";
paths = (
{
closed = 1;
nodes = (
"87 0 LINE",
"164 206 LINE",
"524 206 LINE",
"601 0 LINE",
"672 0 LINE",
"396 730 LINE",
"429 749 OFFCURVE",
"453 784 OFFCURVE",
"453 826 CURVE SMOOTH",
"453 887 OFFCURVE",
"402 934 OFFCURVE",
"344 934 CURVE SMOOTH",
"283 934 OFFCURVE",
"235 886 OFFCURVE",
"235 826 CURVE SMOOTH",
"235 786 OFFCURVE",
"258 751 OFFCURVE",
"291 729 CURVE",
"16 0 LINE"
);
},
{
closed = 1;
nodes = (
"344 694 LINE",
"502 267 LINE",
"186 267 LINE"
);
},
{
closed = 1;
nodes = (
"311 764 OFFCURVE",
"283 791 OFFCURVE",
"283 828 CURVE SMOOTH",
"283 861 OFFCURVE",
"310 888 OFFCURVE",
"345 888 CURVE SMOOTH",
"381 888 OFFCURVE",
"406 861 OFFCURVE",
"406 828 CURVE SMOOTH",
"406 792 OFFCURVE",
"380 764 OFFCURVE",
"345 764 CURVE SMOOTH"
);
}
);
width = 688;
}
);
leftKerningGroup = A;
leftMetricsKey = A;
rightKerningGroup = A;
rightMetricsKey = A;
unicode = 00C5;
},
{
color = 1;
glyphname = AE;
lastChange = "2020-04-14 05:29:08 +0000";
layers = (
{
anchors = (
{
name = bottom;
position = "{536, 0}";
},
{
name = top;
position = "{536, 763}";
}
);
layerId = "11907447-A26F-432E-A335-7727E0303767";
paths = (
{
closed = 1;
nodes = (
"107 0 LINE",
"174 187 LINE",
"520 187 LINE",
"583 0 LINE",
"1058 0 LINE",
"1027 83 LINE",
"650 83 LINE",
"555 342 LINE",
"931 342 LINE",
"902 424 LINE",
"525 424 LINE",
"431 680 LINE",
"808 680 LINE",
"777 763 LINE",
"295 763 LINE",
"14 0 LINE"
);
},
{
closed = 1;
nodes = (
"347 672 LINE",
"489 269 LINE",
"205 269 LINE"
);
}
);
width = 1072;
},
{
anchors = (
{
name = bottom;
position = "{514, 0}";
},
{
name = top;
position = "{514, 763}";
}
);
layerId = "FD6EB2BB-8839-4CDB-86BF-4EEAE3F02079";
paths = (
{
closed = 1;
nodes = (
"192 0 LINE",
"233 137 LINE",
"487 137 LINE",
"528 0 LINE",
"1026 0 LINE",
"972 160 LINE",
"665 160 LINE",
"617 302 LINE",
"923 302 LINE",
"869 461 LINE",
"562 461 LINE",
"514 603 LINE",
"820 603 LINE",
"764 763 LINE",
"263 763 LINE",
"2 0 LINE"
);
},
{
closed = 1;
nodes = (
"360 563 LINE",
"440 292 LINE",
"280 292 LINE"
);
}
);
width = 1028;
},
{
anchors = (
{
name = bottom;
position = "{531, 0}";
},
{
name = top;
position = "{531, 763}";
}
);
layerId = "2F4EEC1B-9E89-4E08-AD53-AB625B6E887D";
paths = (
{
closed = 1;
nodes = (
"87 0 LINE",
"164 206 LINE",
"524 206 LINE",
"597 0 LINE",
"1045 0 LINE",
"1021 62 LINE",
"649 62 LINE",
"539 353 LINE",
"911 353 LINE",
"889 414 LINE",
"516 414 LINE",
"408 701 LINE",
"782 701 LINE",
"758 763 LINE",
"304 763 LINE",
"16 0 LINE"
);
},
{
closed = 1;
nodes = (
"344 693 LINE",
"502 267 LINE",
"186 267 LINE"
);
}
);
width = 1061;
}
);
leftKerningGroup = A;
leftMetricsKey = A;
rightKerningGroup = A;
rightMetricsKey = A;
unicode = 00C6;
},
{
color = 1;
glyphname = B;
lastChange = "2020-04-14 05:29:53 +0000";
layers = (
{
anchors = (
{
name = bottom;
position = "{338, 0}";
},
{
name = top;
position = "{338, 763}";
}
);
layerId = "FD6EB2BB-8839-4CDB-86BF-4EEAE3F02079";
paths = (
{
closed = 1;
nodes = (
"386 0 LINE SMOOTH",
"416 0 OFFCURVE",
"520 0 OFFCURVE",
"594 56 CURVE SMOOTH",
"637 89 OFFCURVE",
"670 151 OFFCURVE",
"670 226 CURVE SMOOTH",
"670 319 OFFCURVE",
"620 381 OFFCURVE",
"529 401 CURVE",
"595 428 OFFCURVE",
"631 488 OFFCURVE",
"631 572 CURVE SMOOTH",
"631 626 OFFCURVE",
"616 666 OFFCURVE",
"586 697 CURVE SMOOTH",
"544 741 OFFCURVE",
"472 763 OFFCURVE",
"372 763 CURVE SMOOTH",
"60 763 LINE",
"60 0 LINE"
);
},
{
closed = 1;
nodes = (
"239 315 LINE",
"376 315 LINE SMOOTH",
"449 315 OFFCURVE",
"491 304 OFFCURVE",
"491 241 CURVE SMOOTH",
"491 213 OFFCURVE",
"483 195 OFFCURVE",
"468 183 CURVE SMOOTH",
"445 164 OFFCURVE",
"408 160 OFFCURVE",
"363 160 CURVE SMOOTH",
"239 160 LINE"
);
},
{
closed = 1;
nodes = (
"239 603 LINE",
"333 603 LINE SMOOTH",
"385 603 OFFCURVE",
"411 598 OFFCURVE",
"428 585 CURVE SMOOTH",
"444 573 OFFCURVE",
"452 555 OFFCURVE",
"452 530 CURVE SMOOTH",
"452 480 OFFCURVE",
"420 455 OFFCURVE",
"357 455 CURVE SMOOTH",
"239 455 LINE"
);
}
);
width = 703;
},
{
anchors = (
{
name = bottom;
position = "{334, 0}";
},
{
name = top;
position = "{334, 763}";
}
);
layerId = "11907447-A26F-432E-A335-7727E0303767";
paths = (
{
closed = 1;
nodes = (
"378 0 LINE SMOOTH",
"442 0 OFFCURVE",
"528 14 OFFCURVE",
"583 67 CURVE SMOOTH",
"616 100 OFFCURVE",
"639 147 OFFCURVE",
"639 215 CURVE SMOOTH",
"639 322 OFFCURVE",
"579 392 OFFCURVE",
"471 400 CURVE",
"552 408 OFFCURVE",
"601 481 OFFCURVE",
"601 572 CURVE SMOOTH",
"601 627 OFFCURVE",
"585 674 OFFCURVE",
"550 707 CURVE SMOOTH",
"512 743 OFFCURVE",
"453 763 OFFCURVE",
"366 763 CURVE SMOOTH",
"79 763 LINE",
"79 0 LINE"
);
},
{
closed = 1;
nodes = (
"171 350 LINE",
"388 350 LINE SMOOTH",
"430 350 OFFCURVE",
"547 350 OFFCURVE",
"547 221 CURVE SMOOTH",
"547 174 OFFCURVE",
"532 143 OFFCURVE",
"510 123 CURVE SMOOTH",
"467 83 OFFCURVE",
"398 83 OFFCURVE",
"368 83 CURVE SMOOTH",
"171 83 LINE"
);
},
{
closed = 1;
nodes = (
"171 680 LINE",
"346 680 LINE SMOOTH",
"401 680 OFFCURVE",
"447 669 OFFCURVE",
"476 641 CURVE SMOOTH",
"496 622 OFFCURVE",
"508 595 OFFCURVE",
"508 557 CURVE SMOOTH",
"508 478 OFFCURVE",
"456 432 OFFCURVE",
"366 432 CURVE SMOOTH",
"171 432 LINE"
);
}
);
width = 690;
},
{
anchors = (
{
name = bottom;
position = "{328, 0}";
},
{
name = top;
position = "{328, 763}";
}
);
layerId = "2F4EEC1B-9E89-4E08-AD53-AB625B6E887D";
paths = (
{
closed = 1;
nodes = (
"371 0 LINE SMOOTH",
"440 0 OFFCURVE",
"515 15 OFFCURVE",
"566 61 CURVE SMOOTH",
"602 94 OFFCURVE",
"626 142 OFFCURVE",
"626 211 CURVE SMOOTH",
"626 319 OFFCURVE",
"565 391 OFFCURVE",
"466 399 CURVE",
"539 407 OFFCURVE",
"588 480 OFFCURVE",
"588 573 CURVE SMOOTH",
"588 622 OFFCURVE",
"576 664 OFFCURVE",
"550 695 CURVE SMOOTH",
"514 739 OFFCURVE",
"452 763 OFFCURVE",
"359 763 CURVE SMOOTH",
"79 763 LINE",
"79 0 LINE"
);
},
{
closed = 1;
nodes = (
"148 361 LINE",
"391 361 LINE SMOOTH",
"454 361 OFFCURVE",
"557 342 OFFCURVE",
"557 215 CURVE SMOOTH",
"557 165 OFFCURVE",
"540 131 OFFCURVE",
"516 108 CURVE SMOOTH",
"475 69 OFFCURVE",
"411 62 OFFCURVE",
"364 62 CURVE SMOOTH",
"148 62 LINE"
);
},
{
closed = 1;
nodes = (
"148 701 LINE",
"345 701 LINE SMOOTH",
"403 701 OFFCURVE",
"450 689 OFFCURVE",
"481 661 CURVE SMOOTH",
"505 639 OFFCURVE",
"519 606 OFFCURVE",
"519 562 CURVE SMOOTH",
"519 477 OFFCURVE",
"461 423 OFFCURVE",
"369 423 CURVE SMOOTH",
"148 423 LINE"
);
}
);
width = 677;
}
);
leftKerningGroup = B;
note = B;
rightKerningGroup = B;
unicode = 0042;
},
{
color = 1;
glyphname = C;
lastChange = "2020-04-06 07:34:10 +0000";
layers = (
{
anchors = (
{
name = bottom;
position = "{389, 0}";
},
{
name = top;
position = "{389, 763}";
}
);
guideLines = (
{
position = "{124, 259}";
},
{
position = "{525, 505}";
},
{
position = "{418, 525}";
}
);
layerId = "FD6EB2BB-8839-4CDB-86BF-4EEAE3F02079";
paths = (
{
closed = 1;
nodes = (
"614 -17 OFFCURVE",
"731 94 OFFCURVE",
"751 259 CURVE",
"555 259 LINE",
"543 179 OFFCURVE",
"485 143 OFFCURVE",
"409 143 CURVE SMOOTH",
"288 143 OFFCURVE",
"221 237 OFFCURVE",
"221 382 CURVE SMOOTH",
"221 526 OFFCURVE",
"288 619 OFFCURVE",
"409 619 CURVE SMOOTH",
"485 619 OFFCURVE",
"544 583 OFFCURVE",
"555 505 CURVE",
"751 505 LINE",
"731 669 OFFCURVE",
"614 779 OFFCURVE",
"413 779 CURVE SMOOTH",
"152 779 OFFCURVE",
"32 595 OFFCURVE",
"32 382 CURVE SMOOTH",
"32 169 OFFCURVE",
"152 -17 OFFCURVE",
"413 -17 CURVE SMOOTH"
);
}
);
width = 779;
},
{
anchors = (
{
name = bottom;
position = "{372, 0}";
},
{
name = top;
position = "{372, 763}";
}
);
guideLines = (
{
position = "{657, 231}";
}
);
layerId = "11907447-A26F-432E-A335-7727E0303767";
paths = (
{
closed = 1;
nodes = (
"572 -10 OFFCURVE",
"683 83 OFFCURVE",
"707 231 CURVE",
"607 231 LINE",
"588 126 OFFCURVE",
"510 72 OFFCURVE",
"400 72 CURVE SMOOTH",
"230 72 OFFCURVE",
"142 203 OFFCURVE",
"142 382 CURVE SMOOTH",
"142 560 OFFCURVE",
"230 691 OFFCURVE",
"400 691 CURVE SMOOTH",
"510 691 OFFCURVE",
"588 637 OFFCURVE",
"607 552 CURVE",
"707 552 LINE",
"684 682 OFFCURVE",
"572 773 OFFCURVE",
"402 773 CURVE SMOOTH",
"161 773 OFFCURVE",
"50 589 OFFCURVE",
"50 382 CURVE SMOOTH",
"50 175 OFFCURVE",
"161 -10 OFFCURVE",
"402 -10 CURVE SMOOTH"
);
}
);
width = 748;
},
{
anchors = (
{
name = bottom;
position = "{394, 0}";
},
{
name = top;
position = "{394, 763}";
}
);
layerId = "2F4EEC1B-9E89-4E08-AD53-AB625B6E887D";
paths = (
{
closed = 1;
nodes = (
"558 -10 OFFCURVE",
"666 79 OFFCURVE",
"691 216 CURVE",
"618 216 LINE",
"597 111 OFFCURVE",
"512 52 OFFCURVE",
"393 52 CURVE SMOOTH",
"210 52 OFFCURVE",
"119 195 OFFCURVE",
"119 382 CURVE SMOOTH",
"119 568 OFFCURVE",
"210 711 OFFCURVE",
"393 711 CURVE SMOOTH",
"512 711 OFFCURVE",
"598 652 OFFCURVE",
"618 561 CURVE",
"691 561 LINE",
"667 685 OFFCURVE",
"558 773 OFFCURVE",
"395 773 CURVE SMOOTH",
"159 773 OFFCURVE",
"50 589 OFFCURVE",
"50 382 CURVE SMOOTH",
"50 175 OFFCURVE",
"159 -10 OFFCURVE",
"395 -10 CURVE SMOOTH"
);
}
);
width = 733;
}
);
leftKerningGroup = C;
note = C;
rightKerningGroup = C;
unicode = 0043;
},
{
color = 1;
glyphname = D;
lastChange = "2020-03-29 19:50:52 +0000";
layers = (
{
anchors = (
{
name = bottom;
position = "{348, 0}";
},
{
name = center;
position = "{212, 382}";
},
{
name = top;
position = "{348, 763}";
}
);
layerId = "FD6EB2BB-8839-4CDB-86BF-4EEAE3F02079";
paths = (
{
closed = 1;
nodes = (
"291 0 LINE SMOOTH",
"551 0 OFFCURVE",
"694 136 OFFCURVE",
"694 383 CURVE SMOOTH",
"694 628 OFFCURVE",
"551 763 OFFCURVE",
"291 763 CURVE SMOOTH",
"60 763 LINE",
"60 0 LINE"
);
},
{
closed = 1;
nodes = (
"239 603 LINE",
"289 603 LINE SMOOTH",
"428 603 OFFCURVE",
"515 528 OFFCURVE",
"515 383 CURVE SMOOTH",
"515 228 OFFCURVE",
"436 160 OFFCURVE",
"289 160 CURVE SMOOTH",
"239 160 LINE"
);
}
);
width = 726;
},
{
anchors = (
{
name = bottom;
position = "{356, 0}";
},
{
name = center;
position = "{212, 382}";
},
{
name = top;
position = "{356, 763}";
}
);
layerId = "11907447-A26F-432E-A335-7727E0303767";
paths = (
{
closed = 1;
nodes = (
"288 0 LINE SMOOTH",
"542 0 OFFCURVE",
"681 138 OFFCURVE",
"681 379 CURVE SMOOTH",
"681 624 OFFCURVE",
"543 763 OFFCURVE",
"289 763 CURVE SMOOTH",
"79 763 LINE",
"79 0 LINE"
);
},
{
closed = 1;
nodes = (
"171 680 LINE",
"288 680 LINE SMOOTH",
"465 680 OFFCURVE",
"589 602 OFFCURVE",
"589 379 CURVE SMOOTH",
"589 138 OFFCURVE",
"447 83 OFFCURVE",
"287 83 CURVE SMOOTH",
"171 83 LINE"
);
}
);
width = 732;
},
{
anchors = (
{
name = bottom;
position = "{352, 0}";
},
{
name = center;
position = "{212, 382}";
},
{
name = top;
position = "{352, 763}";
}
);
layerId = "2F4EEC1B-9E89-4E08-AD53-AB625B6E887D";
paths = (
{
closed = 1;
nodes = (
"282 0 LINE SMOOTH",
"534 0 OFFCURVE",
"672 137 OFFCURVE",
"672 378 CURVE SMOOTH",
"672 624 OFFCURVE",
"535 763 OFFCURVE",
"283 763 CURVE SMOOTH",
"79 763 LINE",
"79 0 LINE"
);
},
{
closed = 1;
nodes = (
"148 701 LINE",
"283 701 LINE SMOOTH",
"478 701 OFFCURVE",
"604 607 OFFCURVE",
"604 378 CURVE SMOOTH",
"604 139 OFFCURVE",
"464 62 OFFCURVE",
"282 62 CURVE SMOOTH",
"148 62 LINE"
);
}
);
width = 723;
}
);
leftKerningGroup = B;
note = D;
rightKerningGroup = D;
unicode = 0044;
},
{
color = 1;
glyphname = E;
lastChange = "2020-04-02 09:09:49 +0000";
layers = (
{
anchors = (
{
name = bottom;
position = "{321, 0}";
},
{
name = ogonek;
position = "{581, 0}";
},
{
name = top;
position = "{321, 763}";
},
{
name = topleft;
position = "{-8, 763}";
}
);
guideLines = (
{
angle = 180;
position = "{394, 461}";
},
{
angle = 180;
position = "{394, 302}";
}
);
layerId = "FD6EB2BB-8839-4CDB-86BF-4EEAE3F02079";
paths = (
{
closed = 1;
nodes = (
"581 0 LINE",
"581 160 LINE",
"239 160 LINE",
"239 302 LINE",
"548 302 LINE",
"548 461 LINE",
"239 461 LINE",
"239 603 LINE",
"581 603 LINE",
"581 763 LINE",
"60 763 LINE",
"60 0 LINE"
);
}
);
width = 624;
},
{
anchors = (
{
name = bottom;
position = "{326, 0}";
},
{
name = ogonek;
position = "{572, 0}";
},
{
name = top;
position = "{326, 763}";
},
{
name = topleft;
position = "{-2, 763}";
}
);
layerId = "11907447-A26F-432E-A335-7727E0303767";
paths = (
{
closed = 1;
nodes = (
"572 0 LINE",
"572 83 LINE",
"171 83 LINE",
"171 342 LINE",
"525 342 LINE",
"525 424 LINE",
"171 424 LINE",
"171 680 LINE",
"572 680 LINE",
"572 763 LINE",
"79 763 LINE",
"79 0 LINE"
);
}
);
width = 616;
},
{
anchors = (
{
name = bottom;
position = "{322, 0}";
},
{
name = ogonek;
position = "{565, 0}";
},
{
name = top;
position = "{322, 763}";
},
{
name = topleft;
position = "{-6, 763}";
}
);
layerId = "2F4EEC1B-9E89-4E08-AD53-AB625B6E887D";
paths = (
{
closed = 1;
nodes = (
"565 0 LINE",
"565 62 LINE",
"148 62 LINE",
"148 352 LINE",
"514 352 LINE",
"514 414 LINE",
"148 414 LINE",
"148 701 LINE",
"565 701 LINE",
"565 763 LINE",
"79 763 LINE",
"79 0 LINE"
);
}
);
width = 609;
}
);
leftKerningGroup = B;
note = E;
rightKerningGroup = E;
unicode = 0045;
},
{
color = 1;
glyphname = F;
lastChange = "2020-03-29 12:23:04 +0000";
layers = (
{
background = {
paths = (
{
closed = 1;
nodes = (
"223 0 LINE SMOOTH",
"233 0 OFFCURVE",
"239 6 OFFCURVE",
"239 16 CURVE SMOOTH",
"239 286 LINE SMOOTH",
"239 296 OFFCURVE",
"245 302 OFFCURVE",
"255 302 CURVE SMOOTH",
"532 302 LINE SMOOTH",
"542 302 OFFCURVE",
"548 308 OFFCURVE",
"548 318 CURVE SMOOTH",
"548 445 LINE SMOOTH",
"548 455 OFFCURVE",
"542 461 OFFCURVE",
"532 461 CURVE SMOOTH",
"255 461 LINE SMOOTH",
"245 461 OFFCURVE",
"239 467 OFFCURVE",
"239 477 CURVE SMOOTH",
"239 587 LINE SMOOTH",
"239 597 OFFCURVE",
"245 603 OFFCURVE",
"255 603 CURVE SMOOTH",
"565 603 LINE SMOOTH",
"575 603 OFFCURVE",
"581 609 OFFCURVE",
"581 619 CURVE SMOOTH",
"581 747 LINE SMOOTH",
"581 757 OFFCURVE",
"575 763 OFFCURVE",
"565 763 CURVE SMOOTH",
"76 763 LINE SMOOTH",
"66 763 OFFCURVE",
"60 757 OFFCURVE",
"60 747 CURVE SMOOTH",
"60 16 LINE SMOOTH",
"60 6 OFFCURVE",
"66 0 OFFCURVE",
"76 0 CURVE SMOOTH"
);
}
);
};
layerId = "FD6EB2BB-8839-4CDB-86BF-4EEAE3F02079";
paths = (
{
closed = 1;
nodes = (
"239 0 LINE",
"239 302 LINE",
"548 302 LINE",
"548 461 LINE",
"239 461 LINE",
"239 603 LINE",
"581 603 LINE",
"581 763 LINE",
"60 763 LINE",
"60 0 LINE"
);
}
);
width = 606;
},
{
background = {
paths = (
{
closed = 1;
nodes = (
"155 0 LINE SMOOTH",
"165 0 OFFCURVE",
"171 6 OFFCURVE",
"171 16 CURVE SMOOTH",
"171 326 LINE SMOOTH",
"171 336 OFFCURVE",
"177 342 OFFCURVE",
"187 342 CURVE SMOOTH",
"509 342 LINE SMOOTH",
"519 342 OFFCURVE",
"525 348 OFFCURVE",
"525 358 CURVE SMOOTH",
"525 408 LINE SMOOTH",
"525 418 OFFCURVE",
"519 424 OFFCURVE",
"509 424 CURVE SMOOTH",
"187 424 LINE SMOOTH",
"177 424 OFFCURVE",
"171 430 OFFCURVE",
"171 440 CURVE SMOOTH",
"171 664 LINE SMOOTH",
"171 674 OFFCURVE",
"177 680 OFFCURVE",
"187 680 CURVE SMOOTH",
"556 680 LINE SMOOTH",
"566 680 OFFCURVE",
"572 686 OFFCURVE",
"572 696 CURVE SMOOTH",
"572 747 LINE SMOOTH",
"572 757 OFFCURVE",
"566 763 OFFCURVE",
"556 763 CURVE SMOOTH",
"95 763 LINE SMOOTH",
"85 763 OFFCURVE",
"79 757 OFFCURVE",
"79 747 CURVE SMOOTH",
"79 16 LINE SMOOTH",
"79 6 OFFCURVE",
"85 0 OFFCURVE",
"95 0 CURVE SMOOTH"
);
}
);
};
layerId = "11907447-A26F-432E-A335-7727E0303767";
paths = (
{
closed = 1;
nodes = (
"171 0 LINE",
"171 342 LINE",
"525 342 LINE",
"525 424 LINE",
"171 424 LINE",
"171 680 LINE",
"572 680 LINE",
"572 763 LINE",
"79 763 LINE",
"79 0 LINE"
);
}
);
width = 601;
},
{
anchors = (
{
name = bottom;
position = "{285, 0}";
},
{
name = top;
position = "{285, 763}";
}
);
background = {
anchors = (
{
name = bottom;
position = "{285, 0}";
},
{
name = top;
position = "{285, 763}";
}
);
paths = (
{
closed = 1;
nodes = (
"138 0 LINE SMOOTH",
"144 0 OFFCURVE",
"148 4 OFFCURVE",
"148 10 CURVE SMOOTH",
"148 343 LINE SMOOTH",
"148 349 OFFCURVE",
"152 353 OFFCURVE",
"158 353 CURVE SMOOTH",
"504 353 LINE SMOOTH",
"510 353 OFFCURVE",
"514 357 OFFCURVE",
"514 363 CURVE SMOOTH",
"514 404 LINE SMOOTH",
"514 410 OFFCURVE",
"510 414 OFFCURVE",
"504 414 CURVE SMOOTH",
"158 414 LINE SMOOTH",
"152 414 OFFCURVE",
"148 418 OFFCURVE",
"148 424 CURVE SMOOTH",
"148 691 LINE SMOOTH",
"148 697 OFFCURVE",
"152 701 OFFCURVE",
"158 701 CURVE SMOOTH",
"555 701 LINE SMOOTH",
"561 701 OFFCURVE",
"565 705 OFFCURVE",
"565 711 CURVE SMOOTH",
"565 753 LINE SMOOTH",
"565 759 OFFCURVE",
"561 763 OFFCURVE",
"555 763 CURVE SMOOTH",
"89 763 LINE SMOOTH",
"83 763 OFFCURVE",
"79 759 OFFCURVE",
"79 753 CURVE SMOOTH",
"79 10 LINE SMOOTH",
"79 4 OFFCURVE",
"83 0 OFFCURVE",
"89 0 CURVE SMOOTH"
);
}
);
};
layerId = "2F4EEC1B-9E89-4E08-AD53-AB625B6E887D";
paths = (
{
closed = 1;
nodes = (
"148 0 LINE",
"148 353 LINE",
"514 353 LINE",
"514 414 LINE",
"148 414 LINE",
"148 701 LINE",
"565 701 LINE",
"565 763 LINE",
"79 763 LINE",
"79 0 LINE"
);
}
);
width = 594;
}
);
leftKerningGroup = B;
note = F;
rightKerningGroup = F;
unicode = 0046;
},
{
color = 1;
glyphname = G;
lastChange = "2020-04-14 05:35:08 +0000";
layers = (
{
anchors = (
{
name = bottom;
position = "{414, 0}";
},
{
name = top;
position = "{414, 763}";
}
);
guideLines = (
{
position = "{526, 505}";
}
);
layerId = "FD6EB2BB-8839-4CDB-86BF-4EEAE3F02079";
paths = (
{
closed = 1;
nodes = (
"482 -17 OFFCURVE",
"562 -2 OFFCURVE",
"615 71 CURVE",
"615 0 LINE",
"778 0 LINE",
"778 426 LINE",
"440 426 LINE",
"440 282 LINE",
"599 282 LINE",
"594 184 OFFCURVE",
"533 143 OFFCURVE",
"432 143 CURVE SMOOTH",
"292 143 OFFCURVE",
"220 237 OFFCURVE",
"220 382 CURVE SMOOTH",
"220 526 OFFCURVE",
"292 619 OFFCURVE",
"412 619 CURVE SMOOTH",
"506 619 OFFCURVE",
"561 581 OFFCURVE",
"579 505 CURVE",
"775 505 LINE",
"750 670 OFFCURVE",
"628 779 OFFCURVE",
"412 779 CURVE SMOOTH",
"151 779 OFFCURVE",
"31 595 OFFCURVE",
"31 382 CURVE SMOOTH",
"31 169 OFFCURVE",
"151 -17 OFFCURVE",
"412 -17 CURVE SMOOTH"
);
}
);
width = 827;
},
{
anchors = (
{
name = bottom;
position = "{404, 0}";
},
{
name = top;
position = "{404, 763}";
}
);
layerId = "11907447-A26F-432E-A335-7727E0303767";
paths = (
{
closed = 1;
nodes = (
"506 -10 OFFCURVE",
"606 28 OFFCURVE",
"660 109 CURVE",
"660 0 LINE",
"744 0 LINE",
"744 399 LINE",
"471 399 LINE",
"471 317 LINE",
"654 317 LINE",
"654 165 OFFCURVE",
"558 72 OFFCURVE",
"409 72 CURVE SMOOTH",
"230 72 OFFCURVE",
"142 217 OFFCURVE",
"142 384 CURVE SMOOTH",
"142 541 OFFCURVE",
"221 691 OFFCURVE",
"407 691 CURVE SMOOTH",
"518 691 OFFCURVE",
"594 636 OFFCURVE",
"628 553 CURVE",
"731 553 LINE",
"689 683 OFFCURVE",
"579 773 OFFCURVE",
"409 773 CURVE SMOOTH",
"161 773 OFFCURVE",
"50 582 OFFCURVE",
"50 381 CURVE SMOOTH",
"50 181 OFFCURVE",
"160 -10 OFFCURVE",
"410 -10 CURVE SMOOTH"
);
}
);
width = 807;
},
{
anchors = (
{
name = bottom;
position = "{400, 0}";
},
{
name = top;
position = "{400, 763}";
}
);
layerId = "2F4EEC1B-9E89-4E08-AD53-AB625B6E887D";
paths = (
{
closed = 1;
nodes = (
"510 -10 OFFCURVE",
"620 34 OFFCURVE",
"656 141 CURVE",
"656 0 LINE",
"720 0 LINE",
"720 392 LINE",
"464 392 LINE",
"464 330 LINE",
"651 330 LINE",
"651 166 OFFCURVE",
"557 52 OFFCURVE",
"400 52 CURVE SMOOTH",
"211 52 OFFCURVE",
"119 205 OFFCURVE",
"119 383 CURVE SMOOTH",
"119 554 OFFCURVE",
"204 711 OFFCURVE",
"399 711 CURVE SMOOTH",
"525 711 OFFCURVE",
"605 651 OFFCURVE",
"631 562 CURVE",
"708 562 LINE",
"675 684 OFFCURVE",
"570 773 OFFCURVE",
"400 773 CURVE SMOOTH",
"159 773 OFFCURVE",
"50 584 OFFCURVE",
"50 381 CURVE SMOOTH",
"50 179 OFFCURVE",
"159 -10 OFFCURVE",
"401 -10 CURVE SMOOTH"
);
}
);
width = 783;
}
);
leftKerningGroup = C;
note = G;
rightKerningGroup = G;
unicode = 0047;
},
{
color = 1;
glyphname = H;
lastChange = "2020-04-02 13:57:46 +0000";
layers = (
{
anchors = (
{
name = bottom;
position = "{384, 0}";
},
{
name = center;
position = "{384, 639}";
},
{
name = top;
position = "{384, 763}";
},
{
name = topleft;
position = "{20, 763}";
}
);
background = {
paths = (
{
closed = 1;
nodes = (
"239 0 LINE",
"239 301 LINE",
"529 301 LINE",
"529 0 LINE",
"709 0 LINE",
"709 763 LINE",
"529 763 LINE",
"529 461 LINE",
"239 461 LINE",
"239 763 LINE",
"60 763 LINE",
"60 0 LINE"
);
}
);
};
layerId = "FD6EB2BB-8839-4CDB-86BF-4EEAE3F02079";
paths = (
{
closed = 1;
nodes = (
"239 0 LINE",
"239 301 LINE",
"529 301 LINE",
"529 0 LINE",
"708 0 LINE",
"708 763 LINE",
"529 763 LINE",
"529 461 LINE",
"239 461 LINE",
"239 763 LINE",
"60 763 LINE",
"60 0 LINE"
);
}
);
width = 770;
},
{
anchors = (
{
name = bottom;
position = "{363, 0}";
},
{
name = center;
position = "{363, 616}";
},
{
name = top;
position = "{363, 763}";
},
{
name = topleft;
position = "{20, 763}";
}
);
background = {
paths = (
{
closed = 1;
nodes = (
"171 0 LINE",
"171 343 LINE",
"553 343 LINE",
"553 0 LINE",
"645 0 LINE",
"645 763 LINE",
"553 763 LINE",
"553 425 LINE",
"171 425 LINE",
"171 763 LINE",
"79 763 LINE",
"79 0 LINE"
);
}
);
};
layerId = "11907447-A26F-432E-A335-7727E0303767";
paths = (
{
closed = 1;
nodes = (
"171 0 LINE",
"171 343 LINE",
"553 343 LINE",
"553 0 LINE",
"645 0 LINE",
"645 763 LINE",
"553 763 LINE",
"553 425 LINE",
"171 425 LINE",
"171 763 LINE",
"79 763 LINE",
"79 0 LINE"
);
}
);
width = 725;
},
{
anchors = (
{
name = bottom;
position = "{351, 0}";
},
{
name = center;
position = "{351, 609}";
},
{
name = top;
position = "{351, 763}";
},
{
name = topleft;
position = "{-6, 763}";
}
);
background = {
anchors = (
{
name = bottom;
position = "{351, 0}";
},
{
name = center;
position = "{351, 382}";
},
{
name = top;
position = "{351, 763}";
},
{
name = topleft;
position = "{-6, 763}";
}
);
paths = (
{
closed = 1;
nodes = (
"148 0 LINE",
"148 354 LINE",
"554 354 LINE",
"554 0 LINE",
"623 0 LINE",
"623 763 LINE",
"554 763 LINE",
"554 416 LINE",
"148 416 LINE",
"148 763 LINE",
"79 763 LINE",
"79 0 LINE"
);
}
);
};
layerId = "2F4EEC1B-9E89-4E08-AD53-AB625B6E887D";
paths = (
{
closed = 1;
nodes = (
"148 0 LINE",
"148 354 LINE",
"554 354 LINE",
"554 0 LINE",
"623 0 LINE",
"623 763 LINE",
"554 763 LINE",
"554 416 LINE",
"148 416 LINE",
"148 763 LINE",
"79 763 LINE",
"79 0 LINE"
);
}
);
width = 703;
}
);
leftKerningGroup = B;
note = H;
rightKerningGroup = H;
unicode = 0048;
},
{
color = 1;
glyphname = I;
lastChange = "2020-03-29 12:31:31 +0000";
layers = (
{
anchors = (
{
name = bottom;
position = "{150, 0}";
},
{
name = ogonek;
position = "{239, 0}";
},
{
name = top;
position = "{150, 763}";
},
{
name = topleft;
position = "{-8, 763}";
}
);
background = {
anchors = (
{
name = bottom;
position = "{150, 0}";
},
{
name = ogonek;
position = "{223, 0}";
},
{
name = top;
position = "{150, 763}";
},
{
name = topleft;
position = "{-8, 763}";
}
);
paths = (
{
closed = 1;
nodes = (
"223 0 LINE SMOOTH",
"233 0 OFFCURVE",
"239 6 OFFCURVE",
"239 16 CURVE SMOOTH",
"239 747 LINE SMOOTH",
"239 757 OFFCURVE",
"233 763 OFFCURVE",
"223 763 CURVE SMOOTH",
"76 763 LINE SMOOTH",
"66 763 OFFCURVE",
"60 757 OFFCURVE",
"60 747 CURVE SMOOTH",
"60 16 LINE SMOOTH",
"60 6 OFFCURVE",
"66 0 OFFCURVE",
"76 0 CURVE SMOOTH"
);
}
);
};
layerId = "FD6EB2BB-8839-4CDB-86BF-4EEAE3F02079";
paths = (
{
closed = 1;
nodes = (
"239 0 LINE",
"239 763 LINE",
"60 763 LINE",
"60 0 LINE"
);
}
);
width = 300;
},
{
anchors = (
{
name = bottom;
position = "{125, 0}";
},
{
name = ogonek;
position = "{171, 0}";
},
{
name = top;
position = "{125, 763}";
},
{
name = topleft;
position = "{-2, 763}";
}
);
background = {
anchors = (
{
name = bottom;
position = "{125, 0}";
},
{
name = ogonek;
position = "{155, 0}";
},
{
name = top;
position = "{125, 763}";
},
{
name = topleft;
position = "{-2, 763}";
}
);
paths = (
{
closed = 1;
nodes = (
"155 0 LINE SMOOTH",
"165 0 OFFCURVE",
"171 6 OFFCURVE",
"171 16 CURVE SMOOTH",
"171 747 LINE SMOOTH",
"171 757 OFFCURVE",
"165 763 OFFCURVE",
"155 763 CURVE SMOOTH",
"95 763 LINE SMOOTH",
"85 763 OFFCURVE",
"79 757 OFFCURVE",
"79 747 CURVE SMOOTH",
"79 16 LINE SMOOTH",
"79 6 OFFCURVE",
"85 0 OFFCURVE",
"95 0 CURVE SMOOTH"
);
}
);
};
layerId = "11907447-A26F-432E-A335-7727E0303767";
paths = (
{
closed = 1;
nodes = (
"171 0 LINE",
"171 763 LINE",
"79 763 LINE",
"79 0 LINE"
);
}
);
width = 251;
},
{
anchors = (
{
name = bottom;
position = "{114, 0}";
},
{
name = ogonek;
position = "{148, 0}";
},
{
name = top;
position = "{114, 763}";
},
{
name = topleft;
position = "{-6, 763}";
}
);
background = {
anchors = (
{
name = bottom;
position = "{114, 0}";
},
{
name = ogonek;
position = "{138, 0}";
},
{
name = top;
position = "{114, 763}";
},
{
name = topleft;
position = "{-6, 763}";
}
);
paths = (
{
closed = 1;
nodes = (
"138 0 LINE SMOOTH",
"144 0 OFFCURVE",
"148 4 OFFCURVE",
"148 10 CURVE SMOOTH",
"148 753 LINE SMOOTH",
"148 759 OFFCURVE",
"144 763 OFFCURVE",
"138 763 CURVE SMOOTH",
"89 763 LINE SMOOTH",
"83 763 OFFCURVE",
"79 759 OFFCURVE",
"79 753 CURVE SMOOTH",
"79 10 LINE SMOOTH",
"79 4 OFFCURVE",
"83 0 OFFCURVE",
"89 0 CURVE SMOOTH"
);
}
);
};
layerId = "2F4EEC1B-9E89-4E08-AD53-AB625B6E887D";
paths = (
{
closed = 1;
nodes = (
"148 0 LINE",
"148 763 LINE",
"79 763 LINE",
"79 0 LINE"
);
}
);
width = 228;
}
);
leftKerningGroup = I;
note = I;
rightKerningGroup = I;
unicode = 0049;
},
{
color = 1;
glyphname = J;
lastChange = "2020-03-29 12:31:47 +0000";
layers = (
{
background = {
paths = (
{
closed = 1;
nodes = (
"106 0 LINE SMOOTH",
"276 0 OFFCURVE",
"346 46 OFFCURVE",
"346 218 CURVE SMOOTH",
"346 747 LINE SMOOTH",
"346 757 OFFCURVE",
"340 763 OFFCURVE",
"330 763 CURVE SMOOTH",
"182 763 LINE SMOOTH",
"172 763 OFFCURVE",
"166 757 OFFCURVE",
"166 747 CURVE SMOOTH",
"166 220 LINE SMOOTH",
"166 176 OFFCURVE",
"143 160 OFFCURVE",
"106 160 CURVE SMOOTH",
"24 160 LINE SMOOTH",
"14 160 OFFCURVE",
"8 154 OFFCURVE",
"8 144 CURVE SMOOTH",
"8 16 LINE SMOOTH",
"8 6 OFFCURVE",
"14 0 OFFCURVE",
"24 0 CURVE SMOOTH"
);
}
);
};
layerId = "FD6EB2BB-8839-4CDB-86BF-4EEAE3F02079";
paths = (
{
closed = 1;
nodes = (
"106 0 LINE SMOOTH",
"276 0 OFFCURVE",
"346 46 OFFCURVE",
"346 218 CURVE SMOOTH",
"346 763 LINE",
"166 763 LINE",
"166 220 LINE SMOOTH",
"166 176 OFFCURVE",
"143 160 OFFCURVE",
"106 160 CURVE SMOOTH",
"8 160 LINE",
"8 0 LINE"
);
}
);
width = 402;
},
{
background = {
paths = (
{
closed = 1;
nodes = (
"112 0 LINE SMOOTH",
"268 0 OFFCURVE",
"307 68 OFFCURVE",
"307 184 CURVE SMOOTH",
"307 747 LINE SMOOTH",
"307 757 OFFCURVE",
"301 763 OFFCURVE",
"291 763 CURVE SMOOTH",
"231 763 LINE SMOOTH",
"221 763 OFFCURVE",
"215 757 OFFCURVE",
"215 747 CURVE SMOOTH",
"215 185 LINE SMOOTH",
"215 113 OFFCURVE",
"180 83 OFFCURVE",
"112 83 CURVE SMOOTH",
"32 83 LINE SMOOTH",
"22 83 OFFCURVE",
"16 77 OFFCURVE",
"16 67 CURVE SMOOTH",
"16 16 LINE SMOOTH",
"16 6 OFFCURVE",
"22 0 OFFCURVE",
"32 0 CURVE SMOOTH"
);
}
);
};
layerId = "11907447-A26F-432E-A335-7727E0303767";
paths = (
{
closed = 1;
nodes = (
"112 0 LINE SMOOTH",
"268 0 OFFCURVE",
"307 68 OFFCURVE",
"307 184 CURVE SMOOTH",
"307 763 LINE",
"215 763 LINE",
"215 185 LINE SMOOTH",
"215 113 OFFCURVE",
"180 83 OFFCURVE",
"112 83 CURVE SMOOTH",
"16 83 LINE",
"16 0 LINE"
);
}
);
width = 383;
},
{
anchors = (
{
name = bottom;
position = "{193, 0}";
},
{
name = top;
position = "{193, 763}";
}
);
background = {
anchors = (
{
name = bottom;
position = "{193, 0}";
},
{
name = top;
position = "{193, 763}";
}
);
paths = (
{
closed = 1;
nodes = (
"112 0 LINE SMOOTH",
"257 0 OFFCURVE",
"295 67 OFFCURVE",
"295 175 CURVE SMOOTH",
"295 753 LINE SMOOTH",
"295 759 OFFCURVE",
"291 763 OFFCURVE",
"285 763 CURVE SMOOTH",
"236 763 LINE SMOOTH",
"230 763 OFFCURVE",
"226 759 OFFCURVE",
"226 753 CURVE SMOOTH",
"226 176 LINE SMOOTH",
"226 100 OFFCURVE",
"192 62 OFFCURVE",
"112 62 CURVE SMOOTH",
"26 62 LINE SMOOTH",
"20 62 OFFCURVE",
"16 58 OFFCURVE",
"16 52 CURVE SMOOTH",
"16 10 LINE SMOOTH",
"16 4 OFFCURVE",
"20 0 OFFCURVE",
"26 0 CURVE SMOOTH"
);
}
);
};
layerId = "2F4EEC1B-9E89-4E08-AD53-AB625B6E887D";
paths = (
{
closed = 1;
nodes = (
"112 0 LINE SMOOTH",
"257 0 OFFCURVE",
"295 67 OFFCURVE",
"295 175 CURVE SMOOTH",
"295 763 LINE",
"226 763 LINE",
"226 176 LINE SMOOTH",
"226 100 OFFCURVE",
"192 62 OFFCURVE",
"112 62 CURVE SMOOTH",
"16 62 LINE",
"16 0 LINE"
);
}
);
width = 371;
}
);
leftKerningGroup = J;
note = J;
rightKerningGroup = J;
unicode = 004A;
},
{
color = 1;
glyphname = K;
lastChange = "2020-04-14 07:47:58 +0000";
layers = (
{
anchors = (
{
name = bottom;
position = "{348, 0}";
},
{
name = top;
position = "{348, 763}";
}
);
layerId = "FD6EB2BB-8839-4CDB-86BF-4EEAE3F02079";
paths = (
{
closed = 1;
nodes = (
"239 0 LINE",
"239 342 LINE",
"478 0 LINE",
"695 0 LINE",
"411 393 LINE",
"691 763 LINE",
"476 763 LINE",
"239 432 LINE",
"239 763 LINE",
"60 763 LINE",
"60 0 LINE"
);
}
);
width = 695;
},
{
anchors = (
{
name = bottom;
position = "{316, 0}";
},
{
name = top;
position = "{316, 763}";
}
);
layerId = "11907447-A26F-432E-A335-7727E0303767";
paths = (
{
closed = 1;
nodes = (
"171 0 LINE",
"171 371 LINE",
"502 0 LINE",
"624 0 LINE",
"267 397 LINE",
"606 763 LINE",
"488 763 LINE",
"171 413 LINE",
"171 763 LINE",
"79 763 LINE",
"79 0 LINE"
);
}
);
width = 632;
},
{
anchors = (
{
name = bottom;
position = "{299, 0}";
},
{
name = top;
position = "{299, 763}";
}
);
layerId = "2F4EEC1B-9E89-4E08-AD53-AB625B6E887D";
paths = (
{
closed = 1;
nodes = (
"148 0 LINE",
"148 380 LINE",
"503 0 LINE",
"599 0 LINE",
"225 397 LINE",
"577 763 LINE",
"490 763 LINE",
"148 410 LINE",
"148 763 LINE",
"79 763 LINE",
"79 0 LINE"
);
}
);
width = 612;
}
);
leftKerningGroup = B;
note = K;
rightKerningGroup = K;
unicode = 004B;
},
{
color = 1;
glyphname = L;
lastChange = "2020-03-29 12:32:45 +0000";
layers = (
{
anchors = (
{
name = bottom;
position = "{305, 0}";
},
{
name = center;
position = "{262, 382}";
},
{
name = top;
position = "{150, 763}";
},
{
name = topright;
position = "{313, 567}";
}
);
background = {
anchors = (
{
name = bottom;
position = "{305, 0}";
},
{
name = center;
position = "{262, 382}";
},
{
name = top;
position = "{150, 763}";
},
{
name = topright;
position = "{313, 567}";
}
);
paths = (
{
closed = 1;
nodes = (
"534 0 LINE SMOOTH",
"544 0 OFFCURVE",
"550 6 OFFCURVE",
"550 16 CURVE SMOOTH",
"550 144 LINE SMOOTH",
"550 154 OFFCURVE",
"544 160 OFFCURVE",
"534 160 CURVE SMOOTH",
"255 160 LINE SMOOTH",
"245 160 OFFCURVE",
"239 166 OFFCURVE",
"239 176 CURVE SMOOTH",
"239 747 LINE SMOOTH",
"239 757 OFFCURVE",
"233 763 OFFCURVE",
"223 763 CURVE SMOOTH",
"76 763 LINE SMOOTH",
"66 763 OFFCURVE",
"60 757 OFFCURVE",
"60 747 CURVE SMOOTH",
"60 16 LINE SMOOTH",
"60 6 OFFCURVE",
"66 0 OFFCURVE",
"76 0 CURVE SMOOTH"
);
}
);
};
layerId = "FD6EB2BB-8839-4CDB-86BF-4EEAE3F02079";
paths = (
{
closed = 1;
nodes = (
"550 0 LINE",
"550 160 LINE",
"239 160 LINE",
"239 763 LINE",
"60 763 LINE",
"60 0 LINE"
);
}
);
width = 558;
},
{
anchors = (
{
name = bottom;
position = "{296, 0}";
},
{
name = center;
position = "{256, 382}";
},
{
name = top;
position = "{125, 763}";
},
{
name = topright;
position = "{346, 553}";
}
);
background = {
anchors = (
{
name = bottom;
position = "{296, 0}";
},
{
name = center;
position = "{256, 382}";
},
{
name = top;
position = "{125, 763}";
},
{
name = topright;
position = "{346, 553}";
}
);
paths = (
{
closed = 1;
nodes = (
"497 0 LINE SMOOTH",
"507 0 OFFCURVE",
"513 6 OFFCURVE",
"513 16 CURVE SMOOTH",
"513 67 LINE SMOOTH",
"513 77 OFFCURVE",
"507 83 OFFCURVE",
"497 83 CURVE SMOOTH",
"187 83 LINE SMOOTH",
"177 83 OFFCURVE",
"171 89 OFFCURVE",
"171 99 CURVE SMOOTH",
"171 747 LINE SMOOTH",
"171 757 OFFCURVE",
"165 763 OFFCURVE",
"155 763 CURVE SMOOTH",
"95 763 LINE SMOOTH",
"85 763 OFFCURVE",
"79 757 OFFCURVE",
"79 747 CURVE SMOOTH",
"79 16 LINE SMOOTH",
"79 6 OFFCURVE",
"85 0 OFFCURVE",
"95 0 CURVE SMOOTH"
);
}
);
};
layerId = "11907447-A26F-432E-A335-7727E0303767";
paths = (
{
closed = 1;
nodes = (
"513 0 LINE",
"513 83 LINE",
"171 83 LINE",
"171 763 LINE",
"79 763 LINE",
"79 0 LINE"
);
}
);
width = 528;
},
{
anchors = (
{
name = bottom;
position = "{289, 0}";
},
{
name = center;
position = "{248, 382}";
},
{
name = top;
position = "{114, 763}";
},
{
name = topright;
position = "{331, 549}";
}
);
background = {
anchors = (
{
name = bottom;
position = "{289, 0}";
},
{
name = center;
position = "{248, 382}";
},
{
name = top;
position = "{114, 763}";
},
{
name = topright;
position = "{331, 549}";
}
);
paths = (
{
closed = 1;
nodes = (
"488 0 LINE SMOOTH",
"494 0 OFFCURVE",
"498 4 OFFCURVE",
"498 10 CURVE SMOOTH",
"498 52 LINE SMOOTH",
"498 58 OFFCURVE",
"494 62 OFFCURVE",
"488 62 CURVE SMOOTH",
"158 62 LINE SMOOTH",
"152 62 OFFCURVE",
"148 66 OFFCURVE",
"148 72 CURVE SMOOTH",
"148 753 LINE SMOOTH",
"148 759 OFFCURVE",
"144 763 OFFCURVE",
"138 763 CURVE SMOOTH",
"89 763 LINE SMOOTH",
"83 763 OFFCURVE",
"79 759 OFFCURVE",
"79 753 CURVE SMOOTH",
"79 10 LINE SMOOTH",
"79 4 OFFCURVE",
"83 0 OFFCURVE",
"89 0 CURVE SMOOTH"
);
}
);
};
layerId = "2F4EEC1B-9E89-4E08-AD53-AB625B6E887D";
paths = (
{
closed = 1;
nodes = (
"498 0 LINE",
"498 62 LINE",
"148 62 LINE",
"148 763 LINE",
"79 763 LINE",
"79 0 LINE"
);
}
);
width = 513;
}
);
leftKerningGroup = B;
note = L;
rightKerningGroup = L;
unicode = 004C;
},
{
color = 1;
glyphname = Lslash;
lastChange = "2020-03-29 12:34:06 +0000";
layers = (
{
anchors = (
{
name = bottom;
position = "{323, 0}";
},
{
name = center;
position = "{282, 382}";
},
{
name = top;
position = "{282, 763}";
},
{
name = topright;
position = "{536, 763}";
}
);
background = {
anchors = (
{
name = bottom;
position = "{323, 0}";
},
{
name = center;
position = "{282, 382}";
},
{
name = top;
position = "{282, 763}";
},
{
name = topright;
position = "{536, 763}";
}
);
paths = (
{
closed = 1;
nodes = (
"522 0 LINE SMOOTH",
"528 0 OFFCURVE",
"532 4 OFFCURVE",
"532 10 CURVE SMOOTH",
"532 52 LINE SMOOTH",
"532 58 OFFCURVE",
"528 62 OFFCURVE",
"522 62 CURVE SMOOTH",
"192 62 LINE SMOOTH",
"186 62 OFFCURVE",
"182 66 OFFCURVE",
"182 72 CURVE SMOOTH",
"182 380 LINE SMOOTH",
"182 385 OFFCURVE",
"184 390 OFFCURVE",
"189 392 CURVE SMOOTH",
"392 497 LINE SMOOTH",
"397 499 OFFCURVE",
"399 504 OFFCURVE",
"399 509 CURVE SMOOTH",
"399 550 LINE SMOOTH",
"399 557 OFFCURVE",
"394 561 OFFCURVE",
"387 557 CURVE SMOOTH",
"194 457 LINE SMOOTH",
"187 453 OFFCURVE",
"182 457 OFFCURVE",
"182 464 CURVE SMOOTH",
"182 753 LINE SMOOTH",
"182 759 OFFCURVE",
"178 763 OFFCURVE",
"172 763 CURVE SMOOTH",
"123 763 LINE SMOOTH",
"117 763 OFFCURVE",
"113 759 OFFCURVE",
"113 753 CURVE SMOOTH",
"113 424 LINE SMOOTH",
"113 419 OFFCURVE",
"111 414 OFFCURVE",
"106 412 CURVE SMOOTH",
"47 382 LINE SMOOTH",
"42 380 OFFCURVE",
"40 375 OFFCURVE",
"40 370 CURVE SMOOTH",
"40 328 LINE SMOOTH",
"40 321 OFFCURVE",
"45 317 OFFCURVE",
"52 321 CURVE SMOOTH",
"101 347 LINE SMOOTH",
"108 351 OFFCURVE",
"113 347 OFFCURVE",
"113 340 CURVE SMOOTH",
"113 10 LINE SMOOTH",
"113 4 OFFCURVE",
"117 0 OFFCURVE",
"123 0 CURVE SMOOTH"
);
}
);
};
layerId = "2F4EEC1B-9E89-4E08-AD53-AB625B6E887D";
paths = (
{
closed = 1;
nodes = (
"532 0 LINE",
"532 62 LINE",
"182 62 LINE",
"182 388 LINE",
"399 501 LINE",
"399 563 LINE",
"182 451 LINE",
"182 763 LINE",
"113 763 LINE",
"113 416 LINE",
"40 378 LINE",
"40 315 LINE",
"113 353 LINE",
"113 0 LINE"
);
}
);
width = 560;
},
{
anchors = (
{
name = bottom;
position = "{331, 0}";
},
{
name = center;
position = "{291, 382}";
},
{
name = top;
position = "{291, 763}";
},
{
name = topright;
position = "{549, 763}";
}
);
background = {
anchors = (
{
name = bottom;
position = "{331, 0}";
},
{
name = center;
position = "{291, 382}";
},
{
name = top;
position = "{291, 763}";
},
{
name = topright;
position = "{549, 763}";
}
);
paths = (
{
closed = 1;
nodes = (
"532 0 LINE SMOOTH",
"542 0 OFFCURVE",
"548 6 OFFCURVE",
"548 16 CURVE SMOOTH",
"548 67 LINE SMOOTH",
"548 77 OFFCURVE",
"542 83 OFFCURVE",
"532 83 CURVE SMOOTH",
"222 83 LINE SMOOTH",
"212 83 OFFCURVE",
"206 89 OFFCURVE",
"206 99 CURVE SMOOTH",
"206 376 LINE SMOOTH",
"206 385 OFFCURVE",
"210 391 OFFCURVE",
"218 395 CURVE SMOOTH",
"394 486 LINE SMOOTH",
"402 490 OFFCURVE",
"405 496 OFFCURVE",
"405 505 CURVE SMOOTH",
"405 549 LINE SMOOTH",
"405 561 OFFCURVE",
"397 566 OFFCURVE",
"386 560 CURVE SMOOTH",
"225 477 LINE SMOOTH",
"214 471 OFFCURVE",
"206 476 OFFCURVE",
"206 488 CURVE SMOOTH",
"206 747 LINE SMOOTH",
"206 757 OFFCURVE",
"200 763 OFFCURVE",
"190 763 CURVE SMOOTH",
"130 763 LINE SMOOTH",
"120 763 OFFCURVE",
"114 757 OFFCURVE",
"114 747 CURVE SMOOTH",
"114 433 LINE SMOOTH",
"114 424 OFFCURVE",
"110 418 OFFCURVE",
"102 414 CURVE SMOOTH",
"50 387 LINE SMOOTH",
"42 383 OFFCURVE",
"38 377 OFFCURVE",
"38 368 CURVE SMOOTH",
"38 323 LINE SMOOTH",
"38 311 OFFCURVE",
"46 306 OFFCURVE",
"57 312 CURVE SMOOTH",
"95 331 LINE SMOOTH",
"106 336 OFFCURVE",
"114 332 OFFCURVE",
"114 320 CURVE SMOOTH",
"114 16 LINE SMOOTH",
"114 6 OFFCURVE",
"120 0 OFFCURVE",
"130 0 CURVE SMOOTH"
);
}
);
};
layerId = "11907447-A26F-432E-A335-7727E0303767";
paths = (
{
closed = 1;
nodes = (
"548 0 LINE",
"548 83 LINE",
"206 83 LINE",
"206 389 LINE",
"405 492 LINE",
"405 570 LINE",
"206 467 LINE",
"206 763 LINE",
"114 763 LINE",
"114 420 LINE",
"38 381 LINE",
"38 303 LINE",
"114 340 LINE",
"114 0 LINE"
);
}
);
width = 568;
},
{
anchors = (
{
name = bottom;
position = "{350, 0}";
},
{
name = center;
position = "{307, 382}";
},
{
name = top;
position = "{307, 763}";
},
{
name = topright;
position = "{577, 763}";
}
);
background = {
anchors = (
{
name = bottom;
position = "{350, 0}";
},
{
name = center;
position = "{307, 382}";
},
{
name = top;
position = "{307, 763}";
},
{
name = topright;
position = "{577, 763}";
}
);
paths = (
{
closed = 1;
nodes = (
"579 0 LINE SMOOTH",
"589 0 OFFCURVE",
"595 6 OFFCURVE",
"595 16 CURVE SMOOTH",
"595 144 LINE SMOOTH",
"595 154 OFFCURVE",
"589 160 OFFCURVE",
"579 160 CURVE SMOOTH",
"300 160 LINE SMOOTH",
"290 160 OFFCURVE",
"284 166 OFFCURVE",
"284 176 CURVE SMOOTH",
"284 360 LINE SMOOTH",
"284 369 OFFCURVE",
"288 375 OFFCURVE",
"296 379 CURVE SMOOTH",
"414 440 LINE SMOOTH",
"422 444 OFFCURVE",
"425 450 OFFCURVE",
"425 459 CURVE SMOOTH",
"425 563 LINE SMOOTH",
"425 575 OFFCURVE",
"417 580 OFFCURVE",
"406 574 CURVE SMOOTH",
"303 521 LINE SMOOTH",
"292 515 OFFCURVE",
"284 520 OFFCURVE",
"284 532 CURVE SMOOTH",
"284 747 LINE SMOOTH",
"284 757 OFFCURVE",
"278 763 OFFCURVE",
"268 763 CURVE SMOOTH",
"121 763 LINE SMOOTH",
"111 763 OFFCURVE",
"105 757 OFFCURVE",
"105 747 CURVE SMOOTH",
"105 432 LINE SMOOTH",
"105 423 OFFCURVE",
"101 417 OFFCURVE",
"93 413 CURVE SMOOTH",
"43 387 LINE SMOOTH",
"35 383 OFFCURVE",
"31 377 OFFCURVE",
"31 368 CURVE SMOOTH",
"31 263 LINE SMOOTH",
"31 251 OFFCURVE",
"39 246 OFFCURVE",
"50 252 CURVE SMOOTH",
"86 270 LINE SMOOTH",
"97 275 OFFCURVE",
"105 271 OFFCURVE",
"105 259 CURVE SMOOTH",
"105 16 LINE SMOOTH",
"105 6 OFFCURVE",
"111 0 OFFCURVE",
"121 0 CURVE SMOOTH"
);
}
);
};
layerId = "FD6EB2BB-8839-4CDB-86BF-4EEAE3F02079";
paths = (
{
closed = 1;
nodes = (
"595 0 LINE",
"595 160 LINE",
"284 160 LINE",
"284 373 LINE",
"425 446 LINE",
"425 584 LINE",
"284 511 LINE",
"284 763 LINE",
"105 763 LINE",
"105 419 LINE",
"31 381 LINE",
"31 243 LINE",
"105 279 LINE",
"105 0 LINE"
);
}
);
width = 595;
}
);
unicode = 0141;
},
{
color = 1;
glyphname = M;
lastChange = "2020-04-14 05:38:17 +0000";
layers = (
{
anchors = (
{
name = bottom;
position = "{474, 0}";
},
{
name = top;
position = "{474, 763}";
}
);
layerId = "FD6EB2BB-8839-4CDB-86BF-4EEAE3F02079";
paths = (
{
closed = 1;
nodes = (
"239 0 LINE",
"239 616 LINE",
"387 0 LINE",
"561 0 LINE",
"709 620 LINE",
"709 0 LINE",
"888 0 LINE",
"888 763 LINE",
"599 763 LINE",
"474 214 LINE",
"348 763 LINE",
"60 763 LINE",
"60 0 LINE"
);
}
);
width = 949;
},
{
anchors = (
{
name = bottom;
position = "{450, 0}";
},
{
name = top;
position = "{450, 763}";
}
);
layerId = "11907447-A26F-432E-A335-7727E0303767";
paths = (
{
closed = 1;
nodes = (
"171 0 LINE",
"171 703 LINE",
"404 0 LINE",
"495 0 LINE",
"728 708 LINE",
"728 0 LINE",
"820 0 LINE",
"820 763 LINE",
"654 763 LINE",
"449 114 LINE",
"244 763 LINE",
"79 763 LINE",
"79 0 LINE"
);
}
);
width = 899;
},
{
anchors = (
{
name = bottom;
position = "{438, 0}";
},
{
name = top;
position = "{438, 763}";
}
);
layerId = "2F4EEC1B-9E89-4E08-AD53-AB625B6E887D";
paths = (
{
closed = 1;
nodes = (
"148 0 LINE",
"148 692 LINE",
"395 0 LINE",
"481 0 LINE",
"728 690 LINE",
"728 0 LINE",
"797 0 LINE",
"797 763 LINE",
"686 763 LINE",
"438 70 LINE",
"190 763 LINE",
"79 763 LINE",
"79 0 LINE"
);
}
);
width = 876;
}
);
leftKerningGroup = B;
note = M;
rightKerningGroup = H;
unicode = 004D;
},
{
color = 1;
glyphname = N;
lastChange = "2020-04-14 05:39:11 +0000";
layers = (
{
anchors = (
{
name = bottom;
position = "{387, 0}";
},
{
name = top;
position = "{387, 763}";
}
);
layerId = "FD6EB2BB-8839-4CDB-86BF-4EEAE3F02079";
paths = (
{
closed = 1;
nodes = (
"239 0 LINE",
"239 466 LINE",
"532 0 LINE",
"714 0 LINE",
"714 763 LINE",
"535 763 LINE",
"535 300 LINE",
"242 763 LINE",
"60 763 LINE",
"60 0 LINE"
);
}
);
width = 774;
},
{
anchors = (
{
name = bottom;
position = "{363, 0}";
},
{
name = top;
position = "{363, 763}";
}
);
layerId = "11907447-A26F-432E-A335-7727E0303767";
paths = (
{
closed = 1;
nodes = (
"171 0 LINE",
"171 669 LINE",
"513 0 LINE",
"647 0 LINE",
"647 763 LINE",
"556 763 LINE",
"556 92 LINE",
"213 763 LINE",
"79 763 LINE",
"79 0 LINE"
);
}
);
width = 727;
},
{
anchors = (
{
name = bottom;
position = "{352, 0}";
},
{
name = top;
position = "{352, 763}";
}
);
layerId = "2F4EEC1B-9E89-4E08-AD53-AB625B6E887D";
paths = (
{
closed = 1;
nodes = (
"148 0 LINE",
"148 697 LINE",
"518 0 LINE",
"624 0 LINE",
"624 763 LINE",
"556 763 LINE",
"556 63 LINE",
"185 763 LINE",
"79 763 LINE",
"79 0 LINE"
);
}
);
width = 704;
}
);
leftKerningGroup = B;
note = N;
rightKerningGroup = H;
unicode = 004E;
},
{
color = 1;
glyphname = O;
lastChange = "2020-04-05 10:52:22 +0000";
layers = (
{
anchors = (
{
name = bottom;
position = "{412, 0}";
},
{
name = center;
position = "{412, 382}";
},
{
name = ogonek;
position = "{536, 0}";
},
{
name = top;
position = "{412, 763}";
},
{
name = topleft;
position = "{21, 763}";
},
{
name = topright;
position = "{803, 763}";
}
);
layerId = "FD6EB2BB-8839-4CDB-86BF-4EEAE3F02079";
paths = (
{
closed = 1;
nodes = (
"672 -17 OFFCURVE",
"793 169 OFFCURVE",
"793 382 CURVE SMOOTH",
"793 595 OFFCURVE",
"672 779 OFFCURVE",
"413 779 CURVE SMOOTH",
"152 779 OFFCURVE",
"32 595 OFFCURVE",
"32 382 CURVE SMOOTH",
"32 169 OFFCURVE",
"152 -17 OFFCURVE",
"413 -17 CURVE SMOOTH"
);
},
{
closed = 1;
nodes = (
"293 143 OFFCURVE",
"221 237 OFFCURVE",
"221 382 CURVE SMOOTH",
"221 526 OFFCURVE",
"293 619 OFFCURVE",
"413 619 CURVE SMOOTH",
"533 619 OFFCURVE",
"604 526 OFFCURVE",
"604 382 CURVE SMOOTH",
"604 237 OFFCURVE",
"533 143 OFFCURVE",
"413 143 CURVE SMOOTH"
);
}
);
width = 826;
},
{
anchors = (
{
name = bottom;
position = "{405, 0}";
},
{
name = center;
position = "{405, 382}";
},
{
name = ogonek;
position = "{494, 0}";
},
{
name = top;
position = "{405, 763}";
},
{
name = topleft;
position = "{18, 763}";
},
{
name = topright;
position = "{792, 763}";
}
);
layerId = "11907447-A26F-432E-A335-7727E0303767";
paths = (
{
closed = 1;
nodes = (
"646 -10 OFFCURVE",
"760 174 OFFCURVE",
"760 382 CURVE SMOOTH",
"760 590 OFFCURVE",
"646 773 OFFCURVE",
"404 773 CURVE SMOOTH",
"164 773 OFFCURVE",
"50 590 OFFCURVE",
"50 382 CURVE SMOOTH",
"50 174 OFFCURVE",
"164 -10 OFFCURVE",
"404 -10 CURVE SMOOTH"
);
},
{
closed = 1;
nodes = (
"235 73 OFFCURVE",
"142 203 OFFCURVE",
"142 382 CURVE SMOOTH",
"142 560 OFFCURVE",
"235 690 OFFCURVE",
"404 690 CURVE SMOOTH",
"576 690 OFFCURVE",
"668 560 OFFCURVE",
"668 382 CURVE SMOOTH",
"668 203 OFFCURVE",
"576 73 OFFCURVE",
"404 73 CURVE SMOOTH"
);
}
);
width = 811;
},
{
anchors = (
{
name = bottom;
position = "{398, 0}";
},
{
name = center;
position = "{398, 382}";
},
{
name = ogonek;
position = "{482, 0}";
},
{
name = top;
position = "{398, 763}";
},
{
name = topleft;
position = "{13, 763}";
},
{
name = topright;
position = "{783, 763}";
}
);
layerId = "2F4EEC1B-9E89-4E08-AD53-AB625B6E887D";
paths = (
{
closed = 1;
nodes = (
"632 -10 OFFCURVE",
"744 174 OFFCURVE",
"744 382 CURVE SMOOTH",
"744 590 OFFCURVE",
"632 773 OFFCURVE",
"397 773 CURVE SMOOTH",
"162 773 OFFCURVE",
"50 590 OFFCURVE",
"50 382 CURVE SMOOTH",
"50 174 OFFCURVE",
"162 -10 OFFCURVE",
"397 -10 CURVE SMOOTH"
);
},
{
closed = 1;
nodes = (
"214 52 OFFCURVE",
"119 195 OFFCURVE",
"119 382 CURVE SMOOTH",
"119 568 OFFCURVE",
"214 711 OFFCURVE",
"397 711 CURVE SMOOTH",
"580 711 OFFCURVE",
"675 568 OFFCURVE",
"675 382 CURVE SMOOTH",
"675 195 OFFCURVE",
"580 52 OFFCURVE",
"397 52 CURVE SMOOTH"
);
}
);
width = 794;
}
);
leftKerningGroup = C;
note = O;
rightKerningGroup = D;
unicode = 004F;
},
{
glyphname = OE;
lastChange = "2020-04-14 05:42:50 +0000";
layers = (
{
anchors = (
{
name = bottom;
position = "{603, 0}";
},
{
name = top;
position = "{603, 763}";
}
);
layerId = "2F4EEC1B-9E89-4E08-AD53-AB625B6E887D";
paths = (
{
closed = 1;
nodes = (
"527 -10 OFFCURVE",
"619 46 OFFCURVE",
"676 142 CURVE",
"676 0 LINE",
"1162 0 LINE",
"1162 62 LINE",
"745 62 LINE",
"745 353 LINE",
"1111 353 LINE",
"1111 414 LINE",
"745 414 LINE",
"745 701 LINE",
"1162 701 LINE",
"1162 763 LINE",
"676 763 LINE",
"676 622 LINE",
"619 717 OFFCURVE",
"527 773 OFFCURVE",
"397 773 CURVE SMOOTH",
"162 773 OFFCURVE",
"50 590 OFFCURVE",
"50 382 CURVE SMOOTH",
"50 174 OFFCURVE",
"162 -10 OFFCURVE",
"397 -10 CURVE SMOOTH"
);
},
{
closed = 1;
nodes = (
"214 52 OFFCURVE",
"119 195 OFFCURVE",
"119 382 CURVE SMOOTH",
"119 568 OFFCURVE",
"214 711 OFFCURVE",
"397 711 CURVE SMOOTH",
"580 711 OFFCURVE",
"675 568 OFFCURVE",
"675 382 CURVE SMOOTH",
"675 195 OFFCURVE",
"580 52 OFFCURVE",
"397 52 CURVE SMOOTH"
);
}
);
width = 1206;
},
{
anchors = (
{
name = bottom;
position = "{602, 0}";
},
{
name = top;
position = "{602, 763}";
}
);
layerId = "11907447-A26F-432E-A335-7727E0303767";
paths = (
{
closed = 1;
nodes = (
"508 -10 OFFCURVE",
"592 29 OFFCURVE",
"667 117 CURVE",
"667 0 LINE",
"1160 0 LINE",
"1160 83 LINE",
"759 83 LINE",
"759 342 LINE",
"1113 342 LINE",
"1113 424 LINE",
"759 424 LINE",
"759 680 LINE",
"1160 680 LINE",
"1160 763 LINE",
"667 763 LINE",
"667 646 LINE",
"596 734 OFFCURVE",
"513 773 OFFCURVE",
"404 773 CURVE SMOOTH",
"164 773 OFFCURVE",
"50 590 OFFCURVE",
"50 382 CURVE SMOOTH",
"50 174 OFFCURVE",
"164 -10 OFFCURVE",
"404 -10 CURVE SMOOTH"
);
},
{
closed = 1;
nodes = (
"235 73 OFFCURVE",
"142 203 OFFCURVE",
"142 382 CURVE SMOOTH",
"142 560 OFFCURVE",
"235 690 OFFCURVE",
"404 690 CURVE SMOOTH",
"576 690 OFFCURVE",
"668 560 OFFCURVE",
"668 382 CURVE SMOOTH",
"668 203 OFFCURVE",
"576 73 OFFCURVE",
"404 73 CURVE SMOOTH"
);
}
);
width = 1204;
},
{
anchors = (
{
name = bottom;
position = "{586, 0}";
},
{
name = top;
position = "{586, 763}";
}
);
layerId = "FD6EB2BB-8839-4CDB-86BF-4EEAE3F02079";
paths = (
{
closed = 1;
nodes = (
"487 -17 OFFCURVE",
"564 13 OFFCURVE",
"608 66 CURVE",
"608 0 LINE",
"1129 0 LINE",
"1129 160 LINE",
"787 160 LINE",
"787 302 LINE",
"1096 302 LINE",
"1096 461 LINE",
"787 461 LINE",
"787 603 LINE",
"1129 603 LINE",
"1129 763 LINE",
"608 763 LINE",
"608 695 LINE",
"566 742 OFFCURVE",
"488 779 OFFCURVE",
"396 779 CURVE SMOOTH",
"152 779 OFFCURVE",
"32 595 OFFCURVE",
"32 382 CURVE SMOOTH",
"32 169 OFFCURVE",
"152 -17 OFFCURVE",
"396 -17 CURVE SMOOTH"
);
},
{
closed = 1;
nodes = (
"293 143 OFFCURVE",
"221 237 OFFCURVE",
"221 382 CURVE SMOOTH",
"221 526 OFFCURVE",
"293 619 OFFCURVE",
"413 619 CURVE SMOOTH",
"533 619 OFFCURVE",
"604 526 OFFCURVE",
"604 382 CURVE SMOOTH",
"604 237 OFFCURVE",
"533 143 OFFCURVE",
"413 143 CURVE SMOOTH"
);
}
);
width = 1172;
}
);
leftKerningGroup = C;
leftMetricsKey = O;
rightKerningGroup = E;
rightMetricsKey = E;
unicode = 0152;
},
{
color = 1;
glyphname = P;
lastChange = "2020-04-02 13:56:59 +0000";
layers = (
{
anchors = (
{
name = bottom;
position = "{324, 0}";
},
{
name = top;
position = "{324, 763}";
}
);
background = {
anchors = (
{
name = bottom;
position = "{324, 0}";
},
{
name = top;
position = "{324, 763}";
}
);
paths = (
{
closed = 1;
nodes = (
"223 0 LINE SMOOTH",
"233 0 OFFCURVE",
"239 6 OFFCURVE",
"239 16 CURVE SMOOTH",
"239 278 LINE SMOOTH",
"239 288 OFFCURVE",
"245 294 OFFCURVE",
"255 294 CURVE SMOOTH",
"420 294 LINE SMOOTH",
"560 294 OFFCURVE",
"661 382 OFFCURVE",
"661 533 CURVE SMOOTH",
"661 699 OFFCURVE",
"560 763 OFFCURVE",
"420 763 CURVE SMOOTH",
"76 763 LINE SMOOTH",
"66 763 OFFCURVE",
"60 757 OFFCURVE",
"60 747 CURVE SMOOTH",
"60 16 LINE SMOOTH",
"60 6 OFFCURVE",
"66 0 OFFCURVE",
"76 0 CURVE SMOOTH"
);
},
{
closed = 1;
nodes = (
"245 449 OFFCURVE",
"239 455 OFFCURVE",
"239 465 CURVE SMOOTH",
"239 587 LINE SMOOTH",
"239 597 OFFCURVE",
"245 603 OFFCURVE",
"255 603 CURVE SMOOTH",
"395 603 LINE SMOOTH",
"453 603 OFFCURVE",
"484 577 OFFCURVE",
"484 527 CURVE SMOOTH",
"484 475 OFFCURVE",
"453 449 OFFCURVE",
"395 449 CURVE SMOOTH",
"255 449 LINE SMOOTH"
);
}
);
};
layerId = "FD6EB2BB-8839-4CDB-86BF-4EEAE3F02079";
paths = (
{
closed = 1;
nodes = (
"239 0 LINE",
"239 294 LINE",
"420 294 LINE SMOOTH",
"560 294 OFFCURVE",
"661 382 OFFCURVE",
"661 533 CURVE SMOOTH",
"661 699 OFFCURVE",
"560 763 OFFCURVE",
"420 763 CURVE SMOOTH",
"60 763 LINE",
"60 0 LINE"
);
},
{
closed = 1;
nodes = (
"239 603 LINE",
"395 603 LINE SMOOTH",
"453 603 OFFCURVE",
"484 577 OFFCURVE",
"484 527 CURVE SMOOTH",
"484 475 OFFCURVE",
"453 449 OFFCURVE",
"395 449 CURVE SMOOTH",
"239 449 LINE"
);
}
);
width = 683;
},
{
anchors = (
{
name = bottom;
position = "{310, 0}";
},
{
name = top;
position = "{310, 763}";
}
);
background = {
anchors = (
{
name = bottom;
position = "{310, 0}";
},
{
name = top;
position = "{310, 763}";
}
);
paths = (
{
closed = 1;
nodes = (
"155 0 LINE SMOOTH",
"165 0 OFFCURVE",
"171 6 OFFCURVE",
"171 16 CURVE SMOOTH",
"171 308 LINE SMOOTH",
"171 318 OFFCURVE",
"177 324 OFFCURVE",
"187 324 CURVE SMOOTH",
"363 324 LINE SMOOTH",
"510 324 OFFCURVE",
"605 405 OFFCURVE",
"605 545 CURVE SMOOTH",
"605 692 OFFCURVE",
"509 763 OFFCURVE",
"363 763 CURVE SMOOTH",
"95 763 LINE SMOOTH",
"85 763 OFFCURVE",
"79 757 OFFCURVE",
"79 747 CURVE SMOOTH",
"79 16 LINE SMOOTH",
"79 6 OFFCURVE",
"85 0 OFFCURVE",
"95 0 CURVE SMOOTH"
);
},
{
closed = 1;
nodes = (
"177 404 OFFCURVE",
"171 410 OFFCURVE",
"171 420 CURVE SMOOTH",
"171 664 LINE SMOOTH",
"171 674 OFFCURVE",
"177 680 OFFCURVE",
"187 680 CURVE SMOOTH",
"351 680 LINE SMOOTH",
"454 680 OFFCURVE",
"514 630 OFFCURVE",
"514 542 CURVE SMOOTH",
"514 453 OFFCURVE",
"456 404 OFFCURVE",
"351 404 CURVE SMOOTH",
"187 404 LINE SMOOTH"
);
}
);
};
layerId = "11907447-A26F-432E-A335-7727E0303767";
paths = (
{
closed = 1;
nodes = (
"171 0 LINE",
"171 322 LINE",
"363 322 LINE SMOOTH",
"510 322 OFFCURVE",
"605 405 OFFCURVE",
"605 545 CURVE SMOOTH",
"605 692 OFFCURVE",
"509 763 OFFCURVE",
"363 763 CURVE SMOOTH",
"79 763 LINE",
"79 0 LINE"
);
},
{
closed = 1;
nodes = (
"171 680 LINE",
"351 680 LINE SMOOTH",
"454 680 OFFCURVE",
"514 630 OFFCURVE",
"514 542 CURVE SMOOTH",
"514 453 OFFCURVE",
"456 404 OFFCURVE",
"351 404 CURVE SMOOTH",
"171 404 LINE"
);
}
);
width = 640;
},
{
anchors = (
{
name = bottom;
position = "{300, 0}";
},
{
name = top;
position = "{300, 763}";
}
);
background = {
anchors = (
{
name = bottom;
position = "{300, 0}";
},
{
name = top;
position = "{300, 763}";
}
);
paths = (
{
closed = 1;
nodes = (
"138 0 LINE SMOOTH",
"144 0 OFFCURVE",
"148 4 OFFCURVE",
"148 10 CURVE SMOOTH",
"148 322 LINE SMOOTH",
"148 328 OFFCURVE",
"152 332 OFFCURVE",
"158 332 CURVE SMOOTH",
"343 332 LINE SMOOTH",
"492 332 OFFCURVE",
"585 411 OFFCURVE",
"585 548 CURVE SMOOTH",
"585 690 OFFCURVE",
"490 763 OFFCURVE",
"343 763 CURVE SMOOTH",
"89 763 LINE SMOOTH",
"83 763 OFFCURVE",
"79 759 OFFCURVE",
"79 753 CURVE SMOOTH",
"79 10 LINE SMOOTH",
"79 4 OFFCURVE",
"83 0 OFFCURVE",
"89 0 CURVE SMOOTH"
);
},
{
closed = 1;
nodes = (
"152 392 OFFCURVE",
"148 396 OFFCURVE",
"148 402 CURVE SMOOTH",
"148 691 LINE SMOOTH",
"148 697 OFFCURVE",
"152 701 OFFCURVE",
"158 701 CURVE SMOOTH",
"334 701 LINE SMOOTH",
"450 701 OFFCURVE",
"517 644 OFFCURVE",
"517 546 CURVE SMOOTH",
"517 447 OFFCURVE",
"452 392 OFFCURVE",
"334 392 CURVE SMOOTH",
"158 392 LINE SMOOTH"
);
}
);
};
layerId = "2F4EEC1B-9E89-4E08-AD53-AB625B6E887D";
paths = (
{
closed = 1;
nodes = (
"148 0 LINE",
"148 332 LINE",
"343 332 LINE SMOOTH",
"492 332 OFFCURVE",
"585 411 OFFCURVE",
"585 548 CURVE SMOOTH",
"585 690 OFFCURVE",
"490 763 OFFCURVE",
"343 763 CURVE SMOOTH",
"79 763 LINE",
"79 0 LINE"
);
},
{
closed = 1;
nodes = (
"148 701 LINE",
"334 701 LINE SMOOTH",
"450 701 OFFCURVE",
"517 644 OFFCURVE",
"517 546 CURVE SMOOTH",
"517 447 OFFCURVE",
"452 392 OFFCURVE",
"334 392 CURVE SMOOTH",
"148 392 LINE"
);
}
);
width = 620;
}
);
leftKerningGroup = B;
note = P;
rightKerningGroup = P;
unicode = 0050;
},
{
color = 1;
glyphname = Thorn;
lastChange = "2020-03-29 12:48:39 +0000";
layers = (
{
background = {
paths = (
{
closed = 1;
nodes = (
"222 0 LINE SMOOTH",
"232 0 OFFCURVE",
"238 6 OFFCURVE",
"238 16 CURVE SMOOTH",
"238 188 LINE SMOOTH",
"238 198 OFFCURVE",
"244 204 OFFCURVE",
"254 204 CURVE SMOOTH",
"419 204 LINE SMOOTH",
"559 204 OFFCURVE",
"660 292 OFFCURVE",
"660 438 CURVE SMOOTH",
"660 598 OFFCURVE",
"559 663 OFFCURVE",
"419 663 CURVE SMOOTH",
"254 663 LINE SMOOTH",
"244 663 OFFCURVE",
"238 669 OFFCURVE",
"238 679 CURVE SMOOTH",
"238 747 LINE SMOOTH",
"238 757 OFFCURVE",
"232 763 OFFCURVE",
"222 763 CURVE SMOOTH",
"76 763 LINE SMOOTH",
"66 763 OFFCURVE",
"60 757 OFFCURVE",
"60 747 CURVE SMOOTH",
"60 16 LINE SMOOTH",
"60 6 OFFCURVE",
"66 0 OFFCURVE",
"76 0 CURVE SMOOTH"
);
},
{
closed = 1;
nodes = (
"244 360 OFFCURVE",
"238 366 OFFCURVE",
"238 376 CURVE SMOOTH",
"238 486 LINE SMOOTH",
"238 496 OFFCURVE",
"244 502 OFFCURVE",
"254 502 CURVE SMOOTH",
"399 502 LINE SMOOTH",
"451 502 OFFCURVE",
"483 479 OFFCURVE",
"483 433 CURVE SMOOTH",
"483 383 OFFCURVE",
"451 360 OFFCURVE",
"399 360 CURVE SMOOTH",
"254 360 LINE SMOOTH"
);
}
);
};
layerId = "FD6EB2BB-8839-4CDB-86BF-4EEAE3F02079";
paths = (
{
closed = 1;
nodes = (
"238 0 LINE",
"238 204 LINE",
"419 204 LINE SMOOTH",
"559 204 OFFCURVE",
"660 292 OFFCURVE",
"660 438 CURVE SMOOTH",
"660 598 OFFCURVE",
"559 663 OFFCURVE",
"419 663 CURVE SMOOTH",
"238 663 LINE",
"238 763 LINE",
"60 763 LINE",
"60 0 LINE"
);
},
{
closed = 1;
nodes = (
"238 502 LINE",
"399 502 LINE SMOOTH",
"451 502 OFFCURVE",
"483 479 OFFCURVE",
"483 433 CURVE SMOOTH",
"483 383 OFFCURVE",
"451 360 OFFCURVE",
"399 360 CURVE SMOOTH",
"238 360 LINE"
);
}
);
width = 672;
},
{
background = {
paths = (
{
closed = 1;
nodes = (
"154 0 LINE SMOOTH",
"164 0 OFFCURVE",
"170 6 OFFCURVE",
"170 16 CURVE SMOOTH",
"170 205 LINE SMOOTH",
"170 215 OFFCURVE",
"176 221 OFFCURVE",
"186 221 CURVE SMOOTH",
"362 221 LINE SMOOTH",
"510 221 OFFCURVE",
"605 302 OFFCURVE",
"605 440 CURVE SMOOTH",
"605 584 OFFCURVE",
"508 655 OFFCURVE",
"362 655 CURVE SMOOTH",
"186 655 LINE SMOOTH",
"176 655 OFFCURVE",
"170 661 OFFCURVE",
"170 671 CURVE SMOOTH",
"170 747 LINE SMOOTH",
"170 757 OFFCURVE",
"164 763 OFFCURVE",
"154 763 CURVE SMOOTH",
"95 763 LINE SMOOTH",
"85 763 OFFCURVE",
"79 757 OFFCURVE",
"79 747 CURVE SMOOTH",
"79 16 LINE SMOOTH",
"79 6 OFFCURVE",
"85 0 OFFCURVE",
"95 0 CURVE SMOOTH"
);
},
{
closed = 1;
nodes = (
"176 302 OFFCURVE",
"170 308 OFFCURVE",
"170 318 CURVE SMOOTH",
"170 556 LINE SMOOTH",
"170 566 OFFCURVE",
"176 572 OFFCURVE",
"186 572 CURVE SMOOTH",
"352 572 LINE SMOOTH",
"454 572 OFFCURVE",
"514 523 OFFCURVE",
"514 437 CURVE SMOOTH",
"514 349 OFFCURVE",
"455 302 OFFCURVE",
"352 302 CURVE SMOOTH",
"186 302 LINE SMOOTH"
);
}
);
};
layerId = "11907447-A26F-432E-A335-7727E0303767";
paths = (
{
closed = 1;
nodes = (
"170 0 LINE",
"170 221 LINE",
"362 221 LINE SMOOTH",
"510 221 OFFCURVE",
"605 302 OFFCURVE",
"605 440 CURVE SMOOTH",
"605 584 OFFCURVE",
"508 655 OFFCURVE",
"362 655 CURVE SMOOTH",
"170 655 LINE",
"170 763 LINE",
"79 763 LINE",
"79 0 LINE"
);
},
{
closed = 1;
nodes = (
"170 572 LINE",
"352 572 LINE SMOOTH",
"454 572 OFFCURVE",
"514 523 OFFCURVE",
"514 437 CURVE SMOOTH",
"514 349 OFFCURVE",
"455 302 OFFCURVE",
"352 302 CURVE SMOOTH",
"170 302 LINE"
);
}
);
width = 641;
},
{
anchors = (
{
name = bottom;
position = "{300, 0}";
},
{
name = top;
position = "{300, 763}";
}
);
background = {
anchors = (
{
name = bottom;
position = "{300, 0}";
},
{
name = top;
position = "{300, 763}";
}
);
paths = (
{
closed = 1;
nodes = (
"137 0 LINE SMOOTH",
"143 0 OFFCURVE",
"147 4 OFFCURVE",
"147 10 CURVE SMOOTH",
"147 216 LINE SMOOTH",
"147 222 OFFCURVE",
"151 226 OFFCURVE",
"157 226 CURVE SMOOTH",
"342 226 LINE SMOOTH",
"492 226 OFFCURVE",
"585 305 OFFCURVE",
"585 440 CURVE SMOOTH",
"585 580 OFFCURVE",
"490 653 OFFCURVE",
"342 653 CURVE SMOOTH",
"157 653 LINE SMOOTH",
"151 653 OFFCURVE",
"147 657 OFFCURVE",
"147 663 CURVE SMOOTH",
"147 753 LINE SMOOTH",
"147 759 OFFCURVE",
"143 763 OFFCURVE",
"137 763 CURVE SMOOTH",
"89 763 LINE SMOOTH",
"83 763 OFFCURVE",
"79 759 OFFCURVE",
"79 753 CURVE SMOOTH",
"79 10 LINE SMOOTH",
"79 4 OFFCURVE",
"83 0 OFFCURVE",
"89 0 CURVE SMOOTH"
);
},
{
closed = 1;
nodes = (
"151 287 OFFCURVE",
"147 291 OFFCURVE",
"147 297 CURVE SMOOTH",
"147 581 LINE SMOOTH",
"147 587 OFFCURVE",
"151 591 OFFCURVE",
"157 591 CURVE SMOOTH",
"335 591 LINE SMOOTH",
"450 591 OFFCURVE",
"517 535 OFFCURVE",
"517 438 CURVE SMOOTH",
"517 340 OFFCURVE",
"451 287 OFFCURVE",
"335 287 CURVE SMOOTH",
"157 287 LINE SMOOTH"
);
}
);
};
layerId = "2F4EEC1B-9E89-4E08-AD53-AB625B6E887D";
paths = (
{
closed = 1;
nodes = (
"147 0 LINE",
"147 226 LINE",
"342 226 LINE SMOOTH",
"492 226 OFFCURVE",
"585 305 OFFCURVE",
"585 440 CURVE SMOOTH",
"585 580 OFFCURVE",
"490 653 OFFCURVE",
"342 653 CURVE SMOOTH",
"147 653 LINE",
"147 763 LINE",
"79 763 LINE",
"79 0 LINE"
);
},
{
closed = 1;
nodes = (
"147 591 LINE",
"335 591 LINE SMOOTH",
"450 591 OFFCURVE",
"517 535 OFFCURVE",
"517 438 CURVE SMOOTH",
"517 340 OFFCURVE",
"451 287 OFFCURVE",
"335 287 CURVE SMOOTH",
"147 287 LINE"
);
}
);
width = 628;
}
);
leftKerningGroup = B;
leftMetricsKey = P;
note = Thorn;
rightKerningGroup = Thorn;
unicode = 00DE;
},
{
color = 1;
glyphname = Q;
lastChange = "2020-04-14 05:45:18 +0000";
layers = (
{
anchors = (
{
name = bottom;
position = "{414, 0}";
},
{
name = top;
position = "{414, 763}";
}
);
layerId = "FD6EB2BB-8839-4CDB-86BF-4EEAE3F02079";
paths = (
{
closed = 1;
nodes = (
"672 -17 OFFCURVE",
"793 169 OFFCURVE",
"793 382 CURVE SMOOTH",
"793 595 OFFCURVE",
"672 779 OFFCURVE",
"413 779 CURVE SMOOTH",
"152 779 OFFCURVE",
"32 595 OFFCURVE",
"32 382 CURVE SMOOTH",
"32 169 OFFCURVE",
"152 -17 OFFCURVE",
"413 -17 CURVE SMOOTH"
);
},
{
closed = 1;
nodes = (
"790 -87 LINE",
"673 97 LINE",
"517 30 LINE",
"588 -87 LINE"
);
},
{
closed = 1;
nodes = (
"293 143 OFFCURVE",
"221 237 OFFCURVE",
"221 382 CURVE SMOOTH",
"221 526 OFFCURVE",
"293 619 OFFCURVE",
"413 619 CURVE SMOOTH",
"533 619 OFFCURVE",
"604 526 OFFCURVE",
"604 382 CURVE SMOOTH",
"604 237 OFFCURVE",
"533 143 OFFCURVE",
"413 143 CURVE SMOOTH"
);
}
);
width = 828;
},
{
anchors = (
{
name = bottom;
position = "{406, 0}";
},
{
name = top;
position = "{406, 763}";
}
);
background = {
paths = (
{
closed = 1;
nodes = (
"716 132 OFFCURVE",
"760 252 OFFCURVE",
"760 382 CURVE SMOOTH",
"760 590 OFFCURVE",
"646 773 OFFCURVE",
"404 773 CURVE SMOOTH",
"164 773 OFFCURVE",
"50 590 OFFCURVE",
"50 382 CURVE SMOOTH",
"50 174 OFFCURVE",
"164 -10 OFFCURVE",
"404 -10 CURVE SMOOTH",
"437 -10 OFFCURVE",
"465 -7 OFFCURVE",
"490 -1 CURVE SMOOTH",
"519 6 OFFCURVE",
"545 21 OFFCURVE",
"567 43 CURVE",
"624 60 LINE"
);
},
{
closed = 1;
nodes = (
"142 203 OFFCURVE",
"142 382 CURVE SMOOTH",
"142 560 OFFCURVE",
"235 691 OFFCURVE",
"404 691 CURVE SMOOTH",
"576 691 OFFCURVE",
"668 560 OFFCURVE",
"668 382 CURVE SMOOTH",
"668 203 OFFCURVE",
"576 72 OFFCURVE",
"404 72 CURVE SMOOTH",
"235 72 OFFCURVE"
);
}
);
};
layerId = "11907447-A26F-432E-A335-7727E0303767";
paths = (
{
closed = 1;
nodes = (
"646 -10 OFFCURVE",
"760 174 OFFCURVE",
"760 382 CURVE SMOOTH",
"760 590 OFFCURVE",
"646 773 OFFCURVE",
"404 773 CURVE SMOOTH",
"164 773 OFFCURVE",
"50 590 OFFCURVE",
"50 382 CURVE SMOOTH",
"50 174 OFFCURVE",
"164 -10 OFFCURVE",
"404 -10 CURVE SMOOTH"
);
},
{
closed = 1;
nodes = (
"736 -87 LINE",
"627 83 LINE",
"546 45 LINE",
"635 -87 LINE"
);
},
{
closed = 1;
nodes = (
"235 73 OFFCURVE",
"142 203 OFFCURVE",
"142 382 CURVE SMOOTH",
"142 560 OFFCURVE",
"235 690 OFFCURVE",
"404 690 CURVE SMOOTH",
"576 690 OFFCURVE",
"668 560 OFFCURVE",
"668 382 CURVE SMOOTH",
"668 203 OFFCURVE",
"576 73 OFFCURVE",
"404 73 CURVE SMOOTH"
);
}
);
width = 812;
},
{
anchors = (
{
name = bottom;
position = "{397, 0}";
},
{
name = top;
position = "{397, 763}";
}
);
layerId = "2F4EEC1B-9E89-4E08-AD53-AB625B6E887D";
paths = (
{
closed = 1;
nodes = (
"632 -10 OFFCURVE",
"744 174 OFFCURVE",
"744 382 CURVE SMOOTH",
"744 590 OFFCURVE",
"632 773 OFFCURVE",
"397 773 CURVE SMOOTH",
"162 773 OFFCURVE",
"50 590 OFFCURVE",
"50 382 CURVE SMOOTH",
"50 174 OFFCURVE",
"162 -10 OFFCURVE",
"397 -10 CURVE SMOOTH"
);
},
{
closed = 1;
nodes = (
"716 -87 LINE",
"610 80 LINE",
"547 53 LINE",
"637 -87 LINE"
);
},
{
closed = 1;
nodes = (
"214 52 OFFCURVE",
"119 195 OFFCURVE",
"119 382 CURVE SMOOTH",
"119 568 OFFCURVE",
"214 711 OFFCURVE",
"397 711 CURVE SMOOTH",
"580 711 OFFCURVE",
"675 568 OFFCURVE",
"675 382 CURVE SMOOTH",
"675 195 OFFCURVE",
"580 52 OFFCURVE",
"397 52 CURVE SMOOTH"
);
}
);
width = 794;
}
);
leftKerningGroup = C;
note = Q;
rightKerningGroup = Q;
unicode = 0051;
},
{
color = 1;
glyphname = R;
lastChange = "2020-04-14 07:47:46 +0000";
layers = (
{
anchors = (
{
name = bottom;
position = "{367, 0}";
},
{
name = top;
position = "{342, 763}";
}
);
layerId = "FD6EB2BB-8839-4CDB-86BF-4EEAE3F02079";
paths = (
{
closed = 1;
nodes = (
"239 0 LINE",
"239 294 LINE",
"420 294 LINE SMOOTH",
"560 294 OFFCURVE",
"661 382 OFFCURVE",
"661 533 CURVE SMOOTH",
"661 699 OFFCURVE",
"560 763 OFFCURVE",
"420 763 CURVE SMOOTH",
"60 763 LINE",
"60 0 LINE"
);
},
{
closed = 1;
nodes = (
"684 0 LINE",
"540 357 LINE",
"378 309 LINE",
"495 0 LINE"
);
},
{
closed = 1;
nodes = (
"239 603 LINE",
"395 603 LINE SMOOTH",
"453 603 OFFCURVE",
"484 577 OFFCURVE",
"484 527 CURVE SMOOTH",
"484 475 OFFCURVE",
"453 449 OFFCURVE",
"395 449 CURVE SMOOTH",
"239 449 LINE"
);
}
);
width = 708;
},
{
anchors = (
{
name = bottom;
position = "{344, 0}";
},
{
name = top;
position = "{321, 763}";
}
);
layerId = "11907447-A26F-432E-A335-7727E0303767";
paths = (
{
closed = 1;
nodes = (
"171 0 LINE",
"171 322 LINE",
"363 322 LINE SMOOTH",
"510 322 OFFCURVE",
"605 405 OFFCURVE",
"605 545 CURVE SMOOTH",
"605 692 OFFCURVE",
"509 763 OFFCURVE",
"363 763 CURVE SMOOTH",
"79 763 LINE",
"79 0 LINE"
);
},
{
closed = 1;
nodes = (
"615 0 LINE",
"455 369 LINE",
"372 339 LINE",
"514 0 LINE"
);
},
{
closed = 1;
nodes = (
"171 680 LINE",
"351 680 LINE SMOOTH",
"454 680 OFFCURVE",
"514 630 OFFCURVE",
"514 542 CURVE SMOOTH",
"514 453 OFFCURVE",
"456 404 OFFCURVE",
"351 404 CURVE SMOOTH",
"171 404 LINE"
);
}
);
width = 660;
},
{
anchors = (
{
name = bottom;
position = "{333, 0}";
},
{
name = top;
position = "{310, 763}";
}
);
layerId = "2F4EEC1B-9E89-4E08-AD53-AB625B6E887D";
paths = (
{
closed = 1;
nodes = (
"148 0 LINE",
"148 332 LINE",
"343 332 LINE SMOOTH",
"492 332 OFFCURVE",
"585 411 OFFCURVE",
"585 548 CURVE SMOOTH",
"585 690 OFFCURVE",
"490 763 OFFCURVE",
"343 763 CURVE SMOOTH",
"79 763 LINE",
"79 0 LINE"
);
},
{
closed = 1;
nodes = (
"592 0 LINE",
"430 369 LINE",
"366 347 LINE",
"516 0 LINE"
);
},
{
closed = 1;
nodes = (
"148 701 LINE",
"334 701 LINE SMOOTH",
"450 701 OFFCURVE",
"517 644 OFFCURVE",
"517 546 CURVE SMOOTH",
"517 447 OFFCURVE",
"452 392 OFFCURVE",
"334 392 CURVE SMOOTH",
"148 392 LINE"
);
}
);
width = 639;
}
);
leftKerningGroup = B;
note = R;
rightKerningGroup = R;
unicode = 0052;
},
{
color = 1;
glyphname = S;
lastChange = "2020-04-07 06:03:23 +0000";
layers = (
{
anchors = (
{
name = bottom;
position = "{356, 0}";
},
{
name = top;
position = "{356, 763}";
}
);
background = {
paths = (
{
closed = 1;
nodes = (
"566 -17 OFFCURVE",
"679 77 OFFCURVE",
"679 227 CURVE SMOOTH",
"679 524 OFFCURVE",
"229 424 OFFCURVE",
"229 561 CURVE SMOOTH",
"229 609 OFFCURVE",
"279 629 OFFCURVE",
"330 629 CURVE SMOOTH",
"405 629 OFFCURVE",
"457 590 OFFCURVE",
"475 525 CURVE",
"660 525 LINE",
"636 695 OFFCURVE",
"494 779 OFFCURVE",
"334 779 CURVE SMOOTH",
"178 779 OFFCURVE",
"51 704 OFFCURVE",
"51 546 CURVE SMOOTH",
"51 258 OFFCURVE",
"499 363 OFFCURVE",
"499 218 CURVE SMOOTH",
"499 158 OFFCURVE",
"441 133 OFFCURVE",
"380 133 CURVE SMOOTH",
"311 133 OFFCURVE",
"242 159 OFFCURVE",
"216 259 CURVE",
"31 259 LINE",
"45 45 OFFCURVE",
"237 -17 OFFCURVE",
"381 -17 CURVE SMOOTH"
);
}
);
};
guideLines = (
{
position = "{419, 525}";
},
{
position = "{119, 259}";
}
);
layerId = "FD6EB2BB-8839-4CDB-86BF-4EEAE3F02079";
paths = (
{
closed = 1;
nodes = (
"566 -17 OFFCURVE",
"679 77 OFFCURVE",
"679 227 CURVE SMOOTH",
"679 404 OFFCURVE",
"519 440 OFFCURVE",
"390 469 CURVE SMOOTH",
"303 489 OFFCURVE",
"229 506 OFFCURVE",
"229 561 CURVE SMOOTH",
"229 609 OFFCURVE",
"279 629 OFFCURVE",
"330 629 CURVE SMOOTH",
"405 629 OFFCURVE",
"457 590 OFFCURVE",
"475 525 CURVE",
"660 525 LINE",
"636 695 OFFCURVE",
"494 779 OFFCURVE",
"334 779 CURVE SMOOTH",
"178 779 OFFCURVE",
"51 704 OFFCURVE",
"51 546 CURVE SMOOTH",
"51 378 OFFCURVE",
"204 344 OFFCURVE",
"332 315 CURVE SMOOTH",
"422 295 OFFCURVE",
"499 278 OFFCURVE",
"499 218 CURVE SMOOTH",
"499 158 OFFCURVE",
"441 133 OFFCURVE",
"380 133 CURVE SMOOTH",
"311 133 OFFCURVE",
"242 159 OFFCURVE",
"216 259 CURVE",
"31 259 LINE",
"45 45 OFFCURVE",
"237 -17 OFFCURVE",
"381 -17 CURVE SMOOTH"
);
}
);
width = 712;
},
{
anchors = (
{
name = bottom;
position = "{336, 0}";
},
{
name = top;
position = "{336, 763}";
}
);
background = {
guideLines = (
{
angle = 180;
position = "{555, 552}";
},
{
position = "{669, 231}";
}
);
paths = (
{
closed = 1;
nodes = (
"529 -10 OFFCURVE",
"622 78 OFFCURVE",
"622 213 CURVE SMOOTH",
"622 517 OFFCURVE",
"165 365 OFFCURVE",
"165 571 CURVE SMOOTH",
"165 644 OFFCURVE",
"219 691 OFFCURVE",
"322 691 CURVE SMOOTH",
"406 691 OFFCURVE",
"489 657 OFFCURVE",
"511 553 CURVE",
"600 553 LINE",
"575 710 OFFCURVE",
"452 773 OFFCURVE",
"323 773 CURVE SMOOTH",
"174 773 OFFCURVE",
"73 693 OFFCURVE",
"73 563 CURVE SMOOTH",
"73 278 OFFCURVE",
"530 438 OFFCURVE",
"530 207 CURVE SMOOTH",
"530 116 OFFCURVE",
"466 72 OFFCURVE",
"359 72 CURVE SMOOTH",
"264 72 OFFCURVE",
"159 109 OFFCURVE",
"135 231 CURVE",
"42 231 LINE",
"68 60 OFFCURVE",
"204 -10 OFFCURVE",
"355 -10 CURVE SMOOTH"
);
}
);
};
guideLines = (
{
angle = 180;
position = "{555, 552}";
},
{
position = "{669, 231}";
}
);
layerId = "11907447-A26F-432E-A335-7727E0303767";
paths = (
{
closed = 1;
nodes = (
"529 -10 OFFCURVE",
"622 78 OFFCURVE",
"622 213 CURVE SMOOTH",
"622 380 OFFCURVE",
"485 409 OFFCURVE",
"360 436 CURVE SMOOTH",
"258 458 OFFCURVE",
"165 478 OFFCURVE",
"165 571 CURVE SMOOTH",
"165 644 OFFCURVE",
"219 691 OFFCURVE",
"322 691 CURVE SMOOTH",
"406 691 OFFCURVE",
"489 657 OFFCURVE",
"511 553 CURVE",
"600 553 LINE",
"575 710 OFFCURVE",
"452 773 OFFCURVE",
"323 773 CURVE SMOOTH",
"174 773 OFFCURVE",
"73 693 OFFCURVE",
"73 563 CURVE SMOOTH",
"73 413 OFFCURVE",
"200 386 OFFCURVE",
"319 361 CURVE SMOOTH",
"427 338 OFFCURVE",
"530 316 OFFCURVE",
"530 207 CURVE SMOOTH",
"530 116 OFFCURVE",
"466 72 OFFCURVE",
"359 72 CURVE SMOOTH",
"264 72 OFFCURVE",
"159 109 OFFCURVE",
"135 231 CURVE",
"42 231 LINE",
"68 60 OFFCURVE",
"204 -10 OFFCURVE",
"355 -10 CURVE SMOOTH"
);
}
);
width = 673;
},
{
anchors = (
{
name = bottom;
position = "{326, 0}";
},
{
name = top;
position = "{326, 763}";
}
);
background = {
paths = (
{
closed = 1;
nodes = (
"512 -10 OFFCURVE",
"604 80 OFFCURVE",
"604 213 CURVE SMOOTH",
"604 513 OFFCURVE",
"142 359 OFFCURVE",
"142 577 CURVE SMOOTH",
"142 660 OFFCURVE",
"216 711 OFFCURVE",
"320 711 CURVE SMOOTH",
"418 711 OFFCURVE",
"492 671 OFFCURVE",
"513 562 CURVE",
"579 562 LINE",
"555 711 OFFCURVE",
"454 773 OFFCURVE",
"321 773 CURVE SMOOTH",
"179 773 OFFCURVE",
"73 695 OFFCURVE",
"73 572 CURVE SMOOTH",
"73 290 OFFCURVE",
"535 449 OFFCURVE",
"535 210 CURVE SMOOTH",
"535 111 OFFCURVE",
"465 52 OFFCURVE",
"344 52 CURVE SMOOTH",
"242 52 OFFCURVE",
"135 91 OFFCURVE",
"113 216 CURVE",
"43 216 LINE",
"68 55 OFFCURVE",
"195 -10 OFFCURVE",
"339 -10 CURVE SMOOTH"
);
}
);
};
layerId = "2F4EEC1B-9E89-4E08-AD53-AB625B6E887D";
paths = (
{
closed = 1;
nodes = (
"512 -10 OFFCURVE",
"604 80 OFFCURVE",
"604 213 CURVE SMOOTH",
"604 375 OFFCURVE",
"469 405 OFFCURVE",
"345 432 CURVE SMOOTH",
"240 455 OFFCURVE",
"142 477 OFFCURVE",
"142 577 CURVE SMOOTH",
"142 660 OFFCURVE",
"216 711 OFFCURVE",
"320 711 CURVE SMOOTH",
"418 711 OFFCURVE",
"492 671 OFFCURVE",
"513 562 CURVE",
"579 562 LINE",
"555 711 OFFCURVE",
"454 773 OFFCURVE",
"321 773 CURVE SMOOTH",
"179 773 OFFCURVE",
"73 695 OFFCURVE",
"73 572 CURVE SMOOTH",
"73 425 OFFCURVE",
"198 398 OFFCURVE",
"318 372 CURVE SMOOTH",
"429 348 OFFCURVE",
"535 325 OFFCURVE",
"535 210 CURVE SMOOTH",
"535 111 OFFCURVE",
"465 52 OFFCURVE",
"344 52 CURVE SMOOTH",
"242 52 OFFCURVE",
"135 91 OFFCURVE",
"113 216 CURVE",
"43 216 LINE",
"68 55 OFFCURVE",
"195 -10 OFFCURVE",
"339 -10 CURVE SMOOTH"
);
}
);
width = 653;
}
);
leftKerningGroup = S;
note = S;
rightKerningGroup = S;
unicode = 0053;
},
{
color = 1;
glyphname = Germandbls;
lastChange = "2020-04-14 05:49:49 +0000";
layers = (
{
anchors = (
{
name = bottom;
position = "{328, 0}";
},
{
name = top;
position = "{328, 763}";
}
);
background = {
paths = (
{
closed = 0;
nodes = (
"400 433 LINE SMOOTH"
);
}
);
};
layerId = "2F4EEC1B-9E89-4E08-AD53-AB625B6E887D";
paths = (
{
closed = 1;
nodes = (
"148 0 LINE",
"148 452 LINE SMOOTH",
"148 557 OFFCURVE",
"164 615 OFFCURVE",
"193 652 CURVE SMOOTH",
"226 694 OFFCURVE",
"274 711 OFFCURVE",
"334 711 CURVE SMOOTH",
"412 711 OFFCURVE",
"449 694 OFFCURVE",
"496 655 CURVE",
"295 457 LINE",
"295 371 LINE",
"391 371 LINE SMOOTH",
"454 371 OFFCURVE",
"557 352 OFFCURVE",
"557 215 CURVE SMOOTH",
"557 81 OFFCURVE",
"440 62 OFFCURVE",
"364 62 CURVE SMOOTH",
"240 62 LINE",
"240 0 LINE",
"371 0 LINE SMOOTH",
"489 0 OFFCURVE",
"626 45 OFFCURVE",
"626 221 CURVE SMOOTH",
"626 367 OFFCURVE",
"519 433 OFFCURVE",
"400 433 CURVE SMOOTH",
"383 433 OFFCURVE",
"365 432 OFFCURVE",
"348 429 CURVE",
"558 635 LINE",
"558 688 LINE",
"487 751 OFFCURVE",
"420 773 OFFCURVE",
"334 773 CURVE SMOOTH",
"245 773 OFFCURVE",
"182 747 OFFCURVE",
"140 697 CURVE SMOOTH",
"98 646 OFFCURVE",
"79 571 OFFCURVE",
"79 452 CURVE SMOOTH",
"79 0 LINE"
);
}
);
width = 677;
},
{
anchors = (
{
name = bottom;
position = "{334, 0}";
},
{
name = top;
position = "{334, 763}";
}
);
layerId = "11907447-A26F-432E-A335-7727E0303767";
paths = (
{
closed = 1;
nodes = (
"171 0 LINE",
"171 507 LINE SMOOTH",
"171 584 OFFCURVE",
"190 627 OFFCURVE",
"221 654 CURVE SMOOTH",
"251 680 OFFCURVE",
"292 690 OFFCURVE",
"337 690 CURVE SMOOTH",
"399 690 OFFCURVE",
"457 673 OFFCURVE",
"498 636 CURVE",
"340 481 LINE",
"340 360 LINE",
"388 360 LINE SMOOTH",
"430 360 OFFCURVE",
"547 360 OFFCURVE",
"547 221 CURVE SMOOTH",
"547 83 OFFCURVE",
"414 83 OFFCURVE",
"368 83 CURVE SMOOTH",
"271 83 LINE",
"271 0 LINE",
"378 0 LINE SMOOTH",
"481 0 OFFCURVE",
"639 35 OFFCURVE",
"639 215 CURVE SMOOTH",
"639 334 OFFCURVE",
"579 410 OFFCURVE",
"468 430 CURVE SMOOTH",
"450 433 OFFCURVE",
"431 434 OFFCURVE",
"411 434 CURVE",
"578 600 LINE",
"578 675 LINE",
"511 736 OFFCURVE",
"445 773 OFFCURVE",
"337 773 CURVE SMOOTH",
"266 773 OFFCURVE",
"207 756 OFFCURVE",
"164 722 CURVE SMOOTH",
"109 679 OFFCURVE",
"79 611 OFFCURVE",
"79 507 CURVE SMOOTH",
"79 0 LINE"
);
}
);
width = 690;
},
{
anchors = (
{
name = bottom;
position = "{338, 0}";
},
{
name = top;
position = "{338, 763}";
}
);
layerId = "FD6EB2BB-8839-4CDB-86BF-4EEAE3F02079";
paths = (
{
closed = 1;
nodes = (
"239 0 LINE",
"239 450 LINE SMOOTH",
"239 525 OFFCURVE",
"251 561 OFFCURVE",
"269 583 CURVE SMOOTH",
"292 611 OFFCURVE",
"324 619 OFFCURVE",
"359 619 CURVE SMOOTH",
"400 619 OFFCURVE",
"432 602 OFFCURVE",
"456 583 CURVE",
"322 452 LINE",
"322 315 LINE",
"387 315 LINE SMOOTH",
"458 315 OFFCURVE",
"491 290 OFFCURVE",
"491 240 CURVE SMOOTH",
"491 191 OFFCURVE",
"463 160 OFFCURVE",
"394 160 CURVE SMOOTH",
"299 160 LINE",
"299 0 LINE",
"386 0 LINE SMOOTH",
"444 0 OFFCURVE",
"670 10 OFFCURVE",
"670 236 CURVE SMOOTH",
"670 326 OFFCURVE",
"632 387 OFFCURVE",
"564 417 CURVE SMOOTH",
"544 426 OFFCURVE",
"521 432 OFFCURVE",
"495 435 CURVE",
"599 535 LINE",
"599 686 LINE",
"543 738 OFFCURVE",
"461 779 OFFCURVE",
"359 779 CURVE SMOOTH",
"250 779 OFFCURVE",
"178 751 OFFCURVE",
"131 701 CURVE SMOOTH",
"80 646 OFFCURVE",
"60 567 OFFCURVE",
"60 450 CURVE SMOOTH",
"60 0 LINE"
);
}
);
width = 703;
}
);
leftMetricsKey = I;
rightMetricsKey = B;
unicode = 1E9E;
},
{
color = 1;
glyphname = T;
lastChange = "2020-03-29 12:53:13 +0000";
layers = (
{
anchors = (
{
name = bottom;
position = "{313, 0}";
},
{
name = center;
position = "{313, 382}";
},
{
name = top;
position = "{313, 763}";
}
);
background = {
anchors = (
{
name = bottom;
position = "{313, 0}";
},
{
name = center;
position = "{313, 382}";
},
{
name = top;
position = "{313, 763}";
}
);
paths = (
{
closed = 1;
nodes = (
"386 0 LINE SMOOTH",
"396 0 OFFCURVE",
"402 6 OFFCURVE",
"402 16 CURVE SMOOTH",
"402 587 LINE SMOOTH",
"402 597 OFFCURVE",
"408 603 OFFCURVE",
"418 603 CURVE SMOOTH",
"601 603 LINE SMOOTH",
"611 603 OFFCURVE",
"617 609 OFFCURVE",
"617 619 CURVE SMOOTH",
"617 747 LINE SMOOTH",
"617 757 OFFCURVE",
"611 763 OFFCURVE",
"601 763 CURVE SMOOTH",
"24 763 LINE SMOOTH",
"14 763 OFFCURVE",
"8 757 OFFCURVE",
"8 747 CURVE SMOOTH",
"8 619 LINE SMOOTH",
"8 609 OFFCURVE",
"14 603 OFFCURVE",
"24 603 CURVE SMOOTH",
"207 603 LINE SMOOTH",
"217 603 OFFCURVE",
"223 597 OFFCURVE",
"223 587 CURVE SMOOTH",
"223 16 LINE SMOOTH",
"223 6 OFFCURVE",
"229 0 OFFCURVE",
"239 0 CURVE SMOOTH"
);
}
);
};
layerId = "FD6EB2BB-8839-4CDB-86BF-4EEAE3F02079";
paths = (
{
closed = 1;
nodes = (
"402 0 LINE",
"402 603 LINE",
"617 603 LINE",
"617 763 LINE",
"8 763 LINE",
"8 603 LINE",
"223 603 LINE",
"223 0 LINE"
);
}
);
width = 625;
},
{
anchors = (
{
name = bottom;
position = "{319, 0}";
},
{
name = center;
position = "{319, 382}";
},
{
name = top;
position = "{319, 763}";
}
);
background = {
anchors = (
{
name = bottom;
position = "{319, 0}";
},
{
name = center;
position = "{319, 382}";
},
{
name = top;
position = "{319, 763}";
}
);
paths = (
{
closed = 1;
nodes = (
"348 0 LINE SMOOTH",
"358 0 OFFCURVE",
"364 6 OFFCURVE",
"364 16 CURVE SMOOTH",
"364 664 LINE SMOOTH",
"364 674 OFFCURVE",
"370 680 OFFCURVE",
"380 680 CURVE SMOOTH",
"607 680 LINE SMOOTH",
"617 680 OFFCURVE",
"623 686 OFFCURVE",
"623 696 CURVE SMOOTH",
"623 747 LINE SMOOTH",
"623 757 OFFCURVE",
"617 763 OFFCURVE",
"607 763 CURVE SMOOTH",
"30 763 LINE SMOOTH",
"20 763 OFFCURVE",
"14 757 OFFCURVE",
"14 747 CURVE SMOOTH",
"14 696 LINE SMOOTH",
"14 686 OFFCURVE",
"20 680 OFFCURVE",
"30 680 CURVE SMOOTH",
"256 680 LINE SMOOTH",
"266 680 OFFCURVE",
"272 674 OFFCURVE",
"272 664 CURVE SMOOTH",
"272 16 LINE SMOOTH",
"272 6 OFFCURVE",
"278 0 OFFCURVE",
"288 0 CURVE SMOOTH"
);
}
);
};
layerId = "11907447-A26F-432E-A335-7727E0303767";
paths = (
{
closed = 1;
nodes = (
"364 0 LINE",
"364 680 LINE",
"623 680 LINE",
"623 763 LINE",
"14 763 LINE",
"14 680 LINE",
"272 680 LINE",
"272 0 LINE"
);
}
);
width = 637;
},
{
anchors = (
{
name = bottom;
position = "{317, 0}";
},
{
name = center;
position = "{317, 382}";
},
{
name = top;
position = "{317, 763}";
}
);
background = {
anchors = (
{
name = bottom;
position = "{317, 0}";
},
{
name = center;
position = "{317, 382}";
},
{
name = top;
position = "{317, 763}";
}
);
paths = (
{
closed = 1;
nodes = (
"341 0 LINE SMOOTH",
"347 0 OFFCURVE",
"351 4 OFFCURVE",
"351 10 CURVE SMOOTH",
"351 691 LINE SMOOTH",
"351 697 OFFCURVE",
"355 701 OFFCURVE",
"361 701 CURVE SMOOTH",
"610 701 LINE SMOOTH",
"616 701 OFFCURVE",
"620 705 OFFCURVE",
"620 711 CURVE SMOOTH",
"620 753 LINE SMOOTH",
"620 759 OFFCURVE",
"616 763 OFFCURVE",
"610 763 CURVE SMOOTH",
"24 763 LINE SMOOTH",
"18 763 OFFCURVE",
"14 759 OFFCURVE",
"14 753 CURVE SMOOTH",
"14 711 LINE SMOOTH",
"14 705 OFFCURVE",
"18 701 OFFCURVE",
"24 701 CURVE SMOOTH",
"272 701 LINE SMOOTH",
"278 701 OFFCURVE",
"282 697 OFFCURVE",
"282 691 CURVE SMOOTH",
"282 10 LINE SMOOTH",
"282 4 OFFCURVE",
"286 0 OFFCURVE",
"292 0 CURVE SMOOTH"
);
}
);
};
layerId = "2F4EEC1B-9E89-4E08-AD53-AB625B6E887D";
paths = (
{
closed = 1;
nodes = (
"351 0 LINE",
"351 701 LINE",
"620 701 LINE",
"620 763 LINE",
"14 763 LINE",
"14 701 LINE",
"282 701 LINE",
"282 0 LINE"
);
}
);
width = 634;
}
);
leftKerningGroup = T;
note = T;
rightKerningGroup = T;
unicode = 0054;
},
{
color = 1;
glyphname = U;
lastChange = "2020-07-09 08:27:48 +0000";
layers = (
{
anchors = (
{
name = bottom;
position = "{377, 0}";
},
{
name = ogonek;
position = "{473, 0}";
},
{
name = top;
position = "{377, 763}";
},
{
name = topright;
position = "{751, 763}";
}
);
background = {
anchors = (
{
name = bottom;
position = "{377, 0}";
},
{
name = ogonek;
position = "{493, 0}";
},
{
name = top;
position = "{377, 763}";
},
{
name = topright;
position = "{751, 763}";
}
);
paths = (
{
closed = 1;
nodes = (
"612 -17 OFFCURVE",
"701 110 OFFCURVE",
"701 285 CURVE SMOOTH",
"701 747 LINE SMOOTH",
"701 757 OFFCURVE",
"695 763 OFFCURVE",
"685 763 CURVE SMOOTH",
"537 763 LINE SMOOTH",
"527 763 OFFCURVE",
"521 757 OFFCURVE",
"521 747 CURVE SMOOTH",
"521 285 LINE SMOOTH",
"521 207 OFFCURVE",
"493 143 OFFCURVE",
"377 143 CURVE SMOOTH",
"260 143 OFFCURVE",
"232 207 OFFCURVE",
"232 285 CURVE SMOOTH",
"232 747 LINE SMOOTH",
"232 757 OFFCURVE",
"226 763 OFFCURVE",
"216 763 CURVE SMOOTH",
"68 763 LINE SMOOTH",
"58 763 OFFCURVE",
"52 757 OFFCURVE",
"52 747 CURVE SMOOTH",
"52 285 LINE SMOOTH",
"52 110 OFFCURVE",
"141 -17 OFFCURVE",
"377 -17 CURVE SMOOTH"
);
}
);
};
layerId = "FD6EB2BB-8839-4CDB-86BF-4EEAE3F02079";
paths = (
{
closed = 1;
nodes = (
"612 -17 OFFCURVE",
"701 110 OFFCURVE",
"701 285 CURVE SMOOTH",
"701 763 LINE",
"521 763 LINE",
"521 285 LINE SMOOTH",
"521 207 OFFCURVE",
"493 143 OFFCURVE",
"377 143 CURVE SMOOTH",
"260 143 OFFCURVE",
"232 207 OFFCURVE",
"232 285 CURVE SMOOTH",
"232 763 LINE",
"52 763 LINE",
"52 285 LINE SMOOTH",
"52 110 OFFCURVE",
"141 -17 OFFCURVE",
"377 -17 CURVE SMOOTH"
);
}
);
width = 754;
},
{
anchors = (
{
name = bottom;
position = "{355, 0}";
},
{
name = ogonek;
position = "{428, 0}";
},
{
name = top;
position = "{355, 763}";
},
{
name = topright;
position = "{704, 763}";
}
);
background = {
anchors = (
{
name = bottom;
position = "{355, 0}";
},
{
name = ogonek;
position = "{438, 0}";
},
{
name = top;
position = "{355, 763}";
},
{
name = topright;
position = "{704, 763}";
}
);
paths = (
{
closed = 1;
nodes = (
"548 -9 OFFCURVE",
"638 96 OFFCURVE",
"638 265 CURVE SMOOTH",
"638 747 LINE SMOOTH",
"638 757 OFFCURVE",
"632 763 OFFCURVE",
"622 763 CURVE SMOOTH",
"562 763 LINE SMOOTH",
"552 763 OFFCURVE",
"546 757 OFFCURVE",
"546 747 CURVE SMOOTH",
"546 265 LINE SMOOTH",
"546 146 OFFCURVE",
"488 74 OFFCURVE",
"355 74 CURVE SMOOTH",
"222 74 OFFCURVE",
"164 146 OFFCURVE",
"164 265 CURVE SMOOTH",
"164 747 LINE SMOOTH",
"164 757 OFFCURVE",
"158 763 OFFCURVE",
"148 763 CURVE SMOOTH",
"88 763 LINE SMOOTH",
"78 763 OFFCURVE",
"72 757 OFFCURVE",
"72 747 CURVE SMOOTH",
"72 265 LINE SMOOTH",
"72 96 OFFCURVE",
"162 -9 OFFCURVE",
"355 -9 CURVE SMOOTH"
);
}
);
};
layerId = "11907447-A26F-432E-A335-7727E0303767";
paths = (
{
closed = 1;
nodes = (
"548 -10 OFFCURVE",
"638 95 OFFCURVE",
"638 264 CURVE SMOOTH",
"638 763 LINE",
"546 763 LINE",
"546 264 LINE SMOOTH",
"546 145 OFFCURVE",
"488 72 OFFCURVE",
"355 72 CURVE SMOOTH",
"222 72 OFFCURVE",
"164 145 OFFCURVE",
"164 264 CURVE SMOOTH",
"164 763 LINE",
"72 763 LINE",
"72 264 LINE SMOOTH",
"72 95 OFFCURVE",
"162 -10 OFFCURVE",
"355 -10 CURVE SMOOTH"
);
}
);
width = 711;
},
{
anchors = (
{
name = bottom;
position = "{345, 0}";
},
{
name = ogonek;
position = "{400, 0}";
},
{
name = top;
position = "{345, 763}";
},
{
name = topright;
position = "{687, 763}";
}
);
background = {
anchors = (
{
name = bottom;
position = "{345, 0}";
},
{
name = ogonek;
position = "{430, 0}";
},
{
name = top;
position = "{345, 763}";
},
{
name = topright;
position = "{687, 763}";
}
);
paths = (
{
closed = 1;
nodes = (
"531 -10 OFFCURVE",
"616 96 OFFCURVE",
"616 270 CURVE SMOOTH",
"616 753 LINE SMOOTH",
"616 759 OFFCURVE",
"612 763 OFFCURVE",
"606 763 CURVE SMOOTH",
"557 763 LINE SMOOTH",
"551 763 OFFCURVE",
"547 759 OFFCURVE",
"547 753 CURVE SMOOTH",
"547 270 LINE SMOOTH",
"547 134 OFFCURVE",
"487 53 OFFCURVE",
"344 53 CURVE SMOOTH",
"201 53 OFFCURVE",
"141 134 OFFCURVE",
"141 270 CURVE SMOOTH",
"141 753 LINE SMOOTH",
"141 759 OFFCURVE",
"137 763 OFFCURVE",
"131 763 CURVE SMOOTH",
"82 763 LINE SMOOTH",
"76 763 OFFCURVE",
"72 759 OFFCURVE",
"72 753 CURVE SMOOTH",
"72 270 LINE SMOOTH",
"72 96 OFFCURVE",
"157 -10 OFFCURVE",
"344 -10 CURVE SMOOTH"
);
}
);
};
layerId = "2F4EEC1B-9E89-4E08-AD53-AB625B6E887D";
paths = (
{
closed = 1;
nodes = (
"531 -10 OFFCURVE",
"616 96 OFFCURVE",
"616 270 CURVE SMOOTH",
"616 763 LINE",
"547 763 LINE",
"547 270 LINE SMOOTH",
"547 134 OFFCURVE",
"487 52 OFFCURVE",
"344 52 CURVE SMOOTH",
"201 52 OFFCURVE",
"141 134 OFFCURVE",
"141 270 CURVE SMOOTH",
"141 763 LINE",
"72 763 LINE",
"72 270 LINE SMOOTH",
"72 96 OFFCURVE",
"157 -10 OFFCURVE",
"344 -10 CURVE SMOOTH"
);
}
);
width = 689;
}
);
leftKerningGroup = U;
note = U;
rightKerningGroup = J;
unicode = 0055;
},
{
color = 1;
glyphname = V;
lastChange = "2020-04-14 05:50:21 +0000";
layers = (
{
anchors = (
{
name = bottom;
position = "{354, 0}";
},
{
name = top;
position = "{354, 763}";
}
);
layerId = "FD6EB2BB-8839-4CDB-86BF-4EEAE3F02079";
paths = (
{
closed = 1;
nodes = (
"451 0 LINE",
"712 763 LINE",
"522 763 LINE",
"354 201 LINE",
"186 763 LINE",
"-4 763 LINE",
"257 0 LINE"
);
}
);
width = 708;
},
{
anchors = (
{
name = bottom;
position = "{347, 0}";
},
{
name = top;
position = "{347, 763}";
}
);
layerId = "11907447-A26F-432E-A335-7727E0303767";
paths = (
{
closed = 1;
nodes = (
"399 0 LINE",
"680 763 LINE",
"587 763 LINE",
"347 94 LINE",
"107 763 LINE",
"14 763 LINE",
"295 0 LINE"
);
}
);
width = 694;
},
{
anchors = (
{
name = bottom;
position = "{344, 0}";
},
{
name = top;
position = "{344, 763}";
}
);
layerId = "2F4EEC1B-9E89-4E08-AD53-AB625B6E887D";
paths = (
{
closed = 1;
nodes = (
"384 0 LINE",
"672 763 LINE",
"601 763 LINE",
"344 69 LINE",
"87 763 LINE",
"16 763 LINE",
"304 0 LINE"
);
}
);
width = 688;
}
);
leftKerningGroup = V;
note = V;
rightKerningGroup = V;
unicode = 0056;
},
{
color = 1;
glyphname = W;
lastChange = "2020-04-15 11:29:34 +0000";
layers = (
{
anchors = (
{
name = bottom;
position = "{569, 0}";
},
{
name = top;
position = "{569, 763}";
}
);
background = {
paths = (
{
closed = 1;
nodes = (
"483 0 LINE",
"555 484 LINE SMOOTH",
"558 504 OFFCURVE",
"561 532 OFFCURVE",
"561 568 CURVE",
"577 568 LINE",
"577 532 OFFCURVE",
"580 504 OFFCURVE",
"583 484 CURVE SMOOTH",
"655 0 LINE",
"945 0 LINE",
"1127 763 LINE",
"939 763 LINE",
"824 226 LINE SMOOTH",
"819 203 OFFCURVE",
"812 179 OFFCURVE",
"812 136 CURVE",
"796 136 LINE",
"796 179 OFFCURVE",
"790 203 OFFCURVE",
"786 226 CURVE SMOOTH",
"692 763 LINE",
"446 763 LINE",
"352 226 LINE SMOOTH",
"348 203 OFFCURVE",
"342 179 OFFCURVE",
"342 136 CURVE",
"326 136 LINE",
"326 179 OFFCURVE",
"319 203 OFFCURVE",
"314 226 CURVE SMOOTH",
"199 763 LINE",
"11 763 LINE",
"193 0 LINE"
);
}
);
};
layerId = "FD6EB2BB-8839-4CDB-86BF-4EEAE3F02079";
paths = (
{
closed = 1;
nodes = (
"483 0 LINE",
"569 576 LINE",
"655 0 LINE",
"945 0 LINE",
"1127 763 LINE",
"939 763 LINE",
"803 127 LINE",
"692 763 LINE",
"446 763 LINE",
"335 128 LINE",
"199 763 LINE",
"11 763 LINE",
"193 0 LINE"
);
}
);
width = 1138;
},
{
anchors = (
{
name = bottom;
position = "{536, 0}";
},
{
name = top;
position = "{536, 763}";
}
);
layerId = "11907447-A26F-432E-A335-7727E0303767";
paths = (
{
closed = 1;
nodes = (
"350 0 LINE",
"537 613 LINE",
"724 0 LINE",
"828 0 LINE",
"1054 763 LINE",
"958 763 LINE",
"770 131 LINE",
"581 763 LINE",
"493 763 LINE",
"305 132 LINE",
"116 763 LINE",
"20 763 LINE",
"246 0 LINE"
);
}
);
width = 1074;
},
{
anchors = (
{
name = bottom;
position = "{541, 0}";
},
{
name = top;
position = "{541, 763}";
}
);
layerId = "2F4EEC1B-9E89-4E08-AD53-AB625B6E887D";
paths = (
{
closed = 1;
nodes = (
"333 0 LINE",
"541 650 LINE",
"748 0 LINE",
"828 0 LINE",
"1059 763 LINE",
"987 763 LINE",
"783 99 LINE",
"573 763 LINE",
"508 763 LINE",
"297 98 LINE",
"95 763 LINE",
"22 763 LINE",
"252 0 LINE"
);
}
);
width = 1081;
}
);
leftKerningGroup = W;
note = W;
rightKerningGroup = W;
unicode = 0057;
},
{
color = 1;
glyphname = X;
lastChange = "2020-04-14 05:55:47 +0000";
layers = (
{
layerId = "FD6EB2BB-8839-4CDB-86BF-4EEAE3F02079";
paths = (
{
closed = 1;
nodes = (
"216 0 LINE",
"375 245 LINE",
"533 0 LINE",
"745 0 LINE",
"498 379 LINE",
"747 763 LINE",
"534 763 LINE",
"374 500 LINE",
"215 763 LINE",
"2 763 LINE",
"251 379 LINE",
"4 0 LINE"
);
}
);
width = 749;
},
{
layerId = "11907447-A26F-432E-A335-7727E0303767";
paths = (
{
closed = 1;
nodes = (
"125 0 LINE",
"342 314 LINE",
"559 0 LINE",
"668 0 LINE",
"404 384 LINE",
"664 763 LINE",
"554 763 LINE",
"342 448 LINE",
"130 763 LINE",
"20 763 LINE",
"280 384 LINE",
"16 0 LINE"
);
}
);
width = 684;
},
{
anchors = (
{
name = bottom;
position = "{333, 0}";
},
{
name = top;
position = "{333, 763}";
}
);
layerId = "2F4EEC1B-9E89-4E08-AD53-AB625B6E887D";
paths = (
{
closed = 1;
nodes = (
"101 0 LINE",
"332 334 LINE",
"565 0 LINE",
"647 0 LINE",
"379 385 LINE",
"642 763 LINE",
"559 763 LINE",
"333 432 LINE",
"106 763 LINE",
"24 763 LINE",
"287 385 LINE",
"19 0 LINE"
);
}
);
width = 667;
}
);
leftKerningGroup = X;
note = X;
rightKerningGroup = X;
unicode = 0058;
},
{
color = 1;
glyphname = Y;
lastChange = "2020-04-14 05:56:20 +0000";
layers = (
{
anchors = (
{
name = bottom;
position = "{357, 0}";
},
{
name = top;
position = "{357, 763}";
},
{
name = topleft;
position = "{24, 763}";
}
);
layerId = "FD6EB2BB-8839-4CDB-86BF-4EEAE3F02079";
paths = (
{
closed = 1;
nodes = (
"453 0 LINE",
"453 303 LINE",
"726 763 LINE",
"517 763 LINE",
"359 476 LINE",
"201 763 LINE",
"-8 763 LINE",
"265 303 LINE",
"265 0 LINE"
);
}
);
width = 718;
},
{
anchors = (
{
name = bottom;
position = "{337, 0}";
},
{
name = top;
position = "{337, 763}";
},
{
name = topleft;
position = "{8, 763}";
}
);
layerId = "11907447-A26F-432E-A335-7727E0303767";
paths = (
{
closed = 1;
nodes = (
"386 0 LINE",
"386 292 LINE",
"669 763 LINE",
"564 763 LINE",
"336 383 LINE",
"111 763 LINE",
"4 763 LINE",
"290 292 LINE",
"290 0 LINE"
);
}
);
width = 674;
},
{
anchors = (
{
name = bottom;
position = "{331, 0}";
},
{
name = top;
position = "{331, 763}";
},
{
name = topleft;
position = "{20, 763}";
}
);
guideLines = (
{
position = "{326, 455}";
}
);
layerId = "2F4EEC1B-9E89-4E08-AD53-AB625B6E887D";
paths = (
{
closed = 1;
nodes = (
"367 0 LINE",
"367 292 LINE",
"654 763 LINE",
"574 763 LINE",
"331 359 LINE",
"88 763 LINE",
"8 763 LINE",
"295 292 LINE",
"295 0 LINE"
);
}
);
width = 662;
}
);
leftKerningGroup = Y;
note = Y;
rightKerningGroup = Y;
unicode = 0059;
},
{
color = 1;
glyphname = Z;
lastChange = "2020-04-14 05:57:15 +0000";
layers = (
{
anchors = (
{
name = bottom;
position = "{314, 0}";
},
{
name = center;
position = "{314, 382}";
},
{
name = top;
position = "{314, 763}";
}
);
layerId = "FD6EB2BB-8839-4CDB-86BF-4EEAE3F02079";
paths = (
{
closed = 1;
nodes = (
"593 0 LINE",
"593 160 LINE",
"258 160 LINE",
"591 636 LINE",
"591 763 LINE",
"47 763 LINE",
"47 603 LINE",
"365 603 LINE",
"26 121 LINE",
"26 0 LINE"
);
}
);
width = 624;
},
{
anchors = (
{
name = bottom;
position = "{318, 0}";
},
{
name = center;
position = "{318, 382}";
},
{
name = top;
position = "{318, 763}";
}
);
layerId = "11907447-A26F-432E-A335-7727E0303767";
paths = (
{
closed = 1;
nodes = (
"601 0 LINE",
"601 83 LINE",
"147 83 LINE",
"602 694 LINE",
"602 763 LINE",
"53 763 LINE",
"53 680 LINE",
"488 680 LINE",
"29 67 LINE",
"29 0 LINE"
);
}
);
width = 634;
},
{
anchors = (
{
name = bottom;
position = "{320, 0}";
},
{
name = center;
position = "{320, 382}";
},
{
name = top;
position = "{320, 763}";
}
);
layerId = "2F4EEC1B-9E89-4E08-AD53-AB625B6E887D";
paths = (
{
closed = 1;
nodes = (
"604 0 LINE",
"604 62 LINE",
"114 62 LINE",
"606 708 LINE",
"606 763 LINE",
"53 763 LINE",
"53 701 LINE",
"521 701 LINE",
"29 54 LINE",
"29 0 LINE"
);
}
);
width = 638;
}
);
leftKerningGroup = Z;
note = Z;
rightKerningGroup = Z;
unicode = 005A;
},
{
color = 1;
glyphname = a;
lastChange = "2020-04-14 07:46:28 +0000";
layers = (
{
anchors = (
{
name = bottom;
position = "{307, 0}";
},
{
name = ogonek;
position = "{552, 0}";
},
{
name = top;
position = "{307, 567}";
}
);
guideLines = (
{
angle = 270;
position = "{384, 763}";
},
{
position = "{385, 367}";
}
);
layerId = "FD6EB2BB-8839-4CDB-86BF-4EEAE3F02079";
paths = (
{
closed = 1;
nodes = (
"266 -12 OFFCURVE",
"311 -5 OFFCURVE",
"344 18 CURVE SMOOTH",
"362 30 OFFCURVE",
"375 47 OFFCURVE",
"384 69 CURVE",
"384 0 LINE",
"552 0 LINE",
"552 269 LINE SMOOTH",
"552 374 OFFCURVE",
"552 463 OFFCURVE",
"482 523 CURVE SMOOTH",
"437 562 OFFCURVE",
"372 579 OFFCURVE",
"306 579 CURVE SMOOTH",
"192 579 OFFCURVE",
"75 520 OFFCURVE",
"54 378 CURVE",
"221 378 LINE",
"229 426 OFFCURVE",
"266 453 OFFCURVE",
"305 453 CURVE SMOOTH",
"330 453 OFFCURVE",
"349 447 OFFCURVE",
"362 433 CURVE SMOOTH",
"375 418 OFFCURVE",
"383 396 OFFCURVE",
"385 367 CURVE",
"238 341 LINE SMOOTH",
"195 333 OFFCURVE",
"144 322 OFFCURVE",
"104 296 CURVE SMOOTH",
"63 269 OFFCURVE",
"33 227 OFFCURVE",
"33 159 CURVE SMOOTH",
"33 45 OFFCURVE",
"117 -12 OFFCURVE",
"219 -12 CURVE SMOOTH"
);
},
{
closed = 1;
nodes = (
"232 115 OFFCURVE",
"201 129 OFFCURVE",
"201 165 CURVE SMOOTH",
"201 181 OFFCURVE",
"207 192 OFFCURVE",
"216 201 CURVE SMOOTH",
"230 214 OFFCURVE",
"248 221 OFFCURVE",
"285 228 CURVE SMOOTH",
"388 248 LINE",
"386 186 OFFCURVE",
"375 150 OFFCURVE",
"329 129 CURVE SMOOTH",
"309 120 OFFCURVE",
"287 115 OFFCURVE",
"268 115 CURVE SMOOTH"
);
}
);
width = 601;
},
{
anchors = (
{
name = bottom;
position = "{295, 0}";
},
{
name = ogonek;
position = "{511, 0}";
},
{
name = top;
position = "{295, 553}";
}
);
guideLines = (
{
angle = 270;
position = "{426, 351}";
}
);
layerId = "11907447-A26F-432E-A335-7727E0303767";
paths = (
{
closed = 1;
nodes = (
"279 -10 OFFCURVE",
"322 -1 OFFCURVE",
"359 22 CURVE SMOOTH",
"384 37 OFFCURVE",
"406 58 OFFCURVE",
"426 87 CURVE",
"426 0 LINE",
"511 0 LINE",
"511 326 LINE SMOOTH",
"511 363 OFFCURVE",
"511 450 OFFCURVE",
"453 506 CURVE SMOOTH",
"414 544 OFFCURVE",
"355 563 OFFCURVE",
"291 563 CURVE SMOOTH",
"185 563 OFFCURVE",
"88 502 OFFCURVE",
"69 387 CURVE",
"154 387 LINE",
"167 449 OFFCURVE",
"222 488 OFFCURVE",
"290 488 CURVE SMOOTH",
"333 488 OFFCURVE",
"368 474 OFFCURVE",
"392 450 CURVE SMOOTH",
"415 427 OFFCURVE",
"426 394 OFFCURVE",
"426 351 CURVE",
"229 313 LINE SMOOTH",
"174 302 OFFCURVE",
"132 285 OFFCURVE",
"102 261 CURVE SMOOTH",
"66 233 OFFCURVE",
"48 194 OFFCURVE",
"48 147 CURVE SMOOTH",
"48 50 OFFCURVE",
"117 -10 OFFCURVE",
"228 -10 CURVE SMOOTH"
);
},
{
closed = 1;
nodes = (
"174 65 OFFCURVE",
"133 98 OFFCURVE",
"133 149 CURVE SMOOTH",
"133 173 OFFCURVE",
"141 192 OFFCURVE",
"156 207 CURVE SMOOTH",
"175 225 OFFCURVE",
"205 238 OFFCURVE",
"247 246 CURVE SMOOTH",
"427 282 LINE",
"427 190 OFFCURVE",
"405 125 OFFCURVE",
"326 84 CURVE SMOOTH",
"301 71 OFFCURVE",
"272 65 OFFCURVE",
"238 65 CURVE SMOOTH"
);
}
);
width = 576;
},
{
anchors = (
{
name = bottom;
position = "{288, 0}";
},
{
name = ogonek;
position = "{496, 0}";
},
{
name = top;
position = "{288, 549}";
}
);
guideLines = (
{
angle = 270;
position = "{431, 347}";
}
);
layerId = "2F4EEC1B-9E89-4E08-AD53-AB625B6E887D";
paths = (
{
closed = 1;
nodes = (
"279 -10 OFFCURVE",
"320 2 OFFCURVE",
"355 23 CURVE SMOOTH",
"387 42 OFFCURVE",
"413 69 OFFCURVE",
"431 103 CURVE",
"431 0 LINE",
"496 0 LINE",
"496 328 LINE SMOOTH",
"496 403 OFFCURVE",
"478 462 OFFCURVE",
"440 502 CURVE SMOOTH",
"405 539 OFFCURVE",
"353 559 OFFCURVE",
"283 559 CURVE SMOOTH",
"177 559 OFFCURVE",
"85 498 OFFCURVE",
"68 389 CURVE",
"133 389 LINE",
"146 457 OFFCURVE",
"208 501 OFFCURVE",
"282 501 CURVE SMOOTH",
"333 501 OFFCURVE",
"370 488 OFFCURVE",
"394 461 CURVE SMOOTH",
"418 434 OFFCURVE",
"429 396 OFFCURVE",
"431 347 CURVE",
"235 308 LINE SMOOTH",
"197 300 OFFCURVE",
"146 288 OFFCURVE",
"107 261 CURVE SMOOTH",
"73 237 OFFCURVE",
"48 201 OFFCURVE",
"48 146 CURVE SMOOTH",
"48 45 OFFCURVE",
"127 -10 OFFCURVE",
"235 -10 CURVE SMOOTH"
);
},
{
closed = 1;
nodes = (
"164 48 OFFCURVE",
"113 83 OFFCURVE",
"113 146 CURVE SMOOTH",
"113 176 OFFCURVE",
"125 198 OFFCURVE",
"144 214 CURVE SMOOTH",
"168 234 OFFCURVE",
"203 244 OFFCURVE",
"236 251 CURVE SMOOTH",
"431 292 LINE",
"431 191 OFFCURVE",
"405 109 OFFCURVE",
"324 70 CURVE SMOOTH",
"294 55 OFFCURVE",
"263 48 OFFCURVE",
"230 48 CURVE SMOOTH"
);
}
);
width = 561;
}
);
leftKerningGroup = a;
note = a;
rightKerningGroup = a;
unicode = 0061;
},
{
glyphname = ae;
lastChange = "2020-04-16 05:56:52 +0000";
layers = (
{
anchors = (
{
name = bottom;
position = "{500, 0}";
},
{
name = top;
position = "{500, 549}";
}
);
layerId = "2F4EEC1B-9E89-4E08-AD53-AB625B6E887D";
paths = (
{
closed = 1;
nodes = (
"825 -10 OFFCURVE",
"909 71 OFFCURVE",
"941 173 CURVE",
"872 173 LINE",
"847 104 OFFCURVE",
"784 48 OFFCURVE",
"693 48 CURVE SMOOTH",
"609 48 OFFCURVE",
"541 101 OFFCURVE",
"511 187 CURVE SMOOTH",
"502 212 OFFCURVE",
"497 235 OFFCURVE",
"495 263 CURVE",
"953 263 LINE",
"953 274 OFFCURVE",
"953 286 OFFCURVE",
"952 297 CURVE SMOOTH",
"939 450 OFFCURVE",
"843 559 OFFCURVE",
"692 559 CURVE SMOOTH",
"530 559 OFFCURVE",
"431 426 OFFCURVE",
"431 274 CURVE SMOOTH",
"431 112 OFFCURVE",
"540 -10 OFFCURVE",
"693 -10 CURVE SMOOTH"
);
},
{
closed = 1;
nodes = (
"164 48 OFFCURVE",
"113 83 OFFCURVE",
"113 146 CURVE SMOOTH",
"113 176 OFFCURVE",
"125 198 OFFCURVE",
"144 214 CURVE SMOOTH",
"168 234 OFFCURVE",
"203 244 OFFCURVE",
"236 251 CURVE SMOOTH",
"431 292 LINE",
"431 191 OFFCURVE",
"405 109 OFFCURVE",
"324 70 CURVE SMOOTH",
"294 55 OFFCURVE",
"263 48 OFFCURVE",
"230 48 CURVE SMOOTH"
);
},
{
closed = 1;
nodes = (
"275 -10 OFFCURVE",
"316 0 OFFCURVE",
"353 23 CURVE SMOOTH",
"392 47 OFFCURVE",
"426 86 OFFCURVE",
"451 143 CURVE",
"496 143 LINE",
"496 328 LINE SMOOTH",
"496 403 OFFCURVE",
"478 462 OFFCURVE",
"440 502 CURVE SMOOTH",
"405 539 OFFCURVE",
"353 559 OFFCURVE",
"283 559 CURVE SMOOTH",
"177 559 OFFCURVE",
"85 498 OFFCURVE",
"68 389 CURVE",
"133 389 LINE",
"146 457 OFFCURVE",
"208 501 OFFCURVE",
"282 501 CURVE SMOOTH",
"333 501 OFFCURVE",
"370 488 OFFCURVE",
"394 461 CURVE SMOOTH",
"418 434 OFFCURVE",
"429 396 OFFCURVE",
"431 347 CURVE",
"235 308 LINE SMOOTH",
"197 300 OFFCURVE",
"146 288 OFFCURVE",
"107 261 CURVE SMOOTH",
"73 237 OFFCURVE",
"48 201 OFFCURVE",
"48 146 CURVE SMOOTH",
"48 45 OFFCURVE",
"127 -10 OFFCURVE",
"235 -10 CURVE SMOOTH"
);
},
{
closed = 1;
nodes = (
"502 338 OFFCURVE",
"509 366 OFFCURVE",
"519 388 CURVE SMOOTH",
"550 459 OFFCURVE",
"613 501 OFFCURVE",
"693 501 CURVE SMOOTH",
"772 501 OFFCURVE",
"840 458 OFFCURVE",
"872 384 CURVE SMOOTH",
"882 361 OFFCURVE",
"886 341 OFFCURVE",
"890 316 CURVE",
"499 316 LINE"
);
}
);
width = 1000;
},
{
anchors = (
{
name = bottom;
position = "{504, 0}";
},
{
name = top;
position = "{504, 553}";
}
);
layerId = "11907447-A26F-432E-A335-7727E0303767";
paths = (
{
closed = 1;
nodes = (
"833 -10 OFFCURVE",
"917 74 OFFCURVE",
"951 178 CURVE",
"860 178 LINE",
"836 117 OFFCURVE",
"779 65 OFFCURVE",
"695 65 CURVE SMOOTH",
"615 65 OFFCURVE",
"550 120 OFFCURVE",
"522 205 CURVE SMOOTH",
"516 222 OFFCURVE",
"512 243 OFFCURVE",
"511 260 CURVE",
"961 260 LINE",
"961 290 LINE SMOOTH",
"961 468 OFFCURVE",
"833 563 OFFCURVE",
"694 563 CURVE SMOOTH",
"523 563 OFFCURVE",
"427 425 OFFCURVE",
"427 275 CURVE SMOOTH",
"427 112 OFFCURVE",
"537 -10 OFFCURVE",
"696 -10 CURVE SMOOTH"
);
},
{
closed = 1;
nodes = (
"174 65 OFFCURVE",
"133 98 OFFCURVE",
"133 149 CURVE SMOOTH",
"133 173 OFFCURVE",
"141 192 OFFCURVE",
"156 207 CURVE SMOOTH",
"175 225 OFFCURVE",
"205 238 OFFCURVE",
"247 246 CURVE SMOOTH",
"427 282 LINE",
"427 190 OFFCURVE",
"405 125 OFFCURVE",
"326 84 CURVE SMOOTH",
"301 71 OFFCURVE",
"272 65 OFFCURVE",
"238 65 CURVE SMOOTH"
);
},
{
closed = 1;
nodes = (
"273 -10 OFFCURVE",
"320 -3 OFFCURVE",
"361 19 CURVE SMOOTH",
"400 40 OFFCURVE",
"434 74 OFFCURVE",
"456 127 CURVE",
"511 127 LINE",
"511 326 LINE SMOOTH",
"511 363 OFFCURVE",
"511 450 OFFCURVE",
"453 506 CURVE SMOOTH",
"414 544 OFFCURVE",
"355 563 OFFCURVE",
"291 563 CURVE SMOOTH",
"185 563 OFFCURVE",
"88 502 OFFCURVE",
"69 387 CURVE",
"154 387 LINE",
"167 449 OFFCURVE",
"222 488 OFFCURVE",
"290 488 CURVE SMOOTH",
"333 488 OFFCURVE",
"368 474 OFFCURVE",
"392 450 CURVE SMOOTH",
"415 427 OFFCURVE",
"426 394 OFFCURVE",
"426 351 CURVE",
"229 313 LINE SMOOTH",
"174 302 OFFCURVE",
"132 285 OFFCURVE",
"102 261 CURVE SMOOTH",
"66 233 OFFCURVE",
"48 194 OFFCURVE",
"48 147 CURVE SMOOTH",
"48 50 OFFCURVE",
"117 -10 OFFCURVE",
"228 -10 CURVE SMOOTH"
);
},
{
closed = 1;
nodes = (
"522 352 OFFCURVE",
"527 372 OFFCURVE",
"535 389 CURVE SMOOTH",
"565 452 OFFCURVE",
"622 488 OFFCURVE",
"696 488 CURVE SMOOTH",
"767 488 OFFCURVE",
"829 453 OFFCURVE",
"858 389 CURVE SMOOTH",
"865 373 OFFCURVE",
"869 353 OFFCURVE",
"870 335 CURVE",
"519 335 LINE"
);
}
);
width = 1008;
},
{
anchors = (
{
name = bottom;
position = "{502, 0}";
},
{
name = top;
position = "{502, 567}";
}
);
layerId = "FD6EB2BB-8839-4CDB-86BF-4EEAE3F02079";
paths = (
{
closed = 1;
nodes = (
"843 -12 OFFCURVE",
"930 84 OFFCURVE",
"962 196 CURVE",
"793 196 LINE",
"779 161 OFFCURVE",
"743 132 OFFCURVE",
"692 132 CURVE SMOOTH",
"650 132 OFFCURVE",
"616 145 OFFCURVE",
"592 175 CURVE SMOOTH",
"578 192 OFFCURVE",
"567 220 OFFCURVE",
"563 248 CURVE",
"971 248 LINE",
"971 277 LINE SMOOTH",
"971 496 OFFCURVE",
"827 579 OFFCURVE",
"678 579 CURVE SMOOTH",
"473 579 OFFCURVE",
"387 423 OFFCURVE",
"387 279 CURVE SMOOTH",
"387 111 OFFCURVE",
"503 -12 OFFCURVE",
"683 -12 CURVE SMOOTH"
);
},
{
closed = 1;
nodes = (
"232 115 OFFCURVE",
"201 129 OFFCURVE",
"201 165 CURVE SMOOTH",
"201 181 OFFCURVE",
"207 192 OFFCURVE",
"216 201 CURVE SMOOTH",
"230 214 OFFCURVE",
"248 221 OFFCURVE",
"285 228 CURVE SMOOTH",
"388 248 LINE",
"386 186 OFFCURVE",
"375 150 OFFCURVE",
"329 129 CURVE SMOOTH",
"309 120 OFFCURVE",
"287 115 OFFCURVE",
"268 115 CURVE SMOOTH"
);
},
{
closed = 1;
nodes = (
"275 -12 OFFCURVE",
"338 -3 OFFCURVE",
"385 33 CURVE SMOOTH",
"406 49 OFFCURVE",
"423 70 OFFCURVE",
"434 99 CURVE",
"552 99 LINE",
"552 269 LINE SMOOTH",
"552 374 OFFCURVE",
"552 463 OFFCURVE",
"482 523 CURVE SMOOTH",
"437 562 OFFCURVE",
"372 579 OFFCURVE",
"306 579 CURVE SMOOTH",
"192 579 OFFCURVE",
"75 520 OFFCURVE",
"54 378 CURVE",
"221 378 LINE",
"229 426 OFFCURVE",
"266 453 OFFCURVE",
"305 453 CURVE SMOOTH",
"330 453 OFFCURVE",
"349 447 OFFCURVE",
"362 433 CURVE SMOOTH",
"375 418 OFFCURVE",
"383 396 OFFCURVE",
"385 367 CURVE",
"238 341 LINE SMOOTH",
"195 333 OFFCURVE",
"144 322 OFFCURVE",
"104 296 CURVE SMOOTH",
"63 269 OFFCURVE",
"33 227 OFFCURVE",
"33 159 CURVE SMOOTH",
"33 45 OFFCURVE",
"117 -12 OFFCURVE",
"229 -12 CURVE SMOOTH"
);
},
{
closed = 1;
nodes = (
"570 380 OFFCURVE",
"575 399 OFFCURVE",
"594 418 CURVE SMOOTH",
"618 442 OFFCURVE",
"650 451 OFFCURVE",
"684 451 CURVE SMOOTH",
"718 451 OFFCURVE",
"750 442 OFFCURVE",
"774 418 CURVE SMOOTH",
"792 400 OFFCURVE",
"798 380 OFFCURVE",
"801 367 CURVE",
"568 367 LINE"
);
}
);
width = 1003;
}
);
leftKerningGroup = a;
leftMetricsKey = a;
rightKerningGroup = e;
rightMetricsKey = e;
unicode = 00E6;
},
{
color = 1;
glyphname = b;
lastChange = "2020-04-14 06:03:29 +0000";
layers = (
{
anchors = (
{
name = bottom;
position = "{312, 0}";
},
{
name = top;
position = "{312, 763}";
}
);
guideLines = (
{
angle = 270;
position = "{197, 0}";
}
);
layerId = "FD6EB2BB-8839-4CDB-86BF-4EEAE3F02079";
paths = (
{
closed = 1;
nodes = (
"513 -12 OFFCURVE",
"615 110 OFFCURVE",
"615 284 CURVE SMOOTH",
"615 457 OFFCURVE",
"513 579 OFFCURVE",
"368 579 CURVE SMOOTH",
"308 579 OFFCURVE",
"261 563 OFFCURVE",
"223 506 CURVE",
"223 763 LINE",
"55 763 LINE",
"55 0 LINE",
"223 0 LINE",
"223 61 LINE",
"261 4 OFFCURVE",
"308 -12 OFFCURVE",
"368 -12 CURVE SMOOTH"
);
},
{
closed = 1;
nodes = (
"247 131 OFFCURVE",
"197 192 OFFCURVE",
"197 284 CURVE SMOOTH",
"197 375 OFFCURVE",
"247 436 OFFCURVE",
"321 436 CURVE SMOOTH",
"396 436 OFFCURVE",
"445 373 OFFCURVE",
"445 284 CURVE SMOOTH",
"445 194 OFFCURVE",
"396 131 OFFCURVE",
"321 131 CURVE SMOOTH"
);
}
);
width = 649;
},
{
anchors = (
{
name = bottom;
position = "{306, 0}";
},
{
name = top;
position = "{317, 763}";
}
);
guideLines = (
{
position = "{108, 0}";
}
);
layerId = "11907447-A26F-432E-A335-7727E0303767";
paths = (
{
closed = 1;
nodes = (
"487 -10 OFFCURVE",
"584 107 OFFCURVE",
"584 276 CURVE SMOOTH",
"584 446 OFFCURVE",
"487 563 OFFCURVE",
"338 563 CURVE SMOOTH",
"264 563 OFFCURVE",
"214 541 OFFCURVE",
"157 467 CURVE",
"157 763 LINE",
"72 763 LINE",
"72 0 LINE",
"157 0 LINE",
"157 86 LINE",
"213 14 OFFCURVE",
"262 -10 OFFCURVE",
"338 -10 CURVE SMOOTH"
);
},
{
closed = 1;
nodes = (
"227 65 OFFCURVE",
"154 154 OFFCURVE",
"154 276 CURVE SMOOTH",
"154 399 OFFCURVE",
"227 488 OFFCURVE",
"330 488 CURVE SMOOTH",
"434 488 OFFCURVE",
"499 397 OFFCURVE",
"499 276 CURVE SMOOTH",
"499 156 OFFCURVE",
"434 65 OFFCURVE",
"330 65 CURVE SMOOTH"
);
}
);
width = 634;
},
{
anchors = (
{
name = bottom;
position = "{302, 0}";
},
{
name = top;
position = "{302, 763}";
}
);
layerId = "2F4EEC1B-9E89-4E08-AD53-AB625B6E887D";
paths = (
{
closed = 1;
nodes = (
"476 -10 OFFCURVE",
"573 108 OFFCURVE",
"573 274 CURVE SMOOTH",
"573 441 OFFCURVE",
"476 559 OFFCURVE",
"333 559 CURVE SMOOTH",
"253 559 OFFCURVE",
"186 519 OFFCURVE",
"137 447 CURVE",
"137 763 LINE",
"72 763 LINE",
"72 0 LINE",
"137 0 LINE",
"137 102 LINE",
"185 32 OFFCURVE",
"252 -10 OFFCURVE",
"333 -10 CURVE SMOOTH"
);
},
{
closed = 1;
nodes = (
"216 48 OFFCURVE",
"135 145 OFFCURVE",
"135 274 CURVE SMOOTH",
"135 404 OFFCURVE",
"216 501 OFFCURVE",
"327 501 CURVE SMOOTH",
"439 501 OFFCURVE",
"508 403 OFFCURVE",
"508 274 CURVE SMOOTH",
"508 146 OFFCURVE",
"439 48 OFFCURVE",
"327 48 CURVE SMOOTH"
);
}
);
width = 623;
}
);
leftKerningGroup = b;
note = b;
rightKerningGroup = b;
unicode = 0062;
},
{
color = 1;
glyphname = c;
lastChange = "2020-04-02 12:57:15 +0000";
layers = (
{
anchors = (
{
name = bottom;
position = "{317, 0}";
},
{
name = top;
position = "{317, 567}";
}
);
background = {
anchors = (
{
name = bottom;
position = "{317, 0}";
},
{
name = top;
position = "{317, 567}";
}
);
paths = (
{
closed = 1;
nodes = (
"467 -12 OFFCURVE",
"575 59 OFFCURVE",
"602 180 CURVE SMOOTH",
"604 190 OFFCURVE",
"598 196 OFFCURVE",
"587 196 CURVE SMOOTH",
"436 196 LINE SMOOTH",
"427 196 OFFCURVE",
"422 191 OFFCURVE",
"419 182 CURVE SMOOTH",
"408 144 OFFCURVE",
"372 122 OFFCURVE",
"327 122 CURVE SMOOTH",
"252 122 OFFCURVE",
"205 184 OFFCURVE",
"205 287 CURVE SMOOTH",
"205 386 OFFCURVE",
"252 447 OFFCURVE",
"327 447 CURVE SMOOTH",
"365 447 OFFCURVE",
"402 429 OFFCURVE",
"416 392 CURVE SMOOTH",
"420 383 OFFCURVE",
"425 378 OFFCURVE",
"434 378 CURVE SMOOTH",
"586 378 LINE SMOOTH",
"597 378 OFFCURVE",
"603 385 OFFCURVE",
"600 396 CURVE SMOOTH",
"572 508 OFFCURVE",
"468 581 OFFCURVE",
"327 581 CURVE SMOOTH",
"149 581 OFFCURVE",
"32 461 OFFCURVE",
"32 287 CURVE SMOOTH",
"32 106 OFFCURVE",
"150 -12 OFFCURVE",
"327 -12 CURVE SMOOTH"
);
}
);
};
layerId = "FD6EB2BB-8839-4CDB-86BF-4EEAE3F02079";
paths = (
{
closed = 1;
nodes = (
"469 -12 OFFCURVE",
"578 65 OFFCURVE",
"606 196 CURVE",
"423 196 LINE",
"412 149 OFFCURVE",
"384 122 OFFCURVE",
"327 122 CURVE SMOOTH",
"252 122 OFFCURVE",
"205 184 OFFCURVE",
"205 287 CURVE SMOOTH",
"205 386 OFFCURVE",
"252 446 OFFCURVE",
"327 446 CURVE SMOOTH",
"377 446 OFFCURVE",
"406 424 OFFCURVE",
"421 378 CURVE",
"605 378 LINE",
"576 501 OFFCURVE",
"470 579 OFFCURVE",
"327 579 CURVE SMOOTH",
"149 579 OFFCURVE",
"32 461 OFFCURVE",
"32 287 CURVE SMOOTH",
"32 106 OFFCURVE",
"150 -12 OFFCURVE",
"327 -12 CURVE SMOOTH"
);
}
);
width = 633;
},
{
anchors = (
{
name = bottom;
position = "{302, 0}";
},
{
name = top;
position = "{302, 553}";
}
);
layerId = "11907447-A26F-432E-A335-7727E0303767";
paths = (
{
closed = 1;
nodes = (
"440 -10 OFFCURVE",
"537 60 OFFCURVE",
"561 178 CURVE",
"470 178 LINE",
"452 110 OFFCURVE",
"393 65 OFFCURVE",
"316 65 CURVE SMOOTH",
"211 65 OFFCURVE",
"133 153 OFFCURVE",
"133 279 CURVE SMOOTH",
"133 401 OFFCURVE",
"211 488 OFFCURVE",
"316 488 CURVE SMOOTH",
"387 488 OFFCURVE",
"445 449 OFFCURVE",
"466 387 CURVE",
"557 387 LINE",
"532 494 OFFCURVE",
"440 563 OFFCURVE",
"316 563 CURVE SMOOTH",
"158 563 OFFCURVE",
"48 443 OFFCURVE",
"48 279 CURVE SMOOTH",
"48 110 OFFCURVE",
"159 -10 OFFCURVE",
"316 -10 CURVE SMOOTH"
);
}
);
width = 602;
},
{
anchors = (
{
name = bottom;
position = "{314, 0}";
},
{
name = top;
position = "{314, 549}";
}
);
layerId = "2F4EEC1B-9E89-4E08-AD53-AB625B6E887D";
paths = (
{
closed = 1;
nodes = (
"431 -10 OFFCURVE",
"525 61 OFFCURVE",
"548 173 CURVE",
"477 173 LINE",
"461 99 OFFCURVE",
"396 48 OFFCURVE",
"310 48 CURVE SMOOTH",
"196 48 OFFCURVE",
"113 143 OFFCURVE",
"113 277 CURVE SMOOTH",
"113 407 OFFCURVE",
"196 501 OFFCURVE",
"310 501 CURVE SMOOTH",
"390 501 OFFCURVE",
"454 457 OFFCURVE",
"474 389 CURVE",
"544 389 LINE",
"519 492 OFFCURVE",
"429 559 OFFCURVE",
"310 559 CURVE SMOOTH",
"157 559 OFFCURVE",
"48 438 OFFCURVE",
"48 277 CURVE SMOOTH",
"48 111 OFFCURVE",
"157 -10 OFFCURVE",
"310 -10 CURVE SMOOTH"
);
}
);
width = 591;
}
);
leftKerningGroup = c;
note = c;
rightKerningGroup = c;
unicode = 0063;
},
{
color = 1;
glyphname = eth;
lastChange = "2020-04-02 12:57:45 +0000";
layers = (
{
layerId = "2F4EEC1B-9E89-4E08-AD53-AB625B6E887D";
paths = (
{
closed = 1;
nodes = (
"473 -10 OFFCURVE",
"546 158 OFFCURVE",
"546 370 CURVE SMOOTH",
"546 490 OFFCURVE",
"523 601 OFFCURVE",
"467 677 CURVE",
"535 716 LINE",
"512 756 LINE",
"437 712 LINE",
"395 749 OFFCURVE",
"341 771 OFFCURVE",
"272 771 CURVE SMOOTH",
"216 771 OFFCURVE",
"167 757 OFFCURVE",
"130 732 CURVE",
"162 682 LINE",
"193 702 OFFCURVE",
"230 713 OFFCURVE",
"272 713 CURVE SMOOTH",
"313 713 OFFCURVE",
"349 701 OFFCURVE",
"379 678 CURVE",
"229 593 LINE",
"252 553 LINE",
"415 646 LINE",
"465 586 OFFCURVE",
"487 462 OFFCURVE",
"483 371 CURVE",
"449 435 OFFCURVE",
"371 487 OFFCURVE",
"271 487 CURVE SMOOTH",
"129 487 OFFCURVE",
"36 385 OFFCURVE",
"36 244 CURVE SMOOTH",
"36 102 OFFCURVE",
"132 -10 OFFCURVE",
"273 -10 CURVE SMOOTH"
);
},
{
closed = 1;
nodes = (
"170 48 OFFCURVE",
"101 138 OFFCURVE",
"101 245 CURVE SMOOTH",
"101 349 OFFCURVE",
"171 429 OFFCURVE",
"274 429 CURVE SMOOTH",
"383 429 OFFCURVE",
"465 348 OFFCURVE",
"465 245 CURVE SMOOTH",
"465 130 OFFCURVE",
"384 48 OFFCURVE",
"274 48 CURVE SMOOTH"
);
}
);
width = 600;
},
{
layerId = "11907447-A26F-432E-A335-7727E0303767";
paths = (
{
closed = 1;
nodes = (
"472 -9 OFFCURVE",
"554 149 OFFCURVE",
"554 369 CURVE SMOOTH",
"554 493 OFFCURVE",
"530 599 OFFCURVE",
"478 672 CURVE",
"540 708 LINE",
"508 763 LINE",
"433 720 LINE",
"392 753 OFFCURVE",
"341 772 OFFCURVE",
"275 772 CURVE SMOOTH",
"221 772 OFFCURVE",
"174 760 OFFCURVE",
"138 739 CURVE",
"183 672 LINE",
"208 688 OFFCURVE",
"239 697 OFFCURVE",
"275 697 CURVE SMOOTH",
"306 697 OFFCURVE",
"334 688 OFFCURVE",
"357 676 CURVE",
"225 600 LINE",
"257 545 LINE",
"409 632 LINE",
"451 576 OFFCURVE",
"469 489 OFFCURVE",
"470 394 CURVE",
"419 459 OFFCURVE",
"350 492 OFFCURVE",
"273 492 CURVE SMOOTH",
"127 492 OFFCURVE",
"32 392 OFFCURVE",
"32 247 CURVE SMOOTH",
"32 101 OFFCURVE",
"132 -9 OFFCURVE",
"277 -9 CURVE SMOOTH"
);
},
{
closed = 1;
nodes = (
"182 66 OFFCURVE",
"117 150 OFFCURVE",
"117 248 CURVE SMOOTH",
"117 344 OFFCURVE",
"183 417 OFFCURVE",
"281 417 CURVE SMOOTH",
"378 417 OFFCURVE",
"451 343 OFFCURVE",
"451 248 CURVE SMOOTH",
"451 144 OFFCURVE",
"379 66 OFFCURVE",
"278 66 CURVE SMOOTH"
);
}
);
width = 605;
},
{
background = {
paths = (
{
closed = 1;
nodes = (
"468 -17 OFFCURVE",
"584 107 OFFCURVE",
"584 365 CURVE SMOOTH",
"584 495 OFFCURVE",
"553 595 OFFCURVE",
"500 664 CURVE SMOOTH",
"493 672 OFFCURVE",
"495 680 OFFCURVE",
"504 686 CURVE SMOOTH",
"528 700 LINE SMOOTH",
"537 705 OFFCURVE",
"539 713 OFFCURVE",
"534 722 CURVE SMOOTH",
"518 749 LINE SMOOTH",
"513 758 OFFCURVE",
"505 760 OFFCURVE",
"496 755 CURVE SMOOTH",
"450 729 LINE SMOOTH",
"443 725 OFFCURVE",
"436 724 OFFCURVE",
"428 729 CURVE SMOOTH",
"377 762 OFFCURVE",
"315 779 OFFCURVE",
"244 779 CURVE SMOOTH",
"199 779 OFFCURVE",
"153 775 OFFCURVE",
"103 760 CURVE SMOOTH",
"92 757 OFFCURVE",
"89 748 OFFCURVE",
"94 739 CURVE SMOOTH",
"147 635 LINE SMOOTH",
"151 626 OFFCURVE",
"159 623 OFFCURVE",
"168 626 CURVE SMOOTH",
"191 632 OFFCURVE",
"213 634 OFFCURVE",
"234 634 CURVE SMOOTH",
"242 634 OFFCURVE",
"249 634 OFFCURVE",
"257 633 CURVE SMOOTH",
"267 632 OFFCURVE",
"263 621 OFFCURVE",
"250 613 CURVE SMOOTH",
"241 608 LINE SMOOTH",
"232 603 OFFCURVE",
"230 595 OFFCURVE",
"235 586 CURVE SMOOTH",
"251 559 LINE SMOOTH",
"256 550 OFFCURVE",
"264 548 OFFCURVE",
"273 553 CURVE SMOOTH",
"340 592 LINE SMOOTH",
"348 596 OFFCURVE",
"356 597 OFFCURVE",
"363 591 CURVE SMOOTH",
"394 563 OFFCURVE",
"415 525 OFFCURVE",
"421 479 CURVE SMOOTH",
"423 463 OFFCURVE",
"411 458 OFFCURVE",
"399 468 CURVE SMOOTH",
"356 501 OFFCURVE",
"304 511 OFFCURVE",
"261 511 CURVE SMOOTH",
"118 511 OFFCURVE",
"14 421 OFFCURVE",
"14 260 CURVE SMOOTH",
"14 93 OFFCURVE",
"129 -17 OFFCURVE",
"289 -17 CURVE SMOOTH"
);
},
{
closed = 1;
nodes = (
"226 138 OFFCURVE",
"174 190 OFFCURVE",
"174 260 CURVE SMOOTH",
"174 325 OFFCURVE",
"226 377 OFFCURVE",
"292 377 CURVE SMOOTH",
"359 377 OFFCURVE",
"411 325 OFFCURVE",
"411 260 CURVE SMOOTH",
"411 190 OFFCURVE",
"359 138 OFFCURVE",
"292 138 CURVE SMOOTH"
);
}
);
};
layerId = "FD6EB2BB-8839-4CDB-86BF-4EEAE3F02079";
paths = (
{
closed = 1;
nodes = (
"468 -17 OFFCURVE",
"584 107 OFFCURVE",
"584 365 CURVE SMOOTH",
"584 504 OFFCURVE",
"549 608 OFFCURVE",
"489 677 CURVE",
"542 708 LINE",
"510 763 LINE",
"438 722 LINE",
"385 760 OFFCURVE",
"320 779 OFFCURVE",
"244 779 CURVE SMOOTH",
"194 779 OFFCURVE",
"143 774 OFFCURVE",
"86 755 CURVE",
"154 622 LINE",
"182 631 OFFCURVE",
"209 634 OFFCURVE",
"234 634 CURVE SMOOTH",
"250 634 OFFCURVE",
"264 634 OFFCURVE",
"281 630 CURVE",
"227 600 LINE",
"259 545 LINE",
"353 600 LINE",
"397 565 OFFCURVE",
"425 512 OFFCURVE",
"422 446 CURVE",
"375 496 OFFCURVE",
"312 511 OFFCURVE",
"261 511 CURVE SMOOTH",
"118 511 OFFCURVE",
"14 421 OFFCURVE",
"14 260 CURVE SMOOTH",
"14 93 OFFCURVE",
"129 -17 OFFCURVE",
"289 -17 CURVE SMOOTH"
);
},
{
closed = 1;
nodes = (
"226 138 OFFCURVE",
"174 190 OFFCURVE",
"174 260 CURVE SMOOTH",
"174 325 OFFCURVE",
"226 377 OFFCURVE",
"292 377 CURVE SMOOTH",
"359 377 OFFCURVE",
"411 325 OFFCURVE",
"411 260 CURVE SMOOTH",
"411 190 OFFCURVE",
"359 138 OFFCURVE",
"292 138 CURVE SMOOTH"
);
}
);
width = 620;
}
);
unicode = 00F0;
},
{
color = 1;
glyphname = e;
lastChange = "2020-07-09 08:27:20 +0000";
layers = (
{
anchors = (
{
name = bottom;
position = "{325, 0}";
},
{
name = ogonek;
position = "{411, 0}";
},
{
name = top;
position = "{325, 567}";
}
);
background = {
paths = (
{
closed = 1;
nodes = (
"488 -12 OFFCURVE",
"575 84 OFFCURVE",
"607 196 CURVE",
"438 196 LINE",
"424 161 OFFCURVE",
"388 132 OFFCURVE",
"337 132 CURVE SMOOTH",
"295 132 OFFCURVE",
"261 145 OFFCURVE",
"237 175 CURVE SMOOTH",
"214 203 OFFCURVE",
"219 231 OFFCURVE",
"197 237 CURVE",
"201 248 LINE",
"616 248 LINE",
"616 277 LINE SMOOTH",
"616 496 OFFCURVE",
"472 579 OFFCURVE",
"323 579 CURVE SMOOTH",
"118 579 OFFCURVE",
"32 423 OFFCURVE",
"32 279 CURVE SMOOTH",
"32 111 OFFCURVE",
"148 -12 OFFCURVE",
"328 -12 CURVE SMOOTH"
);
},
{
closed = 1;
nodes = (
"203 370 LINE",
"223 376 OFFCURVE",
"211 390 OFFCURVE",
"239 418 CURVE SMOOTH",
"263 442 OFFCURVE",
"295 451 OFFCURVE",
"329 451 CURVE SMOOTH",
"363 451 OFFCURVE",
"395 442 OFFCURVE",
"419 418 CURVE SMOOTH",
"447 390 OFFCURVE",
"435 376 OFFCURVE",
"455 370 CURVE",
"454 367 LINE",
"204 367 LINE"
);
}
);
};
layerId = "FD6EB2BB-8839-4CDB-86BF-4EEAE3F02079";
paths = (
{
closed = 1;
nodes = (
"488 -12 OFFCURVE",
"575 84 OFFCURVE",
"607 196 CURVE",
"438 196 LINE",
"424 161 OFFCURVE",
"388 132 OFFCURVE",
"337 132 CURVE SMOOTH",
"295 132 OFFCURVE",
"261 145 OFFCURVE",
"237 175 CURVE SMOOTH",
"223 192 OFFCURVE",
"212 220 OFFCURVE",
"208 248 CURVE",
"616 248 LINE",
"616 277 LINE SMOOTH",
"616 496 OFFCURVE",
"472 579 OFFCURVE",
"323 579 CURVE SMOOTH",
"118 579 OFFCURVE",
"32 423 OFFCURVE",
"32 279 CURVE SMOOTH",
"32 111 OFFCURVE",
"148 -12 OFFCURVE",
"328 -12 CURVE SMOOTH"
);
},
{
closed = 1;
nodes = (
"215 380 OFFCURVE",
"220 399 OFFCURVE",
"239 418 CURVE SMOOTH",
"263 442 OFFCURVE",
"295 451 OFFCURVE",
"329 451 CURVE SMOOTH",
"363 451 OFFCURVE",
"395 442 OFFCURVE",
"419 418 CURVE SMOOTH",
"437 400 OFFCURVE",
"443 380 OFFCURVE",
"446 367 CURVE",
"213 367 LINE"
);
}
);
width = 648;
},
{
anchors = (
{
name = bottom;
position = "{314, 0}";
},
{
name = ogonek;
position = "{380, 0}";
},
{
name = top;
position = "{314, 553}";
}
);
background = {
paths = (
{
closed = 1;
nodes = (
"454 -10 OFFCURVE",
"538 74 OFFCURVE",
"572 178 CURVE",
"481 178 LINE",
"457 117 OFFCURVE",
"400 65 OFFCURVE",
"316 65 CURVE SMOOTH",
"236 65 OFFCURVE",
"171 120 OFFCURVE",
"143 205 CURVE SMOOTH",
"134 232 OFFCURVE",
"137 243 OFFCURVE",
"119 246 CURVE",
"122 262 LINE",
"100 260 LINE",
"582 260 LINE",
"582 290 LINE SMOOTH",
"582 468 OFFCURVE",
"454 563 OFFCURVE",
"315 563 CURVE SMOOTH",
"144 563 OFFCURVE",
"48 425 OFFCURVE",
"48 275 CURVE SMOOTH",
"48 112 OFFCURVE",
"158 -10 OFFCURVE",
"317 -10 CURVE SMOOTH"
);
},
{
closed = 1;
nodes = (
"128 328 LINE",
"154 348 OFFCURVE",
"137 350 OFFCURVE",
"156 389 CURVE SMOOTH",
"186 452 OFFCURVE",
"243 488 OFFCURVE",
"317 488 CURVE SMOOTH",
"388 488 OFFCURVE",
"450 453 OFFCURVE",
"479 389 CURVE SMOOTH",
"497 350 OFFCURVE",
"481 348 OFFCURVE",
"506 328 CURVE",
"495 316 LINE",
"525 335 LINE",
"114 335 LINE",
"139 316 LINE"
);
}
);
};
layerId = "11907447-A26F-432E-A335-7727E0303767";
paths = (
{
closed = 1;
nodes = (
"454 -10 OFFCURVE",
"538 74 OFFCURVE",
"572 178 CURVE",
"481 178 LINE",
"457 117 OFFCURVE",
"400 65 OFFCURVE",
"316 65 CURVE SMOOTH",
"236 65 OFFCURVE",
"171 120 OFFCURVE",
"143 205 CURVE SMOOTH",
"137 222 OFFCURVE",
"133 243 OFFCURVE",
"132 260 CURVE",
"582 260 LINE",
"582 290 LINE SMOOTH",
"582 468 OFFCURVE",
"454 563 OFFCURVE",
"315 563 CURVE SMOOTH",
"144 563 OFFCURVE",
"48 425 OFFCURVE",
"48 275 CURVE SMOOTH",
"48 112 OFFCURVE",
"158 -10 OFFCURVE",
"317 -10 CURVE SMOOTH"
);
},
{
closed = 1;
nodes = (
"143 352 OFFCURVE",
"148 372 OFFCURVE",
"156 389 CURVE SMOOTH",
"186 452 OFFCURVE",
"243 488 OFFCURVE",
"317 488 CURVE SMOOTH",
"388 488 OFFCURVE",
"450 453 OFFCURVE",
"479 389 CURVE SMOOTH",
"486 373 OFFCURVE",
"490 353 OFFCURVE",
"491 335 CURVE",
"140 335 LINE"
);
}
);
width = 629;
},
{
anchors = (
{
name = bottom;
position = "{308, 0}";
},
{
name = ogonek;
position = "{364, 0}";
},
{
name = top;
position = "{308, 549}";
}
);
background = {
paths = (
{
closed = 1;
nodes = (
"442 -10 OFFCURVE",
"526 71 OFFCURVE",
"558 173 CURVE",
"489 173 LINE",
"464 104 OFFCURVE",
"401 48 OFFCURVE",
"310 48 CURVE SMOOTH",
"226 48 OFFCURVE",
"157 101 OFFCURVE",
"128 187 CURVE SMOOTH",
"116 222 OFFCURVE",
"119 245 OFFCURVE",
"100 250 CURVE",
"104 265 LINE",
"83 263 LINE",
"570 263 LINE",
"570 274 OFFCURVE",
"570 284 OFFCURVE",
"569 293 CURVE SMOOTH",
"560 461 OFFCURVE",
"446 559 OFFCURVE",
"309 559 CURVE SMOOTH",
"147 559 OFFCURVE",
"48 426 OFFCURVE",
"48 274 CURVE SMOOTH",
"48 112 OFFCURVE",
"157 -10 OFFCURVE",
"310 -10 CURVE SMOOTH"
);
},
{
closed = 1;
nodes = (
"108 317 LINE",
"122 329 OFFCURVE",
"120 352 OFFCURVE",
"136 388 CURVE SMOOTH",
"167 459 OFFCURVE",
"230 501 OFFCURVE",
"310 501 CURVE SMOOTH",
"389 501 OFFCURVE",
"458 458 OFFCURVE",
"489 384 CURVE SMOOTH",
"503 350 OFFCURVE",
"501 329 OFFCURVE",
"514 317 CURVE",
"504 303 LINE",
"537 316 LINE",
"78 316 LINE",
"117 303 LINE"
);
}
);
};
layerId = "2F4EEC1B-9E89-4E08-AD53-AB625B6E887D";
paths = (
{
closed = 1;
nodes = (
"442 -10 OFFCURVE",
"526 71 OFFCURVE",
"558 173 CURVE",
"489 173 LINE",
"464 104 OFFCURVE",
"401 48 OFFCURVE",
"310 48 CURVE SMOOTH",
"226 48 OFFCURVE",
"158 101 OFFCURVE",
"128 187 CURVE SMOOTH",
"119 212 OFFCURVE",
"114 235 OFFCURVE",
"112 263 CURVE",
"570 263 LINE",
"570 274 OFFCURVE",
"570 286 OFFCURVE",
"569 297 CURVE SMOOTH",
"556 450 OFFCURVE",
"460 559 OFFCURVE",
"309 559 CURVE SMOOTH",
"147 559 OFFCURVE",
"48 426 OFFCURVE",
"48 274 CURVE SMOOTH",
"48 112 OFFCURVE",
"157 -10 OFFCURVE",
"310 -10 CURVE SMOOTH"
);
},
{
closed = 1;
nodes = (
"119 338 OFFCURVE",
"126 366 OFFCURVE",
"136 388 CURVE SMOOTH",
"167 459 OFFCURVE",
"230 501 OFFCURVE",
"310 501 CURVE SMOOTH",
"389 501 OFFCURVE",
"457 458 OFFCURVE",
"489 384 CURVE SMOOTH",
"499 361 OFFCURVE",
"503 341 OFFCURVE",
"507 316 CURVE",
"116 316 LINE"
);
}
);
width = 617;
}
);
leftKerningGroup = c;
note = e;
rightKerningGroup = o;
unicode = 0065;
},
{
color = 1;
glyphname = f;
lastChange = "2020-04-14 06:07:49 +0000";
layers = (
{
anchors = (
{
name = bottom;
position = "{188, 0}";
},
{
name = top;
position = "{188, 763}";
}
);
layerId = "FD6EB2BB-8839-4CDB-86BF-4EEAE3F02079";
paths = (
{
closed = 1;
nodes = (
"272 0 LINE",
"272 437 LINE",
"357 437 LINE",
"357 567 LINE",
"272 567 LINE",
"272 597 LINE SMOOTH",
"272 628 OFFCURVE",
"292 634 OFFCURVE",
"305 634 CURVE SMOOTH",
"357 634 LINE",
"357 763 LINE",
"264 763 LINE SMOOTH",
"160 763 OFFCURVE",
"102 711 OFFCURVE",
"102 622 CURVE SMOOTH",
"102 567 LINE",
"21 567 LINE",
"21 437 LINE",
"102 437 LINE",
"102 0 LINE"
);
}
);
width = 378;
},
{
anchors = (
{
name = bottom;
position = "{177, 0}";
},
{
name = top;
position = "{177, 763}";
}
);
layerId = "11907447-A26F-432E-A335-7727E0303767";
paths = (
{
closed = 1;
nodes = (
"203 0 LINE",
"203 478 LINE",
"332 478 LINE",
"332 553 LINE",
"203 553 LINE",
"203 602 LINE SMOOTH",
"203 661 OFFCURVE",
"227 688 OFFCURVE",
"280 688 CURVE SMOOTH",
"332 688 LINE",
"332 763 LINE",
"261 763 LINE SMOOTH",
"166 763 OFFCURVE",
"118 711 OFFCURVE",
"118 613 CURVE SMOOTH",
"118 553 LINE",
"26 553 LINE",
"26 478 LINE",
"118 478 LINE",
"118 0 LINE"
);
}
);
width = 353;
},
{
anchors = (
{
name = bottom;
position = "{172, 0}";
},
{
name = top;
position = "{172, 763}";
}
);
layerId = "2F4EEC1B-9E89-4E08-AD53-AB625B6E887D";
paths = (
{
closed = 1;
nodes = (
"183 0 LINE",
"183 491 LINE",
"322 491 LINE",
"322 549 LINE",
"183 549 LINE",
"183 618 LINE SMOOTH",
"183 690 OFFCURVE",
"219 705 OFFCURVE",
"270 705 CURVE SMOOTH",
"322 705 LINE",
"322 763 LINE",
"256 763 LINE SMOOTH",
"164 763 OFFCURVE",
"118 711 OFFCURVE",
"118 611 CURVE SMOOTH",
"118 549 LINE",
"26 549 LINE",
"26 491 LINE",
"118 491 LINE",
"118 0 LINE"
);
}
);
width = 343;
}
);
leftKerningGroup = f;
note = f;
rightKerningGroup = f;
unicode = 0066;
},
{
color = 1;
glyphname = g;
lastChange = "2020-04-14 06:08:57 +0000";
layers = (
{
anchors = (
{
name = bottom;
position = "{325, -237}";
},
{
name = top;
position = "{325, 567}";
}
);
background = {
components = (
{
name = q;
transform = "{1, 0, 0, 1, 1, 0}";
}
);
guideLines = (
{
angle = 270;
position = "{442, 567}";
}
);
};
guideLines = (
{
angle = 270;
position = "{442, 567}";
}
);
layerId = "FD6EB2BB-8839-4CDB-86BF-4EEAE3F02079";
paths = (
{
closed = 1;
nodes = (
"472 -208 OFFCURVE",
"595 -155 OFFCURVE",
"595 48 CURVE SMOOTH",
"595 567 LINE",
"427 567 LINE",
"427 506 LINE",
"389 563 OFFCURVE",
"342 579 OFFCURVE",
"282 579 CURVE SMOOTH",
"137 579 OFFCURVE",
"35 457 OFFCURVE",
"35 293 CURVE SMOOTH",
"35 130 OFFCURVE",
"137 8 OFFCURVE",
"282 8 CURVE SMOOTH",
"342 8 OFFCURVE",
"389 24 OFFCURVE",
"427 81 CURVE",
"427 5 LINE SMOOTH",
"427 -42 OFFCURVE",
"397 -83 OFFCURVE",
"321 -83 CURVE SMOOTH",
"271 -83 OFFCURVE",
"239 -68 OFFCURVE",
"221 -20 CURVE",
"53 -20 LINE",
"78 -173 OFFCURVE",
"205 -208 OFFCURVE",
"322 -208 CURVE SMOOTH"
);
},
{
closed = 1;
nodes = (
"253 151 OFFCURVE",
"205 214 OFFCURVE",
"205 293 CURVE SMOOTH",
"205 373 OFFCURVE",
"254 436 OFFCURVE",
"329 436 CURVE SMOOTH",
"403 436 OFFCURVE",
"453 375 OFFCURVE",
"453 293 CURVE SMOOTH",
"453 212 OFFCURVE",
"403 151 OFFCURVE",
"329 151 CURVE SMOOTH"
);
}
);
width = 650;
},
{
anchors = (
{
name = bottom;
position = "{318, -237}";
},
{
name = top;
position = "{318, 553}";
}
);
background = {
components = (
{
name = q;
transform = "{1, 0, 0, 1, 2, 0}";
}
);
};
layerId = "11907447-A26F-432E-A335-7727E0303767";
paths = (
{
closed = 1;
nodes = (
"460 -220 OFFCURVE",
"564 -161 OFFCURVE",
"564 19 CURVE SMOOTH",
"564 553 LINE",
"479 553 LINE",
"479 467 LINE",
"423 539 OFFCURVE",
"374 563 OFFCURVE",
"297 563 CURVE SMOOTH",
"149 563 OFFCURVE",
"52 446 OFFCURVE",
"52 274 CURVE SMOOTH",
"52 107 OFFCURVE",
"149 -10 OFFCURVE",
"298 -10 CURVE SMOOTH",
"372 -10 OFFCURVE",
"422 12 OFFCURVE",
"479 86 CURVE",
"479 3 LINE SMOOTH",
"479 -89 OFFCURVE",
"430 -145 OFFCURVE",
"314 -145 CURVE SMOOTH",
"223 -145 OFFCURVE",
"172 -111 OFFCURVE",
"155 -45 CURVE",
"68 -45 LINE",
"90 -179 OFFCURVE",
"203 -220 OFFCURVE",
"315 -220 CURVE SMOOTH"
);
},
{
closed = 1;
nodes = (
"202 65 OFFCURVE",
"137 156 OFFCURVE",
"137 277 CURVE SMOOTH",
"137 397 OFFCURVE",
"202 488 OFFCURVE",
"306 488 CURVE SMOOTH",
"408 488 OFFCURVE",
"482 399 OFFCURVE",
"482 277 CURVE SMOOTH",
"482 154 OFFCURVE",
"409 65 OFFCURVE",
"306 65 CURVE SMOOTH"
);
}
);
width = 635;
},
{
anchors = (
{
name = bottom;
position = "{311, -237}";
},
{
name = top;
position = "{322, 549}";
}
);
background = {
components = (
{
name = q;
}
);
};
layerId = "2F4EEC1B-9E89-4E08-AD53-AB625B6E887D";
paths = (
{
closed = 1;
nodes = (
"458 -224 OFFCURVE",
"551 -161 OFFCURVE",
"551 7 CURVE SMOOTH",
"551 549 LINE",
"486 549 LINE",
"486 447 LINE",
"438 517 OFFCURVE",
"371 559 OFFCURVE",
"290 559 CURVE SMOOTH",
"147 559 OFFCURVE",
"50 441 OFFCURVE",
"50 276 CURVE SMOOTH",
"50 109 OFFCURVE",
"147 -10 OFFCURVE",
"290 -10 CURVE SMOOTH",
"370 -10 OFFCURVE",
"437 30 OFFCURVE",
"486 102 CURVE",
"486 -4 LINE SMOOTH",
"486 -108 OFFCURVE",
"434 -166 OFFCURVE",
"307 -166 CURVE SMOOTH",
"203 -166 OFFCURVE",
"153 -129 OFFCURVE",
"131 -56 CURVE",
"66 -56 LINE",
"98 -177 OFFCURVE",
"187 -224 OFFCURVE",
"308 -224 CURVE SMOOTH"
);
},
{
closed = 1;
nodes = (
"184 48 OFFCURVE",
"115 146 OFFCURVE",
"115 274 CURVE SMOOTH",
"115 403 OFFCURVE",
"182 501 OFFCURVE",
"296 501 CURVE SMOOTH",
"407 501 OFFCURVE",
"488 404 OFFCURVE",
"488 274 CURVE SMOOTH",
"488 145 OFFCURVE",
"407 48 OFFCURVE",
"296 48 CURVE SMOOTH"
);
}
);
width = 622;
}
);
leftKerningGroup = c;
note = g;
rightKerningGroup = g;
rightMetricsKey = u;
unicode = 0067;
},
{
color = 1;
glyphname = h;
lastChange = "2020-04-14 07:31:42 +0000";
layers = (
{
anchors = (
{
name = bottom;
position = "{312, 0}";
},
{
name = center;
position = "{145, 660}";
},
{
name = top;
position = "{139, 763}";
}
);
layerId = "FD6EB2BB-8839-4CDB-86BF-4EEAE3F02079";
paths = (
{
closed = 1;
nodes = (
"223 0 LINE",
"223 319 LINE SMOOTH",
"223 368 OFFCURVE",
"230 396 OFFCURVE",
"244 415 CURVE SMOOTH",
"259 436 OFFCURVE",
"284 444 OFFCURVE",
"319 444 CURVE SMOOTH",
"347 444 OFFCURVE",
"367 438 OFFCURVE",
"381 423 CURVE SMOOTH",
"398 405 OFFCURVE",
"405 375 OFFCURVE",
"405 319 CURVE SMOOTH",
"405 0 LINE",
"573 0 LINE",
"573 317 LINE SMOOTH",
"573 387 OFFCURVE",
"573 432 OFFCURVE",
"551 481 CURVE SMOOTH",
"528 533 OFFCURVE",
"480 579 OFFCURVE",
"368 579 CURVE SMOOTH",
"308 579 OFFCURVE",
"261 563 OFFCURVE",
"223 506 CURVE",
"223 763 LINE",
"55 763 LINE",
"55 0 LINE"
);
}
);
width = 624;
},
{
anchors = (
{
name = bottom;
position = "{290, 0}";
},
{
name = center;
position = "{116, 660}";
},
{
name = top;
position = "{116, 763}";
}
);
layerId = "11907447-A26F-432E-A335-7727E0303767";
paths = (
{
closed = 1;
nodes = (
"157 0 LINE",
"157 236 LINE SMOOTH",
"157 349 OFFCURVE",
"171 409 OFFCURVE",
"207 447 CURVE SMOOTH",
"230 472 OFFCURVE",
"263 488 OFFCURVE",
"308 488 CURVE SMOOTH",
"346 488 OFFCURVE",
"374 478 OFFCURVE",
"393 457 CURVE SMOOTH",
"415 432 OFFCURVE",
"425 392 OFFCURVE",
"425 333 CURVE SMOOTH",
"425 0 LINE",
"510 0 LINE",
"510 333 LINE SMOOTH",
"510 368 OFFCURVE",
"510 426 OFFCURVE",
"484 476 CURVE SMOOTH",
"457 527 OFFCURVE",
"408 563 OFFCURVE",
"321 563 CURVE SMOOTH",
"261 563 OFFCURVE",
"213 539 OFFCURVE",
"157 467 CURVE",
"157 763 LINE",
"72 763 LINE",
"72 0 LINE"
);
}
);
width = 577;
},
{
anchors = (
{
name = bottom;
position = "{276, 0}";
},
{
name = center;
position = "{105, 660}";
},
{
name = top;
position = "{105, 763}";
}
);
layerId = "2F4EEC1B-9E89-4E08-AD53-AB625B6E887D";
paths = (
{
closed = 1;
nodes = (
"137 0 LINE",
"137 217 LINE SMOOTH",
"137 343 OFFCURVE",
"159 413 OFFCURVE",
"198 456 CURVE SMOOTH",
"225 485 OFFCURVE",
"261 501 OFFCURVE",
"303 501 CURVE SMOOTH",
"348 501 OFFCURVE",
"382 484 OFFCURVE",
"403 450 CURVE SMOOTH",
"419 424 OFFCURVE",
"427 387 OFFCURVE",
"427 340 CURVE SMOOTH",
"427 0 LINE",
"492 0 LINE",
"492 337 LINE SMOOTH",
"492 374 OFFCURVE",
"492 428 OFFCURVE",
"465 475 CURVE SMOOTH",
"436 526 OFFCURVE",
"385 559 OFFCURVE",
"317 559 CURVE SMOOTH",
"240 559 OFFCURVE",
"182 528 OFFCURVE",
"137 457 CURVE",
"137 763 LINE",
"72 763 LINE",
"72 0 LINE"
);
}
);
width = 559;
}
);
leftKerningGroup = b;
leftMetricsKey = b;
note = h;
rightKerningGroup = h;
rightMetricsKey = m;
unicode = 0068;
},
{
color = 1;
glyphname = idotless;
lastChange = "2020-04-06 05:19:19 +0000";
layers = (
{
anchors = (
{
name = bottom;
position = "{139, 0}";
},
{
name = ogonek;
position = "{223, 0}";
},
{
name = top;
position = "{139, 567}";
}
);
background = {
anchors = (
{
name = bottom;
position = "{139, 0}";
},
{
name = ogonek;
position = "{207, 0}";
},
{
name = top;
position = "{139, 567}";
}
);
paths = (
{
closed = 1;
nodes = (
"207 0 LINE SMOOTH",
"217 0 OFFCURVE",
"223 6 OFFCURVE",
"223 16 CURVE SMOOTH",
"223 551 LINE SMOOTH",
"223 561 OFFCURVE",
"217 567 OFFCURVE",
"207 567 CURVE SMOOTH",
"71 567 LINE SMOOTH",
"61 567 OFFCURVE",
"55 561 OFFCURVE",
"55 551 CURVE SMOOTH",
"55 16 LINE SMOOTH",
"55 6 OFFCURVE",
"61 0 OFFCURVE",
"71 0 CURVE SMOOTH"
);
}
);
};
layerId = "FD6EB2BB-8839-4CDB-86BF-4EEAE3F02079";
paths = (
{
closed = 1;
nodes = (
"223 0 LINE",
"223 567 LINE",
"55 567 LINE",
"55 0 LINE"
);
}
);
width = 278;
},
{
anchors = (
{
name = bottom;
position = "{114, 0}";
},
{
name = ogonek;
position = "{156, 0}";
},
{
name = top;
position = "{114, 553}";
}
);
background = {
anchors = (
{
name = bottom;
position = "{113, 0}";
},
{
name = ogonek;
position = "{140, 0}";
},
{
name = top;
position = "{113, 553}";
}
);
paths = (
{
closed = 1;
nodes = (
"140 0 LINE SMOOTH",
"150 0 OFFCURVE",
"156 6 OFFCURVE",
"156 16 CURVE SMOOTH",
"156 537 LINE SMOOTH",
"156 547 OFFCURVE",
"150 553 OFFCURVE",
"140 553 CURVE SMOOTH",
"86 553 LINE SMOOTH",
"76 553 OFFCURVE",
"70 547 OFFCURVE",
"70 537 CURVE SMOOTH",
"70 16 LINE SMOOTH",
"70 6 OFFCURVE",
"76 0 OFFCURVE",
"86 0 CURVE SMOOTH"
);
}
);
};
layerId = "11907447-A26F-432E-A335-7727E0303767";
paths = (
{
closed = 1;
nodes = (
"156 0 LINE",
"156 553 LINE",
"71 553 LINE",
"71 0 LINE"
);
}
);
width = 227;
},
{
anchors = (
{
name = bottom;
position = "{105, 0}";
},
{
name = ogonek;
position = "{137, 0}";
},
{
name = top;
position = "{105, 549}";
}
);
background = {
anchors = (
{
name = bottom;
position = "{105, 0}";
},
{
name = ogonek;
position = "{127, 0}";
},
{
name = top;
position = "{105, 549}";
}
);
paths = (
{
closed = 1;
nodes = (
"127 0 LINE SMOOTH",
"133 0 OFFCURVE",
"137 4 OFFCURVE",
"137 10 CURVE SMOOTH",
"137 539 LINE SMOOTH",
"137 545 OFFCURVE",
"133 549 OFFCURVE",
"127 549 CURVE SMOOTH",
"82 549 LINE SMOOTH",
"76 549 OFFCURVE",
"72 545 OFFCURVE",
"72 539 CURVE SMOOTH",
"72 10 LINE SMOOTH",
"72 4 OFFCURVE",
"76 0 OFFCURVE",
"82 0 CURVE SMOOTH"
);
}
);
};
layerId = "2F4EEC1B-9E89-4E08-AD53-AB625B6E887D";
paths = (
{
closed = 1;
nodes = (
"137 0 LINE",
"137 549 LINE",
"72 549 LINE",
"72 0 LINE"
);
}
);
width = 209;
}
);
note = dotlessi;
unicode = 0131;
},
{
color = 1;
glyphname = jdotless;
lastChange = "2020-04-07 11:08:05 +0000";
layers = (
{
anchors = (
{
name = bottom;
position = "{139, -237}";
},
{
name = top;
position = "{139, 567}";
}
);
layerId = "FD6EB2BB-8839-4CDB-86BF-4EEAE3F02079";
paths = (
{
closed = 1;
nodes = (
"93 -196 LINE SMOOTH",
"176 -196 OFFCURVE",
"223 -154 OFFCURVE",
"223 -82 CURVE SMOOTH",
"223 567 LINE",
"55 567 LINE",
"55 -24 LINE SMOOTH",
"55 -55 OFFCURVE",
"35 -59 OFFCURVE",
"19 -59 CURVE SMOOTH",
"-33 -59 LINE",
"-33 -196 LINE"
);
}
);
width = 278;
},
{
anchors = (
{
name = bottom;
position = "{114, -237}";
},
{
name = top;
position = "{114, 553}";
}
);
background = {
paths = (
{
closed = 0;
nodes = (
"72 -48 LINE SMOOTH",
"72 -116 OFFCURVE",
"40 -132 OFFCURVE",
"-6 -132 CURVE SMOOTH",
"-58 -132 LINE",
"-58 -210 LINE",
"14 -210 LINE SMOOTH",
"108 -210 OFFCURVE",
"157 -159 OFFCURVE",
"157 -59 CURVE SMOOTH"
);
}
);
};
layerId = "11907447-A26F-432E-A335-7727E0303767";
paths = (
{
closed = 1;
nodes = (
"14 -210 LINE SMOOTH",
"108 -210 OFFCURVE",
"157 -159 OFFCURVE",
"157 -59 CURVE SMOOTH",
"157 553 LINE",
"72 553 LINE",
"72 -48 LINE SMOOTH",
"72 -116 OFFCURVE",
"40 -132 OFFCURVE",
"-6 -132 CURVE SMOOTH",
"-58 -132 LINE",
"-58 -210 LINE"
);
}
);
width = 228;
},
{
anchors = (
{
name = bottom;
position = "{105, -237}";
},
{
name = top;
position = "{105, 549}";
}
);
background = {
paths = (
{
closed = 0;
nodes = (
"72 -51 LINE SMOOTH",
"72 -128 OFFCURVE",
"40 -155 OFFCURVE",
"-16 -155 CURVE SMOOTH",
"-68 -155 LINE",
"-68 -214 LINE",
"-1 -214 LINE SMOOTH",
"90 -214 OFFCURVE",
"137 -163 OFFCURVE",
"137 -61 CURVE SMOOTH"
);
}
);
};
layerId = "2F4EEC1B-9E89-4E08-AD53-AB625B6E887D";
paths = (
{
closed = 1;
nodes = (
"-1 -214 LINE SMOOTH",
"90 -214 OFFCURVE",
"137 -163 OFFCURVE",
"137 -61 CURVE SMOOTH",
"137 549 LINE",
"72 549 LINE",
"72 -51 LINE SMOOTH",
"72 -128 OFFCURVE",
"40 -155 OFFCURVE",
"-16 -155 CURVE SMOOTH",
"-68 -155 LINE",
"-68 -214 LINE"
);
}
);
width = 209;
}
);
note = uni0237;
unicode = 0237;
},
{
color = 1;
glyphname = k;
lastChange = "2020-04-14 06:11:01 +0000";
layers = (
{
anchors = (
{
name = bottom;
position = "{308, 0}";
},
{
name = top;
position = "{308, 763}";
}
);
layerId = "FD6EB2BB-8839-4CDB-86BF-4EEAE3F02079";
paths = (
{
closed = 1;
nodes = (
"223 0 LINE",
"223 272 LINE",
"423 0 LINE",
"623 0 LINE",
"377 323 LINE",
"610 567 LINE",
"403 567 LINE",
"223 368 LINE",
"223 763 LINE",
"55 763 LINE",
"55 0 LINE"
);
}
);
width = 624;
},
{
anchors = (
{
name = bottom;
position = "{272, 0}";
},
{
name = top;
position = "{272, 763}";
}
);
layerId = "11907447-A26F-432E-A335-7727E0303767";
paths = (
{
closed = 1;
nodes = (
"157 0 LINE",
"157 289 LINE",
"427 0 LINE",
"543 0 LINE",
"247 310 LINE",
"518 553 LINE",
"400 553 LINE",
"157 332 LINE",
"157 763 LINE",
"72 763 LINE",
"72 0 LINE"
);
}
);
width = 554;
},
{
anchors = (
{
name = bottom;
position = "{256, 0}";
},
{
name = top;
position = "{256, 763}";
}
);
guideLines = (
{
angle = 270;
position = "{244, 299}";
}
);
layerId = "2F4EEC1B-9E89-4E08-AD53-AB625B6E887D";
paths = (
{
closed = 1;
nodes = (
"137 0 LINE",
"137 292 LINE",
"430 0 LINE",
"520 0 LINE",
"207 308 LINE",
"494 549 LINE",
"402 549 LINE",
"137 324 LINE",
"137 763 LINE",
"72 763 LINE",
"72 0 LINE"
);
}
);
width = 536;
}
);
leftKerningGroup = b;
leftMetricsKey = b;
note = k;
rightKerningGroup = k;
unicode = 006B;
},
{
color = 1;
glyphname = kgreenlandic;
lastChange = "2020-04-14 06:11:49 +0000";
layers = (
{
anchors = (
{
name = bottom;
position = "{312, 0}";
},
{
name = top;
position = "{312, 567}";
}
);
background = {
components = (
{
name = k;
}
);
};
layerId = "FD6EB2BB-8839-4CDB-86BF-4EEAE3F02079";
paths = (
{
closed = 1;
nodes = (
"223 0 LINE",
"223 272 LINE",
"423 0 LINE",
"623 0 LINE",
"377 323 LINE",
"610 567 LINE",
"403 567 LINE",
"223 368 LINE",
"223 567 LINE",
"55 567 LINE",
"55 0 LINE"
);
}
);
width = 624;
},
{
anchors = (
{
name = bottom;
position = "{277, 0}";
},
{
name = top;
position = "{277, 553}";
}
);
background = {
components = (
{
name = k;
transform = "{1, 0, 0, 1, 1, 0}";
}
);
};
layerId = "11907447-A26F-432E-A335-7727E0303767";
paths = (
{
closed = 1;
nodes = (
"157 0 LINE",
"157 289 LINE",
"427 0 LINE",
"543 0 LINE",
"247 310 LINE",
"518 553 LINE",
"400 553 LINE",
"157 332 LINE",
"157 553 LINE",
"72 553 LINE",
"72 0 LINE"
);
}
);
width = 554;
},
{
anchors = (
{
name = bottom;
position = "{268, 0}";
},
{
name = top;
position = "{268, 549}";
}
);
background = {
paths = (
{
closed = 0;
nodes = (
"137 763 LINE",
"72 763 LINE"
);
}
);
};
layerId = "2F4EEC1B-9E89-4E08-AD53-AB625B6E887D";
paths = (
{
closed = 1;
nodes = (
"137 0 LINE",
"137 292 LINE",
"430 0 LINE",
"520 0 LINE",
"207 308 LINE",
"494 549 LINE",
"402 549 LINE",
"137 324 LINE",
"137 549 LINE",
"72 549 LINE",
"72 0 LINE"
);
}
);
width = 536;
}
);
leftKerningGroup = b;
leftMetricsKey = k;
note = kgreenlandic;
rightKerningGroup = k;
rightMetricsKey = k;
unicode = 0138;
},
{
color = 1;
glyphname = l;
lastChange = "2020-04-02 13:04:28 +0000";
layers = (
{
anchors = (
{
name = bottom;
position = "{153, 0}";
},
{
name = center;
position = "{143, 464}";
},
{
name = top;
position = "{136, 763}";
},
{
name = topright;
position = "{258, 567}";
}
);
background = {
anchors = (
{
name = bottom;
position = "{153, 0}";
},
{
name = center;
position = "{143, 464}";
},
{
name = top;
position = "{153, 763}";
},
{
name = topright;
position = "{258, 567}";
}
);
paths = (
{
closed = 1;
nodes = (
"279 0 LINE SMOOTH",
"289 0 OFFCURVE",
"295 6 OFFCURVE",
"295 16 CURVE SMOOTH",
"295 120 LINE SMOOTH",
"295 130 OFFCURVE",
"289 136 OFFCURVE",
"279 136 CURVE SMOOTH",
"253 136 LINE SMOOTH",
"240 136 OFFCURVE",
"220 140 OFFCURVE",
"220 171 CURVE SMOOTH",
"220 747 LINE SMOOTH",
"220 757 OFFCURVE",
"214 763 OFFCURVE",
"204 763 CURVE SMOOTH",
"68 763 LINE SMOOTH",
"58 763 OFFCURVE",
"52 757 OFFCURVE",
"52 747 CURVE SMOOTH",
"52 113 LINE SMOOTH",
"52 41 OFFCURVE",
"99 0 OFFCURVE",
"182 0 CURVE SMOOTH"
);
}
);
};
layerId = "FD6EB2BB-8839-4CDB-86BF-4EEAE3F02079";
paths = (
{
closed = 1;
nodes = (
"295 0 LINE",
"295 136 LINE",
"253 136 LINE SMOOTH",
"240 136 OFFCURVE",
"220 140 OFFCURVE",
"220 171 CURVE SMOOTH",
"220 763 LINE",
"52 763 LINE",
"52 113 LINE SMOOTH",
"52 41 OFFCURVE",
"99 0 OFFCURVE",
"182 0 CURVE SMOOTH"
);
}
);
width = 318;
},
{
anchors = (
{
name = bottom;
position = "{126, 0}";
},
{
name = center;
position = "{126, 483}";
},
{
name = top;
position = "{112, 763}";
},
{
name = topright;
position = "{200, 553}";
}
);
background = {
anchors = (
{
name = bottom;
position = "{126, 0}";
},
{
name = center;
position = "{126, 483}";
},
{
name = top;
position = "{126, 763}";
},
{
name = topright;
position = "{200, 553}";
}
);
paths = (
{
closed = 1;
nodes = (
"231 0 LINE SMOOTH",
"241 0 OFFCURVE",
"247 6 OFFCURVE",
"247 16 CURVE SMOOTH",
"247 59 LINE SMOOTH",
"247 69 OFFCURVE",
"241 75 OFFCURVE",
"231 75 CURVE SMOOTH",
"220 75 LINE SMOOTH",
"158 75 OFFCURVE",
"155 103 OFFCURVE",
"155 152 CURVE SMOOTH",
"155 747 LINE SMOOTH",
"155 757 OFFCURVE",
"149 763 OFFCURVE",
"139 763 CURVE SMOOTH",
"85 763 LINE SMOOTH",
"75 763 OFFCURVE",
"69 757 OFFCURVE",
"69 747 CURVE SMOOTH",
"69 139 LINE SMOOTH",
"69 28 OFFCURVE",
"117 0 OFFCURVE",
"200 0 CURVE SMOOTH"
);
}
);
};
layerId = "11907447-A26F-432E-A335-7727E0303767";
paths = (
{
closed = 1;
nodes = (
"247 0 LINE",
"247 75 LINE",
"220 75 LINE SMOOTH",
"158 75 OFFCURVE",
"154 103 OFFCURVE",
"154 152 CURVE SMOOTH",
"154 763 LINE",
"69 763 LINE",
"69 139 LINE SMOOTH",
"69 28 OFFCURVE",
"117 0 OFFCURVE",
"200 0 CURVE SMOOTH"
);
}
);
width = 277;
},
{
anchors = (
{
name = bottom;
position = "{118, 0}";
},
{
name = center;
position = "{118, 487}";
},
{
name = top;
position = "{102, 763}";
},
{
name = topright;
position = "{183, 549}";
}
);
layerId = "2F4EEC1B-9E89-4E08-AD53-AB625B6E887D";
paths = (
{
closed = 1;
nodes = (
"233 0 LINE",
"233 58 LINE",
"197 58 LINE SMOOTH",
"140 58 OFFCURVE",
"134 85 OFFCURVE",
"134 138 CURVE SMOOTH",
"134 763 LINE",
"69 763 LINE",
"69 128 LINE SMOOTH",
"69 28 OFFCURVE",
"109 0 OFFCURVE",
"183 0 CURVE SMOOTH"
);
}
);
width = 263;
}
);
leftKerningGroup = b;
note = l;
rightKerningGroup = d;
unicode = 006C;
},
{
color = 1;
glyphname = m;
lastChange = "2020-04-14 06:14:12 +0000";
layers = (
{
anchors = (
{
name = bottom;
position = "{449, 0}";
},
{
name = top;
position = "{449, 567}";
}
);
layerId = "FD6EB2BB-8839-4CDB-86BF-4EEAE3F02079";
paths = (
{
closed = 1;
nodes = (
"223 0 LINE",
"223 328 LINE SMOOTH",
"223 379 OFFCURVE",
"230 405 OFFCURVE",
"245 423 CURVE SMOOTH",
"256 437 OFFCURVE",
"274 444 OFFCURVE",
"297 444 CURVE SMOOTH",
"346 444 OFFCURVE",
"371 422 OFFCURVE",
"371 359 CURVE SMOOTH",
"371 0 LINE",
"539 0 LINE",
"539 328 LINE SMOOTH",
"539 373 OFFCURVE",
"544 404 OFFCURVE",
"561 424 CURVE SMOOTH",
"572 437 OFFCURVE",
"590 444 OFFCURVE",
"614 444 CURVE SMOOTH",
"661 444 OFFCURVE",
"686 422 OFFCURVE",
"686 359 CURVE SMOOTH",
"686 0 LINE",
"854 0 LINE",
"854 374 LINE SMOOTH",
"854 497 OFFCURVE",
"797 579 OFFCURVE",
"669 579 CURVE SMOOTH",
"592 579 OFFCURVE",
"545 549 OFFCURVE",
"512 497 CURVE",
"492 551 OFFCURVE",
"443 579 OFFCURVE",
"368 579 CURVE SMOOTH",
"312 579 OFFCURVE",
"259 559 OFFCURVE",
"223 506 CURVE",
"223 567 LINE",
"55 567 LINE",
"55 0 LINE"
);
}
);
width = 905;
},
{
anchors = (
{
name = bottom;
position = "{450, 0}";
},
{
name = top;
position = "{446, 553}";
}
);
layerId = "11907447-A26F-432E-A335-7727E0303767";
paths = (
{
closed = 1;
nodes = (
"156 0 LINE",
"156 250 LINE SMOOTH",
"156 355 OFFCURVE",
"173 411 OFFCURVE",
"206 448 CURVE SMOOTH",
"228 473 OFFCURVE",
"259 488 OFFCURVE",
"296 488 CURVE SMOOTH",
"364 488 OFFCURVE",
"409 434 OFFCURVE",
"409 340 CURVE SMOOTH",
"409 0 LINE",
"494 0 LINE",
"494 250 LINE SMOOTH",
"494 345 OFFCURVE",
"506 409 OFFCURVE",
"545 451 CURVE SMOOTH",
"566 473 OFFCURVE",
"595 488 OFFCURVE",
"635 488 CURVE SMOOTH",
"705 488 OFFCURVE",
"747 436 OFFCURVE",
"747 340 CURVE SMOOTH",
"747 0 LINE",
"832 0 LINE",
"832 360 LINE SMOOTH",
"832 488 OFFCURVE",
"773 563 OFFCURVE",
"648 563 CURVE SMOOTH",
"580 563 OFFCURVE",
"514 541 OFFCURVE",
"473 461 CURVE",
"456 530 OFFCURVE",
"391 563 OFFCURVE",
"320 563 CURVE SMOOTH",
"260 563 OFFCURVE",
"212 539 OFFCURVE",
"156 467 CURVE",
"156 553 LINE",
"71 553 LINE",
"71 0 LINE"
);
}
);
width = 899;
},
{
anchors = (
{
name = bottom;
position = "{445, 0}";
},
{
name = top;
position = "{441, 549}";
}
);
layerId = "2F4EEC1B-9E89-4E08-AD53-AB625B6E887D";
paths = (
{
closed = 1;
nodes = (
"136 0 LINE",
"136 251 LINE SMOOTH",
"136 344 OFFCURVE",
"150 400 OFFCURVE",
"177 439 CURVE SMOOTH",
"204 478 OFFCURVE",
"243 501 OFFCURVE",
"294 501 CURVE SMOOTH",
"374 501 OFFCURVE",
"415 436 OFFCURVE",
"415 341 CURVE SMOOTH",
"415 0 LINE",
"480 0 LINE",
"480 251 LINE SMOOTH",
"480 344 OFFCURVE",
"495 400 OFFCURVE",
"521 440 CURVE SMOOTH",
"549 483 OFFCURVE",
"590 501 OFFCURVE",
"638 501 CURVE SMOOTH",
"723 501 OFFCURVE",
"757 433 OFFCURVE",
"757 341 CURVE SMOOTH",
"757 0 LINE",
"822 0 LINE",
"822 357 LINE SMOOTH",
"822 486 OFFCURVE",
"764 559 OFFCURVE",
"643 559 CURVE SMOOTH",
"568 559 OFFCURVE",
"498 524 OFFCURVE",
"463 444 CURVE",
"441 522 OFFCURVE",
"377 559 OFFCURVE",
"300 559 CURVE SMOOTH",
"220 559 OFFCURVE",
"162 517 OFFCURVE",
"136 467 CURVE",
"136 549 LINE",
"71 549 LINE",
"71 0 LINE"
);
}
);
width = 889;
}
);
leftKerningGroup = m;
note = m;
rightKerningGroup = h;
unicode = 006D;
},
{
color = 1;
glyphname = n;
lastChange = "2020-04-14 06:15:35 +0000";
layers = (
{
anchors = (
{
name = bottom;
position = "{312, 0}";
},
{
name = top;
position = "{312, 567}";
}
);
layerId = "FD6EB2BB-8839-4CDB-86BF-4EEAE3F02079";
paths = (
{
closed = 1;
nodes = (
"223 0 LINE",
"223 319 LINE SMOOTH",
"223 368 OFFCURVE",
"230 396 OFFCURVE",
"244 415 CURVE SMOOTH",
"259 436 OFFCURVE",
"284 444 OFFCURVE",
"319 444 CURVE SMOOTH",
"347 444 OFFCURVE",
"367 438 OFFCURVE",
"381 423 CURVE SMOOTH",
"398 405 OFFCURVE",
"405 375 OFFCURVE",
"405 319 CURVE SMOOTH",
"405 0 LINE",
"573 0 LINE",
"573 317 LINE SMOOTH",
"573 387 OFFCURVE",
"573 432 OFFCURVE",
"551 481 CURVE SMOOTH",
"528 533 OFFCURVE",
"480 579 OFFCURVE",
"368 579 CURVE SMOOTH",
"308 579 OFFCURVE",
"261 563 OFFCURVE",
"223 506 CURVE",
"223 567 LINE",
"55 567 LINE",
"55 0 LINE"
);
}
);
width = 624;
},
{
anchors = (
{
name = bottom;
position = "{289, 0}";
},
{
name = top;
position = "{289, 553}";
}
);
layerId = "11907447-A26F-432E-A335-7727E0303767";
paths = (
{
closed = 1;
nodes = (
"156 0 LINE",
"156 236 LINE SMOOTH",
"156 349 OFFCURVE",
"170 409 OFFCURVE",
"206 447 CURVE SMOOTH",
"229 472 OFFCURVE",
"262 488 OFFCURVE",
"307 488 CURVE SMOOTH",
"345 488 OFFCURVE",
"373 478 OFFCURVE",
"392 457 CURVE SMOOTH",
"414 432 OFFCURVE",
"424 392 OFFCURVE",
"424 333 CURVE SMOOTH",
"424 0 LINE",
"509 0 LINE",
"509 333 LINE SMOOTH",
"509 368 OFFCURVE",
"509 426 OFFCURVE",
"483 476 CURVE SMOOTH",
"456 527 OFFCURVE",
"407 563 OFFCURVE",
"320 563 CURVE SMOOTH",
"260 563 OFFCURVE",
"212 539 OFFCURVE",
"156 467 CURVE",
"156 553 LINE",
"71 553 LINE",
"71 0 LINE"
);
}
);
width = 576;
},
{
layerId = "2F4EEC1B-9E89-4E08-AD53-AB625B6E887D";
paths = (
{
closed = 1;
nodes = (
"136 0 LINE",
"136 217 LINE SMOOTH",
"136 343 OFFCURVE",
"158 413 OFFCURVE",
"197 456 CURVE SMOOTH",
"224 485 OFFCURVE",
"260 501 OFFCURVE",
"302 501 CURVE SMOOTH",
"347 501 OFFCURVE",
"381 484 OFFCURVE",
"402 450 CURVE SMOOTH",
"418 424 OFFCURVE",
"426 387 OFFCURVE",
"426 340 CURVE SMOOTH",
"426 0 LINE",
"491 0 LINE",
"491 337 LINE SMOOTH",
"491 374 OFFCURVE",
"491 428 OFFCURVE",
"464 475 CURVE SMOOTH",
"435 526 OFFCURVE",
"384 559 OFFCURVE",
"316 559 CURVE SMOOTH",
"239 559 OFFCURVE",
"181 528 OFFCURVE",
"136 457 CURVE",
"136 549 LINE",
"71 549 LINE",
"71 0 LINE"
);
}
);
width = 558;
}
);
leftKerningGroup = m;
leftMetricsKey = m;
note = n;
rightKerningGroup = h;
rightMetricsKey = m;
unicode = 006E;
},
{
color = 1;
glyphname = o;
lastChange = "2020-04-02 12:45:33 +0000";
layers = (
{
anchors = (
{
name = bottom;
position = "{330, 0}";
},
{
name = center;
position = "{330, 284}";
},
{
name = ogonek;
position = "{504, 37}";
},
{
name = top;
position = "{330, 567}";
},
{
name = topright;
position = "{626, 567}";
}
);
layerId = "FD6EB2BB-8839-4CDB-86BF-4EEAE3F02079";
paths = (
{
closed = 1;
nodes = (
"510 -12 OFFCURVE",
"628 107 OFFCURVE",
"628 287 CURVE SMOOTH",
"628 460 OFFCURVE",
"508 579 OFFCURVE",
"330 579 CURVE SMOOTH",
"152 579 OFFCURVE",
"32 461 OFFCURVE",
"32 287 CURVE SMOOTH",
"32 106 OFFCURVE",
"153 -12 OFFCURVE",
"330 -12 CURVE SMOOTH"
);
},
{
closed = 1;
nodes = (
"255 132 OFFCURVE",
"205 192 OFFCURVE",
"205 287 CURVE SMOOTH",
"205 376 OFFCURVE",
"255 436 OFFCURVE",
"330 436 CURVE SMOOTH",
"406 436 OFFCURVE",
"453 375 OFFCURVE",
"453 287 CURVE SMOOTH",
"453 194 OFFCURVE",
"406 132 OFFCURVE",
"330 132 CURVE SMOOTH"
);
}
);
width = 660;
},
{
anchors = (
{
name = bottom;
position = "{319, 0}";
},
{
name = center;
position = "{319, 277}";
},
{
name = ogonek;
position = "{452, 26}";
},
{
name = top;
position = "{319, 553}";
},
{
name = topright;
position = "{605, 553}";
}
);
layerId = "11907447-A26F-432E-A335-7727E0303767";
paths = (
{
closed = 1;
nodes = (
"478 -10 OFFCURVE",
"590 112 OFFCURVE",
"590 279 CURVE SMOOTH",
"590 443 OFFCURVE",
"476 563 OFFCURVE",
"318 563 CURVE SMOOTH",
"160 563 OFFCURVE",
"48 443 OFFCURVE",
"48 279 CURVE SMOOTH",
"48 110 OFFCURVE",
"160 -10 OFFCURVE",
"318 -10 CURVE SMOOTH"
);
},
{
closed = 1;
nodes = (
"213 65 OFFCURVE",
"133 154 OFFCURVE",
"133 279 CURVE SMOOTH",
"133 399 OFFCURVE",
"212 488 OFFCURVE",
"318 488 CURVE SMOOTH",
"425 488 OFFCURVE",
"504 397 OFFCURVE",
"504 279 CURVE SMOOTH",
"504 156 OFFCURVE",
"424 65 OFFCURVE",
"318 65 CURVE SMOOTH"
);
}
);
width = 639;
},
{
anchors = (
{
name = bottom;
position = "{312, 0}";
},
{
name = center;
position = "{312, 275}";
},
{
name = ogonek;
position = "{441, 26}";
},
{
name = top;
position = "{312, 549}";
},
{
name = topright;
position = "{595, 549}";
}
);
layerId = "2F4EEC1B-9E89-4E08-AD53-AB625B6E887D";
paths = (
{
closed = 1;
nodes = (
"466 -10 OFFCURVE",
"576 113 OFFCURVE",
"576 277 CURVE SMOOTH",
"576 438 OFFCURVE",
"464 559 OFFCURVE",
"311 559 CURVE SMOOTH",
"158 559 OFFCURVE",
"48 438 OFFCURVE",
"48 277 CURVE SMOOTH",
"48 111 OFFCURVE",
"158 -10 OFFCURVE",
"311 -10 CURVE SMOOTH"
);
},
{
closed = 1;
nodes = (
"198 48 OFFCURVE",
"113 144 OFFCURVE",
"113 277 CURVE SMOOTH",
"113 405 OFFCURVE",
"197 501 OFFCURVE",
"311 501 CURVE SMOOTH",
"426 501 OFFCURVE",
"511 404 OFFCURVE",
"511 277 CURVE SMOOTH",
"511 146 OFFCURVE",
"425 48 OFFCURVE",
"311 48 CURVE SMOOTH"
);
}
);
width = 625;
}
);
leftKerningGroup = c;
note = o;
rightKerningGroup = o;
unicode = 006F;
},
{
glyphname = oe;
lastChange = "2020-04-16 06:36:54 +0000";
layers = (
{
layerId = "2F4EEC1B-9E89-4E08-AD53-AB625B6E887D";
paths = (
{
closed = 1;
nodes = (
"466 -10 OFFCURVE",
"576 113 OFFCURVE",
"576 277 CURVE SMOOTH",
"576 438 OFFCURVE",
"464 559 OFFCURVE",
"311 559 CURVE SMOOTH",
"158 559 OFFCURVE",
"48 438 OFFCURVE",
"48 277 CURVE SMOOTH",
"48 111 OFFCURVE",
"158 -10 OFFCURVE",
"311 -10 CURVE SMOOTH"
);
},
{
closed = 1;
nodes = (
"198 48 OFFCURVE",
"113 144 OFFCURVE",
"113 277 CURVE SMOOTH",
"113 405 OFFCURVE",
"197 501 OFFCURVE",
"311 501 CURVE SMOOTH",
"426 501 OFFCURVE",
"511 404 OFFCURVE",
"511 277 CURVE SMOOTH",
"511 146 OFFCURVE",
"425 48 OFFCURVE",
"311 48 CURVE SMOOTH"
);
},
{
closed = 1;
nodes = (
"907 -10 OFFCURVE",
"991 71 OFFCURVE",
"1023 173 CURVE",
"954 173 LINE",
"929 104 OFFCURVE",
"866 48 OFFCURVE",
"775 48 CURVE SMOOTH",
"691 48 OFFCURVE",
"623 101 OFFCURVE",
"593 187 CURVE SMOOTH",
"584 212 OFFCURVE",
"579 235 OFFCURVE",
"577 263 CURVE",
"1035 263 LINE",
"1035 274 OFFCURVE",
"1035 286 OFFCURVE",
"1034 297 CURVE SMOOTH",
"1021 450 OFFCURVE",
"925 559 OFFCURVE",
"774 559 CURVE SMOOTH",
"612 559 OFFCURVE",
"513 426 OFFCURVE",
"513 274 CURVE SMOOTH",
"513 112 OFFCURVE",
"622 -10 OFFCURVE",
"775 -10 CURVE SMOOTH"
);
},
{
closed = 1;
nodes = (
"584 338 OFFCURVE",
"591 366 OFFCURVE",
"601 388 CURVE SMOOTH",
"632 459 OFFCURVE",
"695 501 OFFCURVE",
"775 501 CURVE SMOOTH",
"854 501 OFFCURVE",
"922 458 OFFCURVE",
"954 384 CURVE SMOOTH",
"964 361 OFFCURVE",
"968 341 OFFCURVE",
"972 316 CURVE",
"581 316 LINE"
);
}
);
width = 1082;
},
{
layerId = "11907447-A26F-432E-A335-7727E0303767";
paths = (
{
closed = 1;
nodes = (
"478 -10 OFFCURVE",
"590 112 OFFCURVE",
"590 279 CURVE SMOOTH",
"590 443 OFFCURVE",
"476 563 OFFCURVE",
"318 563 CURVE SMOOTH",
"160 563 OFFCURVE",
"48 443 OFFCURVE",
"48 279 CURVE SMOOTH",
"48 110 OFFCURVE",
"160 -10 OFFCURVE",
"318 -10 CURVE SMOOTH"
);
},
{
closed = 1;
nodes = (
"213 65 OFFCURVE",
"133 154 OFFCURVE",
"133 279 CURVE SMOOTH",
"133 399 OFFCURVE",
"212 488 OFFCURVE",
"318 488 CURVE SMOOTH",
"425 488 OFFCURVE",
"504 397 OFFCURVE",
"504 279 CURVE SMOOTH",
"504 156 OFFCURVE",
"424 65 OFFCURVE",
"318 65 CURVE SMOOTH"
);
},
{
closed = 1;
nodes = (
"912 -10 OFFCURVE",
"996 74 OFFCURVE",
"1030 178 CURVE",
"939 178 LINE",
"915 117 OFFCURVE",
"858 65 OFFCURVE",
"774 65 CURVE SMOOTH",
"694 65 OFFCURVE",
"629 120 OFFCURVE",
"601 205 CURVE SMOOTH",
"595 222 OFFCURVE",
"591 243 OFFCURVE",
"590 260 CURVE",
"1040 260 LINE",
"1040 290 LINE SMOOTH",
"1040 468 OFFCURVE",
"912 563 OFFCURVE",
"773 563 CURVE SMOOTH",
"602 563 OFFCURVE",
"506 425 OFFCURVE",
"506 275 CURVE SMOOTH",
"506 112 OFFCURVE",
"616 -10 OFFCURVE",
"775 -10 CURVE SMOOTH"
);
},
{
closed = 1;
nodes = (
"601 352 OFFCURVE",
"606 372 OFFCURVE",
"614 389 CURVE SMOOTH",
"644 452 OFFCURVE",
"701 488 OFFCURVE",
"775 488 CURVE SMOOTH",
"846 488 OFFCURVE",
"908 453 OFFCURVE",
"937 389 CURVE SMOOTH",
"944 373 OFFCURVE",
"948 353 OFFCURVE",
"949 335 CURVE",
"598 335 LINE"
);
}
);
width = 1087;
},
{
layerId = "FD6EB2BB-8839-4CDB-86BF-4EEAE3F02079";
paths = (
{
closed = 1;
nodes = (
"510 -12 OFFCURVE",
"628 107 OFFCURVE",
"628 287 CURVE SMOOTH",
"628 460 OFFCURVE",
"508 579 OFFCURVE",
"330 579 CURVE SMOOTH",
"152 579 OFFCURVE",
"32 461 OFFCURVE",
"32 287 CURVE SMOOTH",
"32 106 OFFCURVE",
"153 -12 OFFCURVE",
"330 -12 CURVE SMOOTH"
);
},
{
closed = 1;
nodes = (
"255 132 OFFCURVE",
"205 192 OFFCURVE",
"205 287 CURVE SMOOTH",
"205 376 OFFCURVE",
"255 436 OFFCURVE",
"330 436 CURVE SMOOTH",
"406 436 OFFCURVE",
"453 375 OFFCURVE",
"453 287 CURVE SMOOTH",
"453 194 OFFCURVE",
"406 132 OFFCURVE",
"330 132 CURVE SMOOTH"
);
},
{
closed = 1;
nodes = (
"910 -12 OFFCURVE",
"997 84 OFFCURVE",
"1029 196 CURVE",
"860 196 LINE",
"846 161 OFFCURVE",
"810 132 OFFCURVE",
"759 132 CURVE SMOOTH",
"717 132 OFFCURVE",
"683 145 OFFCURVE",
"659 175 CURVE SMOOTH",
"645 192 OFFCURVE",
"634 220 OFFCURVE",
"630 248 CURVE",
"1038 248 LINE",
"1038 277 LINE SMOOTH",
"1038 496 OFFCURVE",
"894 579 OFFCURVE",
"745 579 CURVE SMOOTH",
"540 579 OFFCURVE",
"454 423 OFFCURVE",
"454 279 CURVE SMOOTH",
"454 111 OFFCURVE",
"570 -12 OFFCURVE",
"750 -12 CURVE SMOOTH"
);
},
{
closed = 1;
nodes = (
"637 380 OFFCURVE",
"642 399 OFFCURVE",
"661 418 CURVE SMOOTH",
"685 442 OFFCURVE",
"717 451 OFFCURVE",
"751 451 CURVE SMOOTH",
"785 451 OFFCURVE",
"817 442 OFFCURVE",
"841 418 CURVE SMOOTH",
"859 400 OFFCURVE",
"865 380 OFFCURVE",
"868 367 CURVE",
"635 367 LINE"
);
}
);
width = 1070;
}
);
leftKerningGroup = c;
leftMetricsKey = o;
rightKerningGroup = o;
rightMetricsKey = e;
unicode = 0153;
},
{
color = 1;
glyphname = thorn;
lastChange = "2020-04-14 06:17:00 +0000";
layers = (
{
anchors = (
{
name = bottom;
position = "{312, -196}";
},
{
name = top;
position = "{312, 567}";
}
);
guideLines = (
{
angle = 270;
position = "{227, -236}";
}
);
layerId = "FD6EB2BB-8839-4CDB-86BF-4EEAE3F02079";
paths = (
{
closed = 1;
nodes = (
"223 -196 LINE",
"223 61 LINE",
"261 4 OFFCURVE",
"308 -12 OFFCURVE",
"368 -12 CURVE SMOOTH",
"513 -12 OFFCURVE",
"615 110 OFFCURVE",
"615 283 CURVE SMOOTH",
"615 457 OFFCURVE",
"513 579 OFFCURVE",
"368 579 CURVE SMOOTH",
"308 579 OFFCURVE",
"261 563 OFFCURVE",
"223 506 CURVE",
"223 763 LINE",
"55 763 LINE",
"55 -196 LINE"
);
},
{
closed = 1;
nodes = (
"247 131 OFFCURVE",
"197 192 OFFCURVE",
"197 283 CURVE SMOOTH",
"197 375 OFFCURVE",
"247 436 OFFCURVE",
"321 436 CURVE SMOOTH",
"396 436 OFFCURVE",
"445 373 OFFCURVE",
"445 283 CURVE SMOOTH",
"445 194 OFFCURVE",
"396 131 OFFCURVE",
"321 131 CURVE SMOOTH"
);
}
);
width = 649;
},
{
anchors = (
{
name = bottom;
position = "{317, -210}";
},
{
name = top;
position = "{306, 553}";
}
);
guideLines = (
{
position = "{270, -230}";
}
);
layerId = "11907447-A26F-432E-A335-7727E0303767";
paths = (
{
closed = 1;
nodes = (
"157 -210 LINE",
"157 86 LINE",
"214 12 OFFCURVE",
"264 -10 OFFCURVE",
"338 -10 CURVE SMOOTH",
"487 -10 OFFCURVE",
"584 107 OFFCURVE",
"584 277 CURVE SMOOTH",
"584 446 OFFCURVE",
"487 563 OFFCURVE",
"338 563 CURVE SMOOTH",
"262 563 OFFCURVE",
"213 539 OFFCURVE",
"157 467 CURVE",
"157 763 LINE",
"72 763 LINE",
"72 -210 LINE"
);
},
{
closed = 1;
nodes = (
"227 65 OFFCURVE",
"154 154 OFFCURVE",
"154 277 CURVE SMOOTH",
"154 399 OFFCURVE",
"227 488 OFFCURVE",
"330 488 CURVE SMOOTH",
"434 488 OFFCURVE",
"499 397 OFFCURVE",
"499 277 CURVE SMOOTH",
"499 156 OFFCURVE",
"434 65 OFFCURVE",
"330 65 CURVE SMOOTH"
);
}
);
width = 634;
},
{
anchors = (
{
name = bottom;
position = "{302, -214}";
},
{
name = top;
position = "{302, 549}";
}
);
guideLines = (
{
position = "{644, -228}";
}
);
layerId = "2F4EEC1B-9E89-4E08-AD53-AB625B6E887D";
paths = (
{
closed = 1;
nodes = (
"137 -214 LINE",
"137 102 LINE",
"186 30 OFFCURVE",
"253 -10 OFFCURVE",
"333 -10 CURVE SMOOTH",
"476 -10 OFFCURVE",
"573 108 OFFCURVE",
"573 275 CURVE SMOOTH",
"573 441 OFFCURVE",
"476 559 OFFCURVE",
"333 559 CURVE SMOOTH",
"252 559 OFFCURVE",
"185 517 OFFCURVE",
"137 447 CURVE",
"137 763 LINE",
"72 763 LINE",
"72 -214 LINE"
);
},
{
closed = 1;
nodes = (
"216 48 OFFCURVE",
"135 145 OFFCURVE",
"135 275 CURVE SMOOTH",
"135 404 OFFCURVE",
"216 501 OFFCURVE",
"327 501 CURVE SMOOTH",
"439 501 OFFCURVE",
"508 403 OFFCURVE",
"508 275 CURVE SMOOTH",
"508 146 OFFCURVE",
"439 48 OFFCURVE",
"327 48 CURVE SMOOTH"
);
}
);
width = 623;
}
);
leftKerningGroup = b;
leftMetricsKey = p;
note = thorn;
rightKerningGroup = b;
rightMetricsKey = p;
unicode = 00FE;
},
{
color = 1;
glyphname = q;
lastChange = "2020-04-16 06:52:25 +0000";
layers = (
{
anchors = (
{
name = bottom;
position = "{337, 0}";
},
{
name = top;
position = "{337, 567}";
}
);
background = {
components = (
{
name = p;
transform = "{-1, 0, 0, 1, 649, 0}";
}
);
guideLines = (
{
angle = 270;
position = "{452, 567}";
}
);
};
layerId = "FD6EB2BB-8839-4CDB-86BF-4EEAE3F02079";
paths = (
{
closed = 1;
nodes = (
"669 -196 LINE",
"669 -59 LINE",
"628 -59 LINE SMOOTH",
"617 -59 OFFCURVE",
"594 -57 OFFCURVE",
"594 -24 CURVE SMOOTH",
"594 567 LINE",
"426 567 LINE",
"426 506 LINE",
"388 563 OFFCURVE",
"341 579 OFFCURVE",
"281 579 CURVE SMOOTH",
"136 579 OFFCURVE",
"34 457 OFFCURVE",
"34 283 CURVE SMOOTH",
"34 110 OFFCURVE",
"136 -12 OFFCURVE",
"281 -12 CURVE SMOOTH",
"341 -12 OFFCURVE",
"388 4 OFFCURVE",
"426 61 CURVE",
"426 -83 LINE SMOOTH",
"426 -155 OFFCURVE",
"473 -196 OFFCURVE",
"556 -196 CURVE SMOOTH"
);
},
{
closed = 1;
nodes = (
"253 131 OFFCURVE",
"204 194 OFFCURVE",
"204 283 CURVE SMOOTH",
"204 373 OFFCURVE",
"253 436 OFFCURVE",
"328 436 CURVE SMOOTH",
"402 436 OFFCURVE",
"452 375 OFFCURVE",
"452 283 CURVE SMOOTH",
"452 192 OFFCURVE",
"402 131 OFFCURVE",
"328 131 CURVE SMOOTH"
);
}
);
width = 649;
},
{
anchors = (
{
name = bottom;
position = "{327, 0}";
},
{
name = top;
position = "{327, 553}";
}
);
background = {
components = (
{
name = p;
transform = "{-1, 0, 0, 1, 634, 0}";
}
);
};
guideLines = (
{
position = "{268, -230}";
}
);
layerId = "11907447-A26F-432E-A335-7727E0303767";
paths = (
{
closed = 1;
nodes = (
"668 -210 LINE",
"668 -132 LINE",
"619 -132 LINE SMOOTH",
"579 -132 OFFCURVE",
"562 -118 OFFCURVE",
"562 -86 CURVE SMOOTH",
"562 553 LINE",
"477 553 LINE",
"477 467 LINE",
"421 539 OFFCURVE",
"372 563 OFFCURVE",
"296 563 CURVE SMOOTH",
"147 563 OFFCURVE",
"50 446 OFFCURVE",
"50 277 CURVE SMOOTH",
"50 107 OFFCURVE",
"147 -10 OFFCURVE",
"296 -10 CURVE SMOOTH",
"370 -10 OFFCURVE",
"420 12 OFFCURVE",
"477 86 CURVE",
"477 -79 LINE SMOOTH",
"477 -172 OFFCURVE",
"518 -210 OFFCURVE",
"619 -210 CURVE SMOOTH"
);
},
{
closed = 1;
nodes = (
"200 65 OFFCURVE",
"135 156 OFFCURVE",
"135 277 CURVE SMOOTH",
"135 397 OFFCURVE",
"200 488 OFFCURVE",
"304 488 CURVE SMOOTH",
"406 488 OFFCURVE",
"480 399 OFFCURVE",
"480 277 CURVE SMOOTH",
"480 154 OFFCURVE",
"407 65 OFFCURVE",
"304 65 CURVE SMOOTH"
);
}
);
width = 633;
},
{
anchors = (
{
name = bottom;
position = "{323, 0}";
},
{
name = top;
position = "{323, 549}";
}
);
background = {
components = (
{
name = p;
transform = "{-1, 0, 0, 1, 623, 0}";
}
);
};
guideLines = (
{
position = "{645, -228}";
}
);
layerId = "2F4EEC1B-9E89-4E08-AD53-AB625B6E887D";
paths = (
{
closed = 1;
nodes = (
"665 -214 LINE",
"665 -155 LINE",
"629 -155 LINE SMOOTH",
"574 -155 OFFCURVE",
"551 -138 OFFCURVE",
"551 -61 CURVE SMOOTH",
"551 549 LINE",
"486 549 LINE",
"486 447 LINE",
"438 517 OFFCURVE",
"371 559 OFFCURVE",
"290 559 CURVE SMOOTH",
"147 559 OFFCURVE",
"50 441 OFFCURVE",
"50 275 CURVE SMOOTH",
"50 108 OFFCURVE",
"147 -10 OFFCURVE",
"290 -10 CURVE SMOOTH",
"370 -10 OFFCURVE",
"437 30 OFFCURVE",
"486 102 CURVE",
"486 -71 LINE SMOOTH",
"486 -173 OFFCURVE",
"533 -214 OFFCURVE",
"625 -214 CURVE SMOOTH"
);
},
{
closed = 1;
nodes = (
"184 48 OFFCURVE",
"115 146 OFFCURVE",
"115 275 CURVE SMOOTH",
"115 403 OFFCURVE",
"184 501 OFFCURVE",
"296 501 CURVE SMOOTH",
"407 501 OFFCURVE",
"488 404 OFFCURVE",
"488 275 CURVE SMOOTH",
"488 144 OFFCURVE",
"407 48 OFFCURVE",
"296 48 CURVE SMOOTH"
);
}
);
width = 623;
}
);
leftKerningGroup = c;
leftMetricsKey = d;
note = q;
rightKerningGroup = q;
unicode = 0071;
},
{
color = 1;
glyphname = r;
lastChange = "2020-04-14 06:31:02 +0000";
layers = (
{
anchors = (
{
name = bottom;
position = "{139, 0}";
},
{
name = top;
position = "{186, 567}";
}
);
layerId = "FD6EB2BB-8839-4CDB-86BF-4EEAE3F02079";
paths = (
{
closed = 1;
nodes = (
"223 0 LINE",
"223 239 LINE SMOOTH",
"223 316 OFFCURVE",
"236 361 OFFCURVE",
"265 389 CURVE SMOOTH",
"285 408 OFFCURVE",
"314 419 OFFCURVE",
"361 419 CURVE SMOOTH",
"393 419 LINE",
"393 579 LINE",
"368 579 LINE SMOOTH",
"308 579 OFFCURVE",
"261 563 OFFCURVE",
"223 506 CURVE",
"223 567 LINE",
"55 567 LINE",
"55 0 LINE"
);
}
);
width = 410;
},
{
anchors = (
{
name = bottom;
position = "{114, 0}";
},
{
name = top;
position = "{182, 553}";
}
);
layerId = "11907447-A26F-432E-A335-7727E0303767";
paths = (
{
closed = 1;
nodes = (
"156 0 LINE",
"156 291 LINE SMOOTH",
"156 360 OFFCURVE",
"173 407 OFFCURVE",
"205 438 CURVE SMOOTH",
"231 464 OFFCURVE",
"267 478 OFFCURVE",
"312 478 CURVE SMOOTH",
"341 478 LINE",
"341 563 LINE",
"337 563 LINE SMOOTH",
"262 563 OFFCURVE",
"207 539 OFFCURVE",
"156 477 CURVE",
"156 553 LINE",
"71 553 LINE",
"71 0 LINE"
);
}
);
width = 363;
},
{
anchors = (
{
name = bottom;
position = "{104, 0}";
},
{
name = top;
position = "{159, 549}";
}
);
layerId = "2F4EEC1B-9E89-4E08-AD53-AB625B6E887D";
paths = (
{
closed = 1;
nodes = (
"172 528 OFFCURVE",
"136 467 CURVE",
"136 549 LINE",
"71 549 LINE",
"71 0 LINE",
"136 0 LINE",
"136 268 LINE SMOOTH",
"136 350 OFFCURVE",
"149 407 OFFCURVE",
"181 447 CURVE SMOOTH",
"207 480 OFFCURVE",
"246 495 OFFCURVE",
"298 495 CURVE SMOOTH",
"323 495 LINE",
"323 559 LINE",
"305 559 LINE SMOOTH",
"228 559 OFFCURVE"
);
}
);
width = 345;
}
);
leftKerningGroup = m;
leftMetricsKey = m;
note = r;
rightKerningGroup = r;
unicode = 0072;
},
{
color = 1;
glyphname = s;
lastChange = "2020-04-07 06:03:49 +0000";
layers = (
{
anchors = (
{
name = bottom;
position = "{293, 0}";
},
{
name = top;
position = "{293, 567}";
}
);
background = {
paths = (
{
closed = 1;
nodes = (
"461 -12 OFFCURVE",
"553 64 OFFCURVE",
"553 177 CURVE SMOOTH",
"553 396 OFFCURVE",
"211 315 OFFCURVE",
"211 410 CURVE SMOOTH",
"211 436 OFFCURVE",
"238 453 OFFCURVE",
"279 453 CURVE SMOOTH",
"322 453 OFFCURVE",
"365 433 OFFCURVE",
"381 379 CURVE",
"540 379 LINE",
"519 508 OFFCURVE",
"418 579 OFFCURVE",
"280 579 CURVE SMOOTH",
"162 579 OFFCURVE",
"52 531 OFFCURVE",
"52 406 CURVE SMOOTH",
"52 184 OFFCURVE",
"388 262 OFFCURVE",
"388 166 CURVE SMOOTH",
"388 134 OFFCURVE",
"353 115 OFFCURVE",
"308 115 CURVE SMOOTH",
"260 115 OFFCURVE",
"211 139 OFFCURVE",
"192 196 CURVE",
"29 196 LINE",
"48 38 OFFCURVE",
"191 -12 OFFCURVE",
"310 -12 CURVE SMOOTH"
);
}
);
};
layerId = "FD6EB2BB-8839-4CDB-86BF-4EEAE3F02079";
paths = (
{
closed = 1;
nodes = (
"461 -12 OFFCURVE",
"553 64 OFFCURVE",
"553 177 CURVE SMOOTH",
"553 309 OFFCURVE",
"429 332 OFFCURVE",
"330 350 CURVE SMOOTH",
"265 362 OFFCURVE",
"211 372 OFFCURVE",
"211 410 CURVE SMOOTH",
"211 436 OFFCURVE",
"238 453 OFFCURVE",
"279 453 CURVE SMOOTH",
"322 453 OFFCURVE",
"365 433 OFFCURVE",
"381 379 CURVE",
"540 379 LINE",
"519 508 OFFCURVE",
"418 579 OFFCURVE",
"280 579 CURVE SMOOTH",
"162 579 OFFCURVE",
"52 531 OFFCURVE",
"52 406 CURVE SMOOTH",
"52 272 OFFCURVE",
"174 247 OFFCURVE",
"271 228 CURVE SMOOTH",
"335 215 OFFCURVE",
"388 204 OFFCURVE",
"388 166 CURVE SMOOTH",
"388 134 OFFCURVE",
"353 115 OFFCURVE",
"308 115 CURVE SMOOTH",
"260 115 OFFCURVE",
"211 139 OFFCURVE",
"192 196 CURVE",
"29 196 LINE",
"48 38 OFFCURVE",
"191 -12 OFFCURVE",
"310 -12 CURVE SMOOTH"
);
}
);
width = 588;
},
{
anchors = (
{
name = bottom;
position = "{279, 0}";
},
{
name = top;
position = "{279, 553}";
}
);
background = {
paths = (
{
closed = 1;
nodes = (
"430 -10 OFFCURVE",
"507 57 OFFCURVE",
"507 159 CURVE SMOOTH",
"507 380 OFFCURVE",
"151 276 OFFCURVE",
"151 411 CURVE SMOOTH",
"151 459 OFFCURVE",
"194 488 OFFCURVE",
"267 488 CURVE SMOOTH",
"340 488 OFFCURVE",
"395 457 OFFCURVE",
"412 387 CURVE",
"491 387 LINE",
"472 497 OFFCURVE",
"387 563 OFFCURVE",
"267 563 CURVE SMOOTH",
"154 563 OFFCURVE",
"66 508 OFFCURVE",
"66 404 CURVE SMOOTH",
"66 195 OFFCURVE",
"422 301 OFFCURVE",
"422 150 CURVE SMOOTH",
"422 94 OFFCURVE",
"370 65 OFFCURVE",
"295 65 CURVE SMOOTH",
"196 65 OFFCURVE",
"146 111 OFFCURVE",
"132 178 CURVE",
"43 178 LINE",
"62 62 OFFCURVE",
"153 -10 OFFCURVE",
"294 -10 CURVE SMOOTH"
);
}
);
};
layerId = "11907447-A26F-432E-A335-7727E0303767";
paths = (
{
closed = 1;
nodes = (
"430 -10 OFFCURVE",
"507 57 OFFCURVE",
"507 159 CURVE SMOOTH",
"507 283 OFFCURVE",
"395 305 OFFCURVE",
"296 324 CURVE SMOOTH",
"220 339 OFFCURVE",
"151 352 OFFCURVE",
"151 411 CURVE SMOOTH",
"151 459 OFFCURVE",
"194 488 OFFCURVE",
"267 488 CURVE SMOOTH",
"340 488 OFFCURVE",
"395 457 OFFCURVE",
"412 387 CURVE",
"491 387 LINE",
"472 497 OFFCURVE",
"387 563 OFFCURVE",
"267 563 CURVE SMOOTH",
"154 563 OFFCURVE",
"66 508 OFFCURVE",
"66 404 CURVE SMOOTH",
"66 291 OFFCURVE",
"170 270 OFFCURVE",
"266 251 CURVE SMOOTH",
"347 235 OFFCURVE",
"422 219 OFFCURVE",
"422 150 CURVE SMOOTH",
"422 94 OFFCURVE",
"370 65 OFFCURVE",
"295 65 CURVE SMOOTH",
"196 65 OFFCURVE",
"146 111 OFFCURVE",
"132 178 CURVE",
"43 178 LINE",
"62 62 OFFCURVE",
"153 -10 OFFCURVE",
"294 -10 CURVE SMOOTH"
);
}
);
width = 557;
},
{
anchors = (
{
name = bottom;
position = "{271, 0}";
},
{
name = top;
position = "{271, 549}";
}
);
background = {
anchors = (
{
name = bottom;
position = "{271, 0}";
},
{
name = top;
position = "{271, 549}";
}
);
paths = (
{
closed = 1;
nodes = (
"419 -10 OFFCURVE",
"493 55 OFFCURVE",
"493 153 CURVE SMOOTH",
"493 372 OFFCURVE",
"131 265 OFFCURVE",
"131 413 CURVE SMOOTH",
"131 468 OFFCURVE",
"180 501 OFFCURVE",
"261 501 CURVE SMOOTH",
"343 501 OFFCURVE",
"398 462 OFFCURVE",
"410 389 CURVE",
"475 389 LINE",
"458 492 OFFCURVE",
"380 559 OFFCURVE",
"261 559 CURVE SMOOTH",
"150 559 OFFCURVE",
"66 505 OFFCURVE",
"66 406 CURVE SMOOTH",
"66 202 OFFCURVE",
"428 312 OFFCURVE",
"428 147 CURVE SMOOTH",
"428 83 OFFCURVE",
"374 48 OFFCURVE",
"288 48 CURVE SMOOTH",
"179 48 OFFCURVE",
"122 96 OFFCURVE",
"111 173 CURVE",
"45 173 LINE",
"59 59 OFFCURVE",
"146 -10 OFFCURVE",
"285 -10 CURVE SMOOTH"
);
}
);
};
layerId = "2F4EEC1B-9E89-4E08-AD53-AB625B6E887D";
paths = (
{
closed = 1;
nodes = (
"419 -10 OFFCURVE",
"493 55 OFFCURVE",
"493 153 CURVE SMOOTH",
"493 273 OFFCURVE",
"384 295 OFFCURVE",
"286 315 CURVE SMOOTH",
"205 331 OFFCURVE",
"131 346 OFFCURVE",
"131 413 CURVE SMOOTH",
"131 468 OFFCURVE",
"180 501 OFFCURVE",
"261 501 CURVE SMOOTH",
"343 501 OFFCURVE",
"398 462 OFFCURVE",
"410 389 CURVE",
"475 389 LINE",
"458 492 OFFCURVE",
"380 559 OFFCURVE",
"261 559 CURVE SMOOTH",
"150 559 OFFCURVE",
"66 505 OFFCURVE",
"66 406 CURVE SMOOTH",
"66 299 OFFCURVE",
"166 278 OFFCURVE",
"261 259 CURVE SMOOTH",
"347 242 OFFCURVE",
"428 225 OFFCURVE",
"428 147 CURVE SMOOTH",
"428 83 OFFCURVE",
"374 48 OFFCURVE",
"288 48 CURVE SMOOTH",
"179 48 OFFCURVE",
"122 96 OFFCURVE",
"111 173 CURVE",
"45 173 LINE",
"59 59 OFFCURVE",
"146 -10 OFFCURVE",
"285 -10 CURVE SMOOTH"
);
}
);
width = 543;
}
);
leftKerningGroup = s;
note = s;
rightKerningGroup = s;
unicode = 0073;
},
{
color = 1;
glyphname = germandbls;
lastChange = "2020-04-14 06:32:38 +0000";
layers = (
{
anchors = (
{
name = bottom;
position = "{330, 0}";
},
{
name = top;
position = "{330, 763}";
}
);
guideLines = (
{
angle = 90;
position = "{269, 401}";
}
);
layerId = "2F4EEC1B-9E89-4E08-AD53-AB625B6E887D";
paths = (
{
closed = 1;
nodes = (
"146 0 LINE",
"146 482 LINE SMOOTH",
"146 641 OFFCURVE",
"220 715 OFFCURVE",
"346 715 CURVE SMOOTH",
"458 715 OFFCURVE",
"522 663 OFFCURVE",
"522 572 CURVE SMOOTH",
"522 486 OFFCURVE",
"467 433 OFFCURVE",
"376 433 CURVE SMOOTH",
"269 433 LINE",
"269 375 LINE",
"393 375 LINE SMOOTH",
"496 375 OFFCURVE",
"560 314 OFFCURVE",
"560 215 CURVE SMOOTH",
"560 116 OFFCURVE",
"488 58 OFFCURVE",
"366 58 CURVE SMOOTH",
"269 58 LINE",
"269 0 LINE",
"373 0 LINE SMOOTH",
"530 0 OFFCURVE",
"625 81 OFFCURVE",
"625 215 CURVE SMOOTH",
"625 325 OFFCURVE",
"578 393 OFFCURVE",
"487 413 CURVE",
"550 437 OFFCURVE",
"587 496 OFFCURVE",
"587 572 CURVE SMOOTH",
"587 695 OFFCURVE",
"493 773 OFFCURVE",
"346 773 CURVE SMOOTH",
"159 773 OFFCURVE",
"81 660 OFFCURVE",
"81 482 CURVE SMOOTH",
"81 0 LINE"
);
}
);
width = 665;
},
{
anchors = (
{
name = bottom;
position = "{333, 0}";
},
{
name = top;
position = "{333, 763}";
}
);
guideLines = (
{
angle = 90;
position = "{296, 397}";
}
);
layerId = "11907447-A26F-432E-A335-7727E0303767";
paths = (
{
closed = 1;
nodes = (
"165 0 LINE",
"165 493 LINE SMOOTH",
"165 638 OFFCURVE",
"242 698 OFFCURVE",
"348 698 CURVE SMOOTH",
"447 698 OFFCURVE",
"514 646 OFFCURVE",
"514 568 CURVE SMOOTH",
"514 487 OFFCURVE",
"462 439 OFFCURVE",
"374 439 CURVE SMOOTH",
"296 439 LINE",
"296 364 LINE",
"390 364 LINE SMOOTH",
"494 364 OFFCURVE",
"552 312 OFFCURVE",
"552 219 CURVE SMOOTH",
"552 127 OFFCURVE",
"485 75 OFFCURVE",
"368 75 CURVE SMOOTH",
"296 75 LINE",
"296 0 LINE",
"377 0 LINE SMOOTH",
"537 0 OFFCURVE",
"637 82 OFFCURVE",
"637 214 CURVE SMOOTH",
"637 327 OFFCURVE",
"590 391 OFFCURVE",
"491 413 CURVE",
"564 439 OFFCURVE",
"599 493 OFFCURVE",
"599 582 CURVE SMOOTH",
"599 694 OFFCURVE",
"495 773 OFFCURVE",
"348 773 CURVE SMOOTH",
"173 773 OFFCURVE",
"80 671 OFFCURVE",
"80 493 CURVE SMOOTH",
"80 0 LINE"
);
}
);
width = 674;
},
{
anchors = (
{
name = bottom;
position = "{345, 0}";
},
{
name = top;
position = "{345, 763}";
}
);
guideLines = (
{
angle = 90;
position = "{321, 387}";
}
);
layerId = "FD6EB2BB-8839-4CDB-86BF-4EEAE3F02079";
paths = (
{
closed = 1;
nodes = (
"237 0 LINE",
"237 482 LINE SMOOTH",
"237 572 OFFCURVE",
"285 625 OFFCURVE",
"367 625 CURVE SMOOTH",
"429 625 OFFCURVE",
"467 593 OFFCURVE",
"467 540 CURVE SMOOTH",
"467 487 OFFCURVE",
"427 456 OFFCURVE",
"358 456 CURVE SMOOTH",
"321 456 LINE",
"321 320 LINE",
"390 320 LINE SMOOTH",
"467 320 OFFCURVE",
"506 293 OFFCURVE",
"506 239 CURVE SMOOTH",
"506 181 OFFCURVE",
"462 150 OFFCURVE",
"382 150 CURVE SMOOTH",
"321 150 LINE",
"321 0 LINE",
"392 0 LINE SMOOTH",
"555 0 OFFCURVE",
"674 95 OFFCURVE",
"674 225 CURVE SMOOTH",
"674 326 OFFCURVE",
"628 386 OFFCURVE",
"527 414 CURVE",
"601 442 OFFCURVE",
"635 492 OFFCURVE",
"635 573 CURVE SMOOTH",
"635 691 OFFCURVE",
"522 775 OFFCURVE",
"365 775 CURVE SMOOTH",
"177 775 OFFCURVE",
"69 674 OFFCURVE",
"69 472 CURVE SMOOTH",
"69 0 LINE"
);
}
);
width = 698;
}
);
leftKerningGroup = B;
rightKerningGroup = B;
unicode = 00DF;
},
{
color = 1;
glyphname = t;
lastChange = "2020-04-02 13:12:54 +0000";
layers = (
{
anchors = (
{
name = bottom;
position = "{227, 0}";
},
{
name = center;
position = "{207, 284}";
},
{
name = top;
position = "{183, 763}";
},
{
name = topright;
position = "{283, 756}";
}
);
background = {
anchors = (
{
name = bottom;
position = "{227, 0}";
},
{
name = center;
position = "{207, 284}";
},
{
name = top;
position = "{183, 763}";
},
{
name = topright;
position = "{283, 756}";
}
);
paths = (
{
closed = 1;
nodes = (
"348 0 LINE SMOOTH",
"358 0 OFFCURVE",
"364 6 OFFCURVE",
"364 16 CURVE SMOOTH",
"364 120 LINE SMOOTH",
"364 130 OFFCURVE",
"358 136 OFFCURVE",
"348 136 CURVE SMOOTH",
"301 136 LINE SMOOTH",
"272 136 OFFCURVE",
"267 154 OFFCURVE",
"267 170 CURVE SMOOTH",
"267 420 LINE SMOOTH",
"267 430 OFFCURVE",
"273 436 OFFCURVE",
"283 436 CURVE SMOOTH",
"349 436 LINE SMOOTH",
"359 436 OFFCURVE",
"365 442 OFFCURVE",
"365 452 CURVE SMOOTH",
"365 551 LINE SMOOTH",
"365 561 OFFCURVE",
"359 567 OFFCURVE",
"349 567 CURVE SMOOTH",
"283 567 LINE SMOOTH",
"273 567 OFFCURVE",
"267 573 OFFCURVE",
"267 583 CURVE SMOOTH",
"267 747 LINE SMOOTH",
"267 757 OFFCURVE",
"261 763 OFFCURVE",
"251 763 CURVE SMOOTH",
"115 763 LINE SMOOTH",
"105 763 OFFCURVE",
"99 757 OFFCURVE",
"99 747 CURVE SMOOTH",
"99 583 LINE SMOOTH",
"99 573 OFFCURVE",
"93 567 OFFCURVE",
"83 567 CURVE SMOOTH",
"37 567 LINE SMOOTH",
"27 567 OFFCURVE",
"21 561 OFFCURVE",
"21 551 CURVE SMOOTH",
"21 452 LINE SMOOTH",
"21 442 OFFCURVE",
"27 436 OFFCURVE",
"37 436 CURVE SMOOTH",
"83 436 LINE SMOOTH",
"93 436 OFFCURVE",
"99 430 OFFCURVE",
"99 420 CURVE SMOOTH",
"99 113 LINE SMOOTH",
"99 41 OFFCURVE",
"147 0 OFFCURVE",
"230 0 CURVE SMOOTH"
);
}
);
};
layerId = "FD6EB2BB-8839-4CDB-86BF-4EEAE3F02079";
paths = (
{
closed = 1;
nodes = (
"364 0 LINE",
"364 136 LINE",
"301 136 LINE SMOOTH",
"272 136 OFFCURVE",
"267 154 OFFCURVE",
"267 170 CURVE SMOOTH",
"267 436 LINE",
"365 436 LINE",
"365 567 LINE",
"267 567 LINE",
"267 763 LINE",
"99 763 LINE",
"99 567 LINE",
"21 567 LINE",
"21 436 LINE",
"99 436 LINE",
"99 113 LINE SMOOTH",
"99 41 OFFCURVE",
"147 0 OFFCURVE",
"230 0 CURVE SMOOTH"
);
}
);
width = 398;
},
{
anchors = (
{
name = bottom;
position = "{205, 0}";
},
{
name = center;
position = "{185, 277}";
},
{
name = top;
position = "{159, 763}";
},
{
name = topright;
position = "{247, 690}";
}
);
layerId = "11907447-A26F-432E-A335-7727E0303767";
paths = (
{
closed = 1;
nodes = (
"324 0 LINE",
"324 75 LINE",
"267 75 LINE SMOOTH",
"205 75 OFFCURVE",
"201 107 OFFCURVE",
"201 156 CURVE SMOOTH",
"201 478 LINE",
"325 478 LINE",
"325 553 LINE",
"201 553 LINE",
"201 763 LINE",
"116 763 LINE",
"116 553 LINE",
"27 553 LINE",
"27 478 LINE",
"116 478 LINE",
"116 139 LINE SMOOTH",
"116 28 OFFCURVE",
"164 0 OFFCURVE",
"247 0 CURVE SMOOTH"
);
}
);
width = 361;
},
{
anchors = (
{
name = bottom;
position = "{196, 0}";
},
{
name = center;
position = "{176, 275}";
},
{
name = top;
position = "{149, 763}";
},
{
name = topright;
position = "{233, 679}";
}
);
layerId = "2F4EEC1B-9E89-4E08-AD53-AB625B6E887D";
paths = (
{
closed = 1;
nodes = (
"309 0 LINE",
"309 58 LINE",
"254 58 LINE SMOOTH",
"187 58 OFFCURVE",
"181 88 OFFCURVE",
"181 151 CURVE SMOOTH",
"181 491 LINE",
"310 491 LINE",
"310 549 LINE",
"181 549 LINE",
"181 763 LINE",
"116 763 LINE",
"116 549 LINE",
"27 549 LINE",
"27 491 LINE",
"116 491 LINE",
"116 138 LINE SMOOTH",
"116 28 OFFCURVE",
"156 0 OFFCURVE",
"239 0 CURVE SMOOTH"
);
}
);
width = 346;
}
);
leftKerningGroup = t;
note = t;
rightKerningGroup = t;
unicode = 0074;
},
{
color = 1;
glyphname = u;
lastChange = "2020-04-14 06:33:39 +0000";
layers = (
{
anchors = (
{
name = bottom;
position = "{312, 0}";
},
{
name = ogonek;
position = "{569, 0}";
},
{
name = top;
position = "{312, 567}";
},
{
name = topright;
position = "{604, 567}";
}
);
layerId = "FD6EB2BB-8839-4CDB-86BF-4EEAE3F02079";
paths = (
{
closed = 1;
nodes = (
"324 -12 OFFCURVE",
"367 10 OFFCURVE",
"401 61 CURVE",
"401 0 LINE",
"569 0 LINE",
"569 567 LINE",
"401 567 LINE",
"401 248 LINE SMOOTH",
"401 201 OFFCURVE",
"395 172 OFFCURVE",
"380 152 CURVE SMOOTH",
"365 133 OFFCURVE",
"342 123 OFFCURVE",
"305 123 CURVE SMOOTH",
"276 123 OFFCURVE",
"256 130 OFFCURVE",
"243 144 CURVE SMOOTH",
"226 162 OFFCURVE",
"219 192 OFFCURVE",
"219 248 CURVE SMOOTH",
"219 567 LINE",
"51 567 LINE",
"51 250 LINE SMOOTH",
"51 158 OFFCURVE",
"55 125 OFFCURVE",
"73 86 CURVE SMOOTH",
"102 21 OFFCURVE",
"163 -12 OFFCURVE",
"256 -12 CURVE SMOOTH"
);
}
);
width = 624;
},
{
anchors = (
{
name = bottom;
position = "{289, 0}";
},
{
name = ogonek;
position = "{507, 0}";
},
{
name = top;
position = "{289, 553}";
},
{
name = topright;
position = "{558, 553}";
}
);
layerId = "11907447-A26F-432E-A335-7727E0303767";
paths = (
{
closed = 1;
nodes = (
"321 -10 OFFCURVE",
"369 18 OFFCURVE",
"422 86 CURVE",
"422 0 LINE",
"507 0 LINE",
"507 553 LINE",
"422 553 LINE",
"422 317 LINE SMOOTH",
"422 204 OFFCURVE",
"408 144 OFFCURVE",
"372 106 CURVE SMOOTH",
"347 79 OFFCURVE",
"313 65 OFFCURVE",
"271 65 CURVE SMOOTH",
"233 65 OFFCURVE",
"205 75 OFFCURVE",
"186 96 CURVE SMOOTH",
"164 121 OFFCURVE",
"154 160 OFFCURVE",
"154 220 CURVE SMOOTH",
"154 553 LINE",
"69 553 LINE",
"69 220 LINE SMOOTH",
"69 156 OFFCURVE",
"77 111 OFFCURVE",
"95 77 CURVE SMOOTH",
"126 19 OFFCURVE",
"180 -10 OFFCURVE",
"258 -10 CURVE SMOOTH"
);
}
);
width = 578;
},
{
anchors = (
{
name = bottom;
position = "{279, 0}";
},
{
name = ogonek;
position = "{487, 0}";
},
{
name = top;
position = "{279, 549}";
},
{
name = topright;
position = "{538, 549}";
}
);
layerId = "2F4EEC1B-9E89-4E08-AD53-AB625B6E887D";
paths = (
{
closed = 1;
nodes = (
"321 -10 OFFCURVE",
"378 22 OFFCURVE",
"422 92 CURVE",
"422 0 LINE",
"487 0 LINE",
"487 549 LINE",
"422 549 LINE",
"422 332 LINE SMOOTH",
"422 214 OFFCURVE",
"403 139 OFFCURVE",
"361 93 CURVE SMOOTH",
"334 64 OFFCURVE",
"297 48 OFFCURVE",
"256 48 CURVE SMOOTH",
"211 48 OFFCURVE",
"177 65 OFFCURVE",
"156 99 CURVE SMOOTH",
"140 125 OFFCURVE",
"132 162 OFFCURVE",
"132 209 CURVE SMOOTH",
"132 549 LINE",
"67 549 LINE",
"67 212 LINE SMOOTH",
"67 153 OFFCURVE",
"75 107 OFFCURVE",
"94 74 CURVE SMOOTH",
"125 20 OFFCURVE",
"178 -10 OFFCURVE",
"242 -10 CURVE SMOOTH"
);
}
);
width = 558;
}
);
leftKerningGroup = u;
note = u;
rightKerningGroup = u;
unicode = 0075;
},
{
color = 1;
glyphname = v;
lastChange = "2020-04-14 06:34:14 +0000";
layers = (
{
anchors = (
{
name = bottom;
position = "{282, 0}";
},
{
name = top;
position = "{282, 567}";
}
);
guideLines = (
{
position = "{280, 334}";
}
);
layerId = "FD6EB2BB-8839-4CDB-86BF-4EEAE3F02079";
paths = (
{
closed = 1;
nodes = (
"348 0 LINE",
"558 567 LINE",
"380 567 LINE",
"280 249 LINE",
"184 567 LINE",
"6 567 LINE",
"215 0 LINE"
);
}
);
width = 564;
},
{
anchors = (
{
name = bottom;
position = "{260, 0}";
},
{
name = top;
position = "{260, 553}";
}
);
layerId = "11907447-A26F-432E-A335-7727E0303767";
paths = (
{
closed = 1;
nodes = (
"294 0 LINE",
"499 553 LINE",
"406 553 LINE",
"259 144 LINE",
"114 553 LINE",
"20 553 LINE",
"224 0 LINE"
);
}
);
width = 519;
},
{
anchors = (
{
name = bottom;
position = "{253, 0}";
},
{
name = top;
position = "{253, 549}";
}
);
layerId = "2F4EEC1B-9E89-4E08-AD53-AB625B6E887D";
paths = (
{
closed = 1;
nodes = (
"280 0 LINE",
"483 549 LINE",
"413 549 LINE",
"254 88 LINE",
"94 549 LINE",
"23 549 LINE",
"226 0 LINE"
);
}
);
width = 506;
}
);
leftKerningGroup = v;
note = v;
rightKerningGroup = v;
unicode = 0076;
},
{
color = 1;
glyphname = w;
lastChange = "2020-04-15 13:05:06 +0000";
layers = (
{
anchors = (
{
name = bottom;
position = "{429, 0}";
},
{
name = top;
position = "{429, 567}";
}
);
background = {
paths = (
{
closed = 1;
nodes = (
"346 0 LINE",
"430 341 LINE",
"510 0 LINE",
"669 0 LINE",
"850 567 LINE",
"672 567 LINE",
"586 239 LINE",
"500 567 LINE",
"356 567 LINE",
"271 237 LINE",
"188 567 LINE",
"9 567 LINE",
"186 0 LINE"
);
}
);
};
layerId = "FD6EB2BB-8839-4CDB-86BF-4EEAE3F02079";
paths = (
{
closed = 1;
nodes = (
"346 0 LINE",
"430 341 LINE",
"510 0 LINE",
"669 0 LINE",
"850 567 LINE",
"672 567 LINE",
"586 239 LINE",
"500 567 LINE",
"356 567 LINE",
"271 237 LINE",
"188 567 LINE",
"9 567 LINE",
"186 0 LINE"
);
}
);
width = 860;
},
{
anchors = (
{
name = bottom;
position = "{410, 0}";
},
{
name = top;
position = "{410, 553}";
}
);
layerId = "11907447-A26F-432E-A335-7727E0303767";
paths = (
{
closed = 1;
nodes = (
"266 0 LINE",
"410 433 LINE",
"552 0 LINE",
"631 0 LINE",
"795 553 LINE",
"704 553 LINE",
"587 138 LINE",
"448 553 LINE",
"371 553 LINE",
"232 138 LINE",
"116 553 LINE",
"25 553 LINE",
"187 0 LINE"
);
}
);
width = 820;
},
{
anchors = (
{
name = bottom;
position = "{402, 0}";
},
{
name = top;
position = "{402, 549}";
}
);
layerId = "2F4EEC1B-9E89-4E08-AD53-AB625B6E887D";
paths = (
{
closed = 1;
nodes = (
"245 0 LINE",
"403 463 LINE",
"558 0 LINE",
"619 0 LINE",
"778 549 LINE",
"710 549 LINE",
"586 98 LINE",
"432 549 LINE",
"372 549 LINE",
"218 99 LINE",
"95 549 LINE",
"27 549 LINE",
"185 0 LINE"
);
}
);
width = 805;
}
);
leftKerningGroup = w;
note = w;
rightKerningGroup = w;
unicode = 0077;
},
{
color = 1;
glyphname = x;
lastChange = "2020-04-14 06:36:09 +0000";
layers = (
{
anchors = (
{
name = bottom;
position = "{302, 0}";
},
{
name = top;
position = "{302, 567}";
}
);
layerId = "FD6EB2BB-8839-4CDB-86BF-4EEAE3F02079";
paths = (
{
closed = 1;
nodes = (
"197 0 LINE",
"300 173 LINE",
"405 0 LINE",
"597 0 LINE",
"405 287 LINE",
"598 567 LINE",
"404 567 LINE",
"299 398 LINE",
"197 567 LINE",
"7 567 LINE",
"195 287 LINE",
"8 0 LINE"
);
}
);
width = 604;
},
{
anchors = (
{
name = bottom;
position = "{275, 0}";
},
{
name = top;
position = "{275, 553}";
}
);
layerId = "11907447-A26F-432E-A335-7727E0303767";
paths = (
{
closed = 1;
nodes = (
"121 0 LINE",
"274 217 LINE",
"428 0 LINE",
"530 0 LINE",
"328 277 LINE",
"530 553 LINE",
"428 553 LINE",
"274 336 LINE",
"121 553 LINE",
"20 553 LINE",
"219 277 LINE",
"20 0 LINE"
);
}
);
width = 550;
},
{
anchors = (
{
name = bottom;
position = "{270, 0}";
},
{
name = top;
position = "{270, 549}";
}
);
layerId = "2F4EEC1B-9E89-4E08-AD53-AB625B6E887D";
paths = (
{
closed = 1;
nodes = (
"101 0 LINE",
"269 232 LINE",
"438 0 LINE",
"517 0 LINE",
"311 276 LINE",
"516 549 LINE",
"437 549 LINE",
"269 318 LINE",
"100 549 LINE",
"23 549 LINE",
"227 276 LINE",
"23 0 LINE"
);
}
);
width = 541;
}
);
leftKerningGroup = x;
note = x;
rightKerningGroup = x;
unicode = 0078;
},
{
color = 1;
glyphname = y;
lastChange = "2020-04-14 06:39:40 +0000";
layers = (
{
anchors = (
{
name = bottom;
position = "{287, 0}";
},
{
name = top;
position = "{282, 567}";
}
);
layerId = "FD6EB2BB-8839-4CDB-86BF-4EEAE3F02079";
paths = (
{
closed = 1;
nodes = (
"170 -196 LINE SMOOTH",
"279 -196 OFFCURVE",
"328 -149 OFFCURVE",
"366 -36 CURVE SMOOTH",
"567 567 LINE",
"386 567 LINE",
"294 165 LINE",
"187 567 LINE",
"7 567 LINE",
"208 -8 LINE",
"203 -20 LINE SMOOTH",
"189 -54 OFFCURVE",
"165 -59 OFFCURVE",
"137 -59 CURVE SMOOTH",
"69 -59 LINE",
"69 -196 LINE"
);
}
);
width = 576;
},
{
anchors = (
{
name = bottom;
position = "{274, 0}";
},
{
name = top;
position = "{274, 553}";
}
);
layerId = "11907447-A26F-432E-A335-7727E0303767";
paths = (
{
closed = 1;
nodes = (
"153 -210 LINE SMOOTH",
"219 -210 OFFCURVE",
"253 -192 OFFCURVE",
"283 -111 CURVE SMOOTH",
"528 553 LINE",
"436 553 LINE",
"280 124 LINE",
"112 553 LINE",
"18 553 LINE",
"234 8 LINE",
"204 -74 LINE SMOOTH",
"184 -128 OFFCURVE",
"168 -132 OFFCURVE",
"123 -132 CURVE SMOOTH",
"71 -132 LINE",
"71 -210 LINE"
);
}
);
width = 549;
},
{
anchors = (
{
name = bottom;
position = "{271, 0}";
},
{
name = top;
position = "{271, 549}";
}
);
layerId = "2F4EEC1B-9E89-4E08-AD53-AB625B6E887D";
paths = (
{
closed = 1;
nodes = (
"157 -214 LINE SMOOTH",
"191 -214 OFFCURVE",
"240 -206 OFFCURVE",
"271 -123 CURVE SMOOTH",
"519 549 LINE",
"447 549 LINE",
"281 88 LINE",
"92 549 LINE",
"20 549 LINE",
"248 5 LINE",
"208 -101 LINE SMOOTH",
"191 -145 OFFCURVE",
"173 -155 OFFCURVE",
"127 -155 CURVE SMOOTH",
"67 -155 LINE",
"67 -214 LINE"
);
}
);
width = 542;
}
);
leftKerningGroup = y;
note = y;
rightKerningGroup = y;
unicode = 0079;
},
{
color = 1;
glyphname = z;
lastChange = "2020-04-14 06:41:44 +0000";
layers = (
{
anchors = (
{
name = bottom;
position = "{287, 0}";
},
{
name = center;
position = "{287, 284}";
},
{
name = top;
position = "{287, 567}";
}
);
layerId = "FD6EB2BB-8839-4CDB-86BF-4EEAE3F02079";
paths = (
{
closed = 1;
nodes = (
"536 0 LINE",
"536 132 LINE",
"257 132 LINE",
"536 458 LINE",
"536 567 LINE",
"45 567 LINE",
"45 435 LINE",
"320 435 LINE",
"29 101 LINE",
"29 0 LINE"
);
}
);
width = 570;
},
{
anchors = (
{
name = bottom;
position = "{268, 0}";
},
{
name = center;
position = "{268, 277}";
},
{
name = top;
position = "{268, 553}";
}
);
layerId = "11907447-A26F-432E-A335-7727E0303767";
paths = (
{
closed = 1;
nodes = (
"494 0 LINE",
"494 75 LINE",
"144 75 LINE",
"497 473 LINE",
"497 553 LINE",
"53 553 LINE",
"53 478 LINE",
"394 478 LINE",
"34 72 LINE",
"34 0 LINE"
);
}
);
width = 533;
},
{
anchors = (
{
name = bottom;
position = "{262, 0}";
},
{
name = center;
position = "{262, 275}";
},
{
name = top;
position = "{262, 549}";
}
);
layerId = "2F4EEC1B-9E89-4E08-AD53-AB625B6E887D";
paths = (
{
closed = 1;
nodes = (
"481 0 LINE",
"481 58 LINE",
"116 58 LINE",
"485 485 LINE",
"485 549 LINE",
"53 549 LINE",
"53 491 LINE",
"409 491 LINE",
"34 59 LINE",
"34 0 LINE"
);
}
);
width = 521;
}
);
leftKerningGroup = z;
note = z;
rightKerningGroup = z;
unicode = 007A;
},
